solid Main_Body_RevB1
facet normal -0.0 -0.0 1.0
  outer loop
    vertex 618.5618192844933 947.923662364103 0.28567741676452607
    vertex 616.3618192844932 954.9236623641032 0.28567741676452607
    vertex 616.3618192844932 947.923662364103 0.28567741676452607
  endloop
endfacet
facet normal -0.0 -0.0 1.0
  outer loop
    vertex 616.3618192844932 954.9236623641032 0.28567741676452607
    vertex 618.5618192844933 947.923662364103 0.28567741676452607
    vertex 617.3618192844932 954.9236623641032 0.28567741676452607
  endloop
endfacet
facet normal -0.0 -0.0 1.0
  outer loop
    vertex 617.3618192844932 954.9236623641032 0.28567741676452607
    vertex 618.5618192844933 947.923662364103 0.28567741676452607
    vertex 617.3618192844932 960.9236623641032 0.28567741676452607
  endloop
endfacet
facet normal -0.0 -0.0 1.0
  outer loop
    vertex 636.3618192844932 947.923662364103 0.28567741676452607
    vertex 634.1618192844932 951.3236623641033 0.28567741676452607
    vertex 634.1618192844932 947.923662364103 0.28567741676452607
  endloop
endfacet
facet normal -0.0 -0.0 1.0
  outer loop
    vertex 634.1618192844932 951.3236623641033 0.28567741676452607
    vertex 619.3618192844932 953.9236623641032 0.28567741676452607
    vertex 618.5618192844933 951.3236623641033 0.28567741676452607
  endloop
endfacet
facet normal -0.0 -0.0 1.0
  outer loop
    vertex 619.3618192844932 953.9236623641032 0.28567741676452607
    vertex 634.1618192844932 951.3236623641033 0.28567741676452607
    vertex 633.3618192844931 953.9236623641032 0.28567741676452607
  endloop
endfacet
facet normal -0.0 -0.0 1.0
  outer loop
    vertex 633.3618192844931 953.9236623641032 0.28567741676452607
    vertex 634.1618192844932 951.3236623641033 0.28567741676452607
    vertex 633.3618192844931 963.9236623641033 0.28567741676452607
  endloop
endfacet
facet normal -0.0 -0.0 1.0
  outer loop
    vertex 633.3618192844931 963.9236623641033 0.28567741676452607
    vertex 634.1618192844932 951.3236623641033 0.28567741676452607
    vertex 636.3618192844932 963.9236623641033 0.28567741676452607
  endloop
endfacet
facet normal -0.0 -0.0 1.0
  outer loop
    vertex 636.3618192844932 963.9236623641033 0.28567741676452607
    vertex 634.1618192844932 951.3236623641033 0.28567741676452607
    vertex 636.3618192844932 947.923662364103 0.28567741676452607
  endloop
endfacet
facet normal -0.0 -0.0 1.0
  outer loop
    vertex 617.3618192844932 960.9236623641032 0.28567741676452607
    vertex 616.3618192844932 963.9236623641033 0.28567741676452607
    vertex 616.3618192844932 960.9236623641032 0.28567741676452607
  endloop
endfacet
facet normal -0.0 -0.0 1.0
  outer loop
    vertex 616.3618192844932 963.9236623641033 0.28567741676452607
    vertex 617.3618192844932 960.9236623641032 0.28567741676452607
    vertex 619.3618192844932 963.9236623641033 0.28567741676452607
  endloop
endfacet
facet normal -0.0 -0.0 1.0
  outer loop
    vertex 619.3618192844932 963.9236623641033 0.28567741676452607
    vertex 617.3618192844932 960.9236623641032 0.28567741676452607
    vertex 618.5618192844933 951.3236623641033 0.28567741676452607
  endloop
endfacet
facet normal -0.0 -0.0 1.0
  outer loop
    vertex 618.5618192844933 951.3236623641033 0.28567741676452607
    vertex 617.3618192844932 960.9236623641032 0.28567741676452607
    vertex 618.5618192844933 947.923662364103 0.28567741676452607
  endloop
endfacet
facet normal -0.0 -0.0 1.0
  outer loop
    vertex 619.3618192844932 963.9236623641033 0.28567741676452607
    vertex 618.5618192844933 951.3236623641033 0.28567741676452607
    vertex 619.3618192844932 953.9236623641032 0.28567741676452607
  endloop
endfacet
facet normal -1.0 0.0 -0.0
  outer loop
    vertex 617.3618192844932 996.7236623641033 0.28567741676452607
    vertex 617.3618192844932 990.7236623641032 -1.2143225832354738
    vertex 617.3618192844932 990.7236623641032 0.28567741676452607
  endloop
endfacet
facet normal -1.0 0.0 -0.0
  outer loop
    vertex 617.3618192844932 990.7236623641032 -1.2143225832354738
    vertex 617.3618192844932 996.7236623641033 0.28567741676452607
    vertex 617.3618192844932 996.7236623641033 -1.2143225832354738
  endloop
endfacet
facet normal -0.0 1.0 -0.0
  outer loop
    vertex 616.3618192844932 990.7236623641032 0.28567741676452607
    vertex 617.3618192844932 990.7236623641032 -1.2143225832354738
    vertex 616.3618192844932 990.7236623641032 -1.2143225832354738
  endloop
endfacet
facet normal -0.0 1.0 -0.0
  outer loop
    vertex 617.3618192844932 990.7236623641032 -1.2143225832354738
    vertex 616.3618192844932 990.7236623641032 0.28567741676452607
    vertex 617.3618192844932 990.7236623641032 0.28567741676452607
  endloop
endfacet
facet normal -0.0 1.0 -0.0
  outer loop
    vertex 616.3618192844932 954.9236623641032 0.28567741676452607
    vertex 617.3618192844932 954.9236623641032 -1.214322583235474
    vertex 616.3618192844932 954.9236623641032 -1.214322583235474
  endloop
endfacet
facet normal -0.0 1.0 -0.0
  outer loop
    vertex 617.3618192844932 954.9236623641032 -1.214322583235474
    vertex 616.3618192844932 954.9236623641032 0.28567741676452607
    vertex 617.3618192844932 954.9236623641032 0.28567741676452607
  endloop
endfacet
facet normal -0.0 -0.0 1.0
  outer loop
    vertex 636.3618192844932 987.7236623641032 0.28567741676452607
    vertex 633.3618192844931 997.923662364103 0.28567741676452607
    vertex 633.3618192844931 987.7236623641032 0.28567741676452607
  endloop
endfacet
facet normal -0.0 -0.0 1.0
  outer loop
    vertex 633.3618192844931 997.923662364103 0.28567741676452607
    vertex 636.3618192844932 987.7236623641032 0.28567741676452607
    vertex 634.1618192844933 1000.5236623641031 0.28567741676452607
  endloop
endfacet
facet normal -0.0 -0.0 1.0
  outer loop
    vertex 634.1618192844933 1000.5236623641031 0.28567741676452607
    vertex 636.3618192844932 987.7236623641032 0.28567741676452607
    vertex 634.1618192844933 1003.9236623641032 0.28567741676452607
  endloop
endfacet
facet normal -0.0 -0.0 1.0
  outer loop
    vertex 634.1618192844933 1003.9236623641032 0.28567741676452607
    vertex 636.3618192844932 987.7236623641032 0.28567741676452607
    vertex 636.3618192844932 1003.9236623641032 0.28567741676452607
  endloop
endfacet
facet normal -0.0 -0.0 1.0
  outer loop
    vertex 619.3618192844932 987.7236623641032 0.28567741676452607
    vertex 616.3618192844932 990.7236623641032 0.28567741676452607
    vertex 616.3618192844932 987.7236623641032 0.28567741676452607
  endloop
endfacet
facet normal -0.0 -0.0 1.0
  outer loop
    vertex 616.3618192844932 990.7236623641032 0.28567741676452607
    vertex 619.3618192844932 987.7236623641032 0.28567741676452607
    vertex 617.3618192844932 990.7236623641032 0.28567741676452607
  endloop
endfacet
facet normal -0.0 -0.0 1.0
  outer loop
    vertex 617.3618192844932 990.7236623641032 0.28567741676452607
    vertex 619.3618192844932 987.7236623641032 0.28567741676452607
    vertex 617.3618192844932 996.7236623641033 0.28567741676452607
  endloop
endfacet
facet normal -0.0 -0.0 1.0
  outer loop
    vertex 617.3618192844932 996.7236623641033 0.28567741676452607
    vertex 619.3618192844932 987.7236623641032 0.28567741676452607
    vertex 618.5618192844933 1000.5236623641031 0.28567741676452607
  endloop
endfacet
facet normal -0.0 -0.0 1.0
  outer loop
    vertex 618.5618192844933 1000.5236623641031 0.28567741676452607
    vertex 619.3618192844932 987.7236623641032 0.28567741676452607
    vertex 619.3618192844932 997.923662364103 0.28567741676452607
  endloop
endfacet
facet normal -0.0 -0.0 1.0
  outer loop
    vertex 618.5618192844933 1000.5236623641031 0.28567741676452607
    vertex 619.3618192844932 997.923662364103 0.28567741676452607
    vertex 634.1618192844933 1000.5236623641031 0.28567741676452607
  endloop
endfacet
facet normal -0.0 -0.0 1.0
  outer loop
    vertex 634.1618192844933 1000.5236623641031 0.28567741676452607
    vertex 619.3618192844932 997.923662364103 0.28567741676452607
    vertex 633.3618192844931 997.923662364103 0.28567741676452607
  endloop
endfacet
facet normal -0.0 -0.0 1.0
  outer loop
    vertex 617.3618192844932 996.7236623641033 0.28567741676452607
    vertex 616.3618192844932 1003.9236623641032 0.28567741676452607
    vertex 616.3618192844932 996.7236623641033 0.28567741676452607
  endloop
endfacet
facet normal -0.0 -0.0 1.0
  outer loop
    vertex 616.3618192844932 1003.9236623641032 0.28567741676452607
    vertex 617.3618192844932 996.7236623641033 0.28567741676452607
    vertex 618.5618192844933 1003.9236623641032 0.28567741676452607
  endloop
endfacet
facet normal -0.0 -0.0 1.0
  outer loop
    vertex 618.5618192844933 1003.9236623641032 0.28567741676452607
    vertex 617.3618192844932 996.7236623641033 0.28567741676452607
    vertex 618.5618192844933 1000.5236623641031 0.28567741676452607
  endloop
endfacet
facet normal -0.0 -1.0 -0.0
  outer loop
    vertex 617.3618192844932 996.7236623641033 0.28567741676452607
    vertex 616.3618192844932 996.7236623641033 -1.2143225832354738
    vertex 617.3618192844932 996.7236623641033 -1.2143225832354738
  endloop
endfacet
facet normal -0.0 -1.0 -0.0
  outer loop
    vertex 616.3618192844932 996.7236623641033 -1.2143225832354738
    vertex 617.3618192844932 996.7236623641033 0.28567741676452607
    vertex 616.3618192844932 996.7236623641033 0.28567741676452607
  endloop
endfacet
facet normal 0.0 0.0 1.0
  outer loop
    vertex 617.3618192844932 954.9236623641032 -1.214322583235474
    vertex 616.3618192844932 960.9236623641032 -1.214322583235474
    vertex 616.3618192844932 954.9236623641032 -1.214322583235474
  endloop
endfacet
facet normal 0.0 0.0 1.0
  outer loop
    vertex 616.3618192844932 960.9236623641032 -1.214322583235474
    vertex 617.3618192844932 954.9236623641032 -1.214322583235474
    vertex 617.3618192844932 960.9236623641032 -1.214322583235474
  endloop
endfacet
facet normal -1.0 0.0 -0.0
  outer loop
    vertex 617.3618192844932 960.9236623641032 0.28567741676452607
    vertex 617.3618192844932 954.9236623641032 -1.214322583235474
    vertex 617.3618192844932 954.9236623641032 0.28567741676452607
  endloop
endfacet
facet normal -1.0 0.0 -0.0
  outer loop
    vertex 617.3618192844932 954.9236623641032 -1.214322583235474
    vertex 617.3618192844932 960.9236623641032 0.28567741676452607
    vertex 617.3618192844932 960.9236623641032 -1.214322583235474
  endloop
endfacet
facet normal 0.0 0.0 1.0
  outer loop
    vertex 617.3618192844932 990.7236623641032 -1.2143225832354738
    vertex 616.3618192844932 996.7236623641033 -1.2143225832354738
    vertex 616.3618192844932 990.7236623641032 -1.2143225832354738
  endloop
endfacet
facet normal 0.0 0.0 1.0
  outer loop
    vertex 616.3618192844932 996.7236623641033 -1.2143225832354738
    vertex 617.3618192844932 990.7236623641032 -1.2143225832354738
    vertex 617.3618192844932 996.7236623641033 -1.2143225832354738
  endloop
endfacet
facet normal -0.0 -1.0 -0.0
  outer loop
    vertex 617.3618192844932 960.9236623641032 0.28567741676452607
    vertex 616.3618192844932 960.9236623641032 -1.214322583235474
    vertex 617.3618192844932 960.9236623641032 -1.214322583235474
  endloop
endfacet
facet normal -0.0 -1.0 -0.0
  outer loop
    vertex 616.3618192844932 960.9236623641032 -1.214322583235474
    vertex 617.3618192844932 960.9236623641032 0.28567741676452607
    vertex 616.3618192844932 960.9236623641032 0.28567741676452607
  endloop
endfacet
facet normal 0.0 0.0 1.0
  outer loop
    vertex 633.3618192844931 953.9236623641032 -22.714322583235475
    vertex 619.3618192844932 957.9236623641032 -22.714322583235475
    vertex 619.3618192844932 953.9236623641032 -22.714322583235475
  endloop
endfacet
facet normal 0.0 0.0 1.0
  outer loop
    vertex 619.3618192844932 957.9236623641032 -22.714322583235475
    vertex 633.3618192844931 953.9236623641032 -22.714322583235475
    vertex 633.3618192844931 957.9236623641032 -22.714322583235475
  endloop
endfacet
facet normal -0.0 -1.0 -0.0
  outer loop
    vertex 633.3618192844931 957.9236623641032 -2.714322583235474
    vertex 619.3618192844932 957.9236623641032 -22.714322583235475
    vertex 633.3618192844931 957.9236623641032 -22.714322583235475
  endloop
endfacet
facet normal -0.0 -1.0 -0.0
  outer loop
    vertex 619.3618192844932 957.9236623641032 -22.714322583235475
    vertex 633.3618192844931 957.9236623641032 -2.714322583235474
    vertex 619.3618192844932 957.9236623641032 -2.714322583235474
  endloop
endfacet
facet normal 0.0 1.0 0.0
  outer loop
    vertex 616.3618192844932 963.9236623641033 -6.714322583235475
    vertex 619.3618192844932 963.9236623641033 -2.714322583235474
    vertex 636.3618192844932 963.9236623641033 -6.714322583235473
  endloop
endfacet
facet normal 0.0 1.0 0.0
  outer loop
    vertex 619.3618192844932 963.9236623641033 -2.714322583235474
    vertex 616.3618192844932 963.9236623641033 -6.714322583235475
    vertex 616.3618192844932 963.9236623641033 0.28567741676452607
  endloop
endfacet
facet normal 0.0 1.0 0.0
  outer loop
    vertex 619.3618192844932 963.9236623641033 -2.714322583235474
    vertex 616.3618192844932 963.9236623641033 0.28567741676452607
    vertex 619.3618192844932 963.9236623641033 0.28567741676452607
  endloop
endfacet
facet normal 0.0 1.0 0.0
  outer loop
    vertex 636.3618192844932 963.9236623641033 -6.714322583235473
    vertex 633.3618192844931 963.9236623641033 -2.714322583235474
    vertex 636.3618192844932 963.9236623641033 0.28567741676452607
  endloop
endfacet
facet normal 0.0 1.0 0.0
  outer loop
    vertex 633.3618192844931 963.9236623641033 -2.714322583235474
    vertex 636.3618192844932 963.9236623641033 -6.714322583235473
    vertex 619.3618192844932 963.9236623641033 -2.714322583235474
  endloop
endfacet
facet normal 0.0 1.0 0.0
  outer loop
    vertex 636.3618192844932 963.9236623641033 0.28567741676452607
    vertex 633.3618192844931 963.9236623641033 -2.714322583235474
    vertex 633.3618192844931 963.9236623641033 0.28567741676452607
  endloop
endfacet
facet normal 0.0 -1.0 0.0
  outer loop
    vertex 636.3618192844932 987.7236623641032 0.28567741676452607
    vertex 633.3618192844931 987.7236623641032 -2.714322583235474
    vertex 636.3618192844932 987.7236623641032 -6.714322583235473
  endloop
endfacet
facet normal 0.0 -1.0 0.0
  outer loop
    vertex 633.3618192844931 987.7236623641032 -2.714322583235474
    vertex 636.3618192844932 987.7236623641032 0.28567741676452607
    vertex 633.3618192844931 987.7236623641032 0.28567741676452607
  endloop
endfacet
facet normal 0.0 -1.0 0.0
  outer loop
    vertex 616.3618192844932 987.7236623641032 -6.714322583235475
    vertex 619.3618192844932 987.7236623641032 -2.714322583235474
    vertex 616.3618192844932 987.7236623641032 0.28567741676452607
  endloop
endfacet
facet normal 0.0 -1.0 0.0
  outer loop
    vertex 619.3618192844932 987.7236623641032 -2.714322583235474
    vertex 616.3618192844932 987.7236623641032 -6.714322583235475
    vertex 636.3618192844932 987.7236623641032 -6.714322583235473
  endloop
endfacet
facet normal 0.0 -1.0 0.0
  outer loop
    vertex 619.3618192844932 987.7236623641032 -2.714322583235474
    vertex 636.3618192844932 987.7236623641032 -6.714322583235473
    vertex 633.3618192844931 987.7236623641032 -2.714322583235474
  endloop
endfacet
facet normal 0.0 -1.0 0.0
  outer loop
    vertex 616.3618192844932 987.7236623641032 0.28567741676452607
    vertex 619.3618192844932 987.7236623641032 -2.714322583235474
    vertex 619.3618192844932 987.7236623641032 0.28567741676452607
  endloop
endfacet
facet normal 7.049916206369756e-17 0.0 -1.0
  outer loop
    vertex 636.3618192844932 963.9236623641033 -6.714322583235473
    vertex 616.3618192844932 960.9236623641032 -6.714322583235475
    vertex 616.3618192844932 963.9236623641033 -6.714322583235475
  endloop
endfacet
facet normal 7.049916206369756e-17 0.0 -1.0
  outer loop
    vertex 616.3618192844932 960.9236623641032 -6.714322583235475
    vertex 636.3618192844932 963.9236623641033 -6.714322583235473
    vertex 636.3618192844932 960.9236623641032 -6.714322583235473
  endloop
endfacet
facet normal 0.0 -1.0 0.0
  outer loop
    vertex 636.3618192844932 990.9236623641033 -20.714322583235475
    vertex 616.3618192844932 990.9236623641033 -22.714322583235475
    vertex 636.3618192844932 990.9236623641033 -22.714322583235475
  endloop
endfacet
facet normal 0.0 -1.0 0.0
  outer loop
    vertex 616.3618192844932 990.9236623641033 -22.714322583235475
    vertex 636.3618192844932 990.9236623641033 -20.714322583235475
    vertex 616.3618192844932 990.9236623641033 -6.714322583235475
  endloop
endfacet
facet normal 0.0 -1.0 0.0
  outer loop
    vertex 616.3618192844932 990.9236623641033 -6.714322583235475
    vertex 636.3618192844932 990.9236623641033 -20.714322583235475
    vertex 636.3618192844932 990.9236623641033 -6.714322583235473
  endloop
endfacet
facet normal 7.049916206369756e-17 0.0 -1.0
  outer loop
    vertex 636.3618192844932 990.9236623641033 -6.714322583235473
    vertex 616.3618192844932 987.7236623641032 -6.714322583235475
    vertex 616.3618192844932 990.9236623641033 -6.714322583235475
  endloop
endfacet
facet normal 7.049916206369756e-17 0.0 -1.0
  outer loop
    vertex 616.3618192844932 987.7236623641032 -6.714322583235475
    vertex 636.3618192844932 990.9236623641033 -6.714322583235473
    vertex 636.3618192844932 987.7236623641032 -6.714322583235473
  endloop
endfacet
facet normal -0.0 1.0 -0.0
  outer loop
    vertex 619.3618192844932 953.9236623641032 0.28567741676452607
    vertex 633.3618192844931 953.9236623641032 -22.714322583235475
    vertex 619.3618192844932 953.9236623641032 -22.714322583235475
  endloop
endfacet
facet normal -0.0 1.0 -0.0
  outer loop
    vertex 633.3618192844931 953.9236623641032 -22.714322583235475
    vertex 619.3618192844932 953.9236623641032 0.28567741676452607
    vertex 633.3618192844931 953.9236623641032 0.28567741676452607
  endloop
endfacet
facet normal 0.0 0.0 1.0
  outer loop
    vertex 633.3618192844931 993.9236623641033 -22.714322583235475
    vertex 619.3618192844932 997.923662364103 -22.714322583235475
    vertex 619.3618192844932 993.9236623641033 -22.714322583235475
  endloop
endfacet
facet normal 0.0 0.0 1.0
  outer loop
    vertex 619.3618192844932 997.923662364103 -22.714322583235475
    vertex 633.3618192844931 993.9236623641033 -22.714322583235475
    vertex 633.3618192844931 997.923662364103 -22.714322583235475
  endloop
endfacet
facet normal -1.0 0.0 0.0
  outer loop
    vertex 662.3618192844932 990.9236623641033 -12.714322583235473
    vertex 662.3618192844932 960.9236623641032 -21.71432258323547
    vertex 662.3618192844932 960.9236623641032 -12.714322583235473
  endloop
endfacet
facet normal -1.0 0.0 0.0
  outer loop
    vertex 662.3618192844932 960.9236623641032 -21.71432258323547
    vertex 662.3618192844932 990.9236623641033 -12.714322583235473
    vertex 662.3618192844932 990.9236623641021 -21.71432258323547
  endloop
endfacet
facet normal 1.0 -0.0 -0.0
  outer loop
    vertex 636.3618192844932 958.5236623641031 -25.71432258323547
    vertex 636.3618192844932 947.923662364103 0.28567741676452607
    vertex 636.3618192844932 947.923662364103 -25.71432258323547
  endloop
endfacet
facet normal 1.0 -0.0 -0.0
  outer loop
    vertex 636.3618192844932 947.923662364103 0.28567741676452607
    vertex 636.3618192844932 958.5236623641031 -25.71432258323547
    vertex 636.3618192844932 958.5236623641031 -22.714322583235475
  endloop
endfacet
facet normal 1.0 -0.0 -0.0
  outer loop
    vertex 636.3618192844932 947.923662364103 0.28567741676452607
    vertex 636.3618192844932 958.5236623641031 -22.714322583235475
    vertex 636.3618192844932 958.5236623641034 -20.714322583235475
  endloop
endfacet
facet normal 1.0 -0.0 -0.0
  outer loop
    vertex 636.3618192844932 947.923662364103 0.28567741676452607
    vertex 636.3618192844932 958.5236623641034 -20.714322583235475
    vertex 636.3618192844932 960.9236623641032 -6.714322583235473
  endloop
endfacet
facet normal 1.0 -0.0 -0.0
  outer loop
    vertex 636.3618192844932 947.923662364103 0.28567741676452607
    vertex 636.3618192844932 960.9236623641032 -6.714322583235473
    vertex 636.3618192844932 963.9236623641033 0.28567741676452607
  endloop
endfacet
facet normal 1.0 -0.0 -0.0
  outer loop
    vertex 636.3618192844932 960.9236623641032 -6.714322583235473
    vertex 636.3618192844932 958.5236623641034 -20.714322583235475
    vertex 636.3618192844932 960.9236623641032 -20.714322583235475
  endloop
endfacet
facet normal 1.0 -0.0 -0.0
  outer loop
    vertex 636.3618192844932 963.9236623641033 0.28567741676452607
    vertex 636.3618192844932 960.9236623641032 -6.714322583235473
    vertex 636.3618192844932 963.9236623641033 -6.714322583235473
  endloop
endfacet
facet normal 0.0 0.0 1.0
  outer loop
    vertex 664.3618192844932 960.9236623641032 -12.714322583235473
    vertex 662.3618192844932 990.9236623641033 -12.714322583235473
    vertex 662.3618192844932 960.9236623641032 -12.714322583235473
  endloop
endfacet
facet normal 0.0 0.0 1.0
  outer loop
    vertex 662.3618192844932 990.9236623641033 -12.714322583235473
    vertex 664.3618192844932 960.9236623641032 -12.714322583235473
    vertex 664.3618192844932 990.9236623641033 -12.714322583235473
  endloop
endfacet
facet normal 1.0 -4.511946372076135e-15 2.2559731860383183e-14
  outer loop
    vertex 664.3618192844934 990.9236623641033 -22.71432258323679
    vertex 664.3618192844932 960.9236623641032 -12.714322583235473
    vertex 664.3618192844932 960.9236623641032 -22.714322583235475
  endloop
endfacet
facet normal 1.0 -4.511946372076135e-15 2.2559731860383183e-14
  outer loop
    vertex 664.3618192844932 960.9236623641032 -12.714322583235473
    vertex 664.3618192844934 990.9236623641033 -22.71432258323679
    vertex 664.3618192844932 990.9236623641033 -12.714322583235473
  endloop
endfacet
facet normal -1.3326506968821869e-14 1.122173647534459e-16 -1.0
  outer loop
    vertex 636.3618192844933 993.3236623641034 -25.71432258323526
    vertex 636.3618192844932 958.5236623641031 -25.71432258323547
    vertex 636.3618192844932 1003.9236623641032 -25.71432258323547
  endloop
endfacet
facet normal -1.3326506968821869e-14 1.122173647534459e-16 -1.0
  outer loop
    vertex 636.3618192844932 958.5236623641031 -25.71432258323547
    vertex 636.3618192844933 993.3236623641034 -25.71432258323526
    vertex 659.3618192844932 958.5236623641031 -25.71432258323547
  endloop
endfacet
facet normal -1.3326506968821869e-14 1.122173647534459e-16 -1.0
  outer loop
    vertex 659.3618192844932 958.5236623641031 -25.71432258323547
    vertex 636.3618192844933 993.3236623641034 -25.71432258323526
    vertex 659.3618192844933 993.3236623641023 -25.714322583235653
  endloop
endfacet
facet normal -1.3326506968821869e-14 1.122173647534459e-16 -1.0
  outer loop
    vertex 659.3618192844932 958.5236623641031 -25.71432258323547
    vertex 659.3618192844933 993.3236623641023 -25.714322583235653
    vertex 661.3618192844932 960.9236623641032 -25.714322583235905
  endloop
endfacet
facet normal -1.3326506968821869e-14 1.122173647534459e-16 -1.0
  outer loop
    vertex 661.3618192844932 960.9236623641032 -25.714322583235905
    vertex 659.3618192844933 993.3236623641023 -25.714322583235653
    vertex 661.3618192844932 990.9236623641027 -25.714322583235905
  endloop
endfacet
facet normal -1.3326506968821869e-14 1.122173647534459e-16 -1.0
  outer loop
    vertex 661.3618192844932 960.9236623641032 -25.714322583235905
    vertex 661.3618192844932 990.9236623641027 -25.714322583235905
    vertex 681.9618192844932 990.9236623641033 -25.714322583236328
  endloop
endfacet
facet normal -1.3326506968821869e-14 1.122173647534459e-16 -1.0
  outer loop
    vertex 661.3618192844932 960.9236623641032 -25.714322583235905
    vertex 681.9618192844932 990.9236623641033 -25.714322583236328
    vertex 681.9618192844932 960.9236623641032 -25.714322583236328
  endloop
endfacet
facet normal -1.3326506968821869e-14 1.122173647534459e-16 -1.0
  outer loop
    vertex 681.9618192844932 960.9236623641032 -25.714322583236328
    vertex 681.9618192844932 990.9236623641033 -25.714322583236328
    vertex 681.9618192844932 987.9236623641032 -25.714322583236328
  endloop
endfacet
facet normal -1.3326506968821869e-14 1.122173647534459e-16 -1.0
  outer loop
    vertex 681.9618192844932 960.9236623641032 -25.714322583236328
    vertex 681.9618192844932 987.9236623641032 -25.714322583236328
    vertex 681.9618192844932 963.9236623641033 -25.714322583236328
  endloop
endfacet
facet normal -1.3326506968821869e-14 1.122173647534459e-16 -1.0
  outer loop
    vertex 636.3618192844932 1003.9236623641032 -25.71432258323547
    vertex 616.3618192844932 947.923662364103 -25.71432258323547
    vertex 616.3618192844932 1003.9236623641032 -25.71432258323547
  endloop
endfacet
facet normal -1.3326506968821869e-14 1.122173647534459e-16 -1.0
  outer loop
    vertex 616.3618192844932 947.923662364103 -25.71432258323547
    vertex 636.3618192844932 1003.9236623641032 -25.71432258323547
    vertex 636.3618192844932 947.923662364103 -25.71432258323547
  endloop
endfacet
facet normal -1.3326506968821869e-14 1.122173647534459e-16 -1.0
  outer loop
    vertex 636.3618192844932 947.923662364103 -25.71432258323547
    vertex 636.3618192844932 1003.9236623641032 -25.71432258323547
    vertex 636.3618192844932 958.5236623641031 -25.71432258323547
  endloop
endfacet
facet normal -0.0 -0.0 1.0
  outer loop
    vertex 634.1618192844932 947.923662364103 -22.71432258323547
    vertex 618.5618192844933 951.3236623641033 -22.71432258323547
    vertex 618.5618192844933 947.923662364103 -22.71432258323547
  endloop
endfacet
facet normal -0.0 -0.0 1.0
  outer loop
    vertex 618.5618192844933 951.3236623641033 -22.71432258323547
    vertex 634.1618192844932 947.923662364103 -22.71432258323547
    vertex 634.1618192844932 951.3236623641033 -22.71432258323547
  endloop
endfacet
facet normal -0.0 1.0 -0.0
  outer loop
    vertex 616.3618192844932 960.9236623641032 -6.714322583235475
    vertex 636.3618192844932 960.9236623641032 -22.714322583235475
    vertex 616.3618192844932 960.9236623641032 -22.714322583235475
  endloop
endfacet
facet normal -0.0 1.0 -0.0
  outer loop
    vertex 636.3618192844932 960.9236623641032 -22.714322583235475
    vertex 616.3618192844932 960.9236623641032 -6.714322583235475
    vertex 636.3618192844932 960.9236623641032 -20.714322583235475
  endloop
endfacet
facet normal -0.0 1.0 -0.0
  outer loop
    vertex 636.3618192844932 960.9236623641032 -20.714322583235475
    vertex 616.3618192844932 960.9236623641032 -6.714322583235475
    vertex 636.3618192844932 960.9236623641032 -6.714322583235473
  endloop
endfacet
facet normal -0.0 -0.0 1.0
  outer loop
    vertex 634.1618192844933 1000.5236623641031 -22.71432258323547
    vertex 618.5618192844933 1003.9236623641032 -22.71432258323547
    vertex 618.5618192844933 1000.5236623641031 -22.71432258323547
  endloop
endfacet
facet normal -0.0 -0.0 1.0
  outer loop
    vertex 618.5618192844933 1003.9236623641032 -22.71432258323547
    vertex 634.1618192844933 1000.5236623641031 -22.71432258323547
    vertex 634.1618192844933 1003.9236623641032 -22.71432258323547
  endloop
endfacet
facet normal 0.0 -1.0 0.0
  outer loop
    vertex 636.3618192844932 947.923662364103 -25.71432258323547
    vertex 634.1618192844932 947.923662364103 -22.71432258323547
    vertex 616.3618192844932 947.923662364103 -25.71432258323547
  endloop
endfacet
facet normal 0.0 -1.0 0.0
  outer loop
    vertex 634.1618192844932 947.923662364103 -22.71432258323547
    vertex 636.3618192844932 947.923662364103 -25.71432258323547
    vertex 636.3618192844932 947.923662364103 0.28567741676452607
  endloop
endfacet
facet normal 0.0 -1.0 0.0
  outer loop
    vertex 634.1618192844932 947.923662364103 -22.71432258323547
    vertex 636.3618192844932 947.923662364103 0.28567741676452607
    vertex 634.1618192844932 947.923662364103 0.28567741676452607
  endloop
endfacet
facet normal 0.0 -1.0 0.0
  outer loop
    vertex 616.3618192844932 947.923662364103 -25.71432258323547
    vertex 618.5618192844933 947.923662364103 -22.71432258323547
    vertex 616.3618192844932 947.923662364103 0.28567741676452607
  endloop
endfacet
facet normal 0.0 -1.0 0.0
  outer loop
    vertex 618.5618192844933 947.923662364103 -22.71432258323547
    vertex 616.3618192844932 947.923662364103 -25.71432258323547
    vertex 634.1618192844932 947.923662364103 -22.71432258323547
  endloop
endfacet
facet normal 0.0 -1.0 0.0
  outer loop
    vertex 616.3618192844932 947.923662364103 0.28567741676452607
    vertex 618.5618192844933 947.923662364103 -22.71432258323547
    vertex 618.5618192844933 947.923662364103 0.28567741676452607
  endloop
endfacet
facet normal -0.0 1.0 -0.0
  outer loop
    vertex 616.3618192844932 1003.9236623641032 -25.71432258323547
    vertex 618.5618192844933 1003.9236623641032 -22.71432258323547
    vertex 636.3618192844932 1003.9236623641032 -25.71432258323547
  endloop
endfacet
facet normal -0.0 1.0 -0.0
  outer loop
    vertex 618.5618192844933 1003.9236623641032 -22.71432258323547
    vertex 616.3618192844932 1003.9236623641032 -25.71432258323547
    vertex 616.3618192844932 1003.9236623641032 0.28567741676452607
  endloop
endfacet
facet normal -0.0 1.0 -0.0
  outer loop
    vertex 618.5618192844933 1003.9236623641032 -22.71432258323547
    vertex 616.3618192844932 1003.9236623641032 0.28567741676452607
    vertex 618.5618192844933 1003.9236623641032 0.28567741676452607
  endloop
endfacet
facet normal -0.0 1.0 -0.0
  outer loop
    vertex 636.3618192844932 1003.9236623641032 -25.71432258323547
    vertex 634.1618192844933 1003.9236623641032 -22.71432258323547
    vertex 636.3618192844932 1003.9236623641032 0.28567741676452607
  endloop
endfacet
facet normal -0.0 1.0 -0.0
  outer loop
    vertex 634.1618192844933 1003.9236623641032 -22.71432258323547
    vertex 636.3618192844932 1003.9236623641032 -25.71432258323547
    vertex 618.5618192844933 1003.9236623641032 -22.71432258323547
  endloop
endfacet
facet normal -0.0 1.0 -0.0
  outer loop
    vertex 636.3618192844932 1003.9236623641032 0.28567741676452607
    vertex 634.1618192844933 1003.9236623641032 -22.71432258323547
    vertex 634.1618192844933 1003.9236623641032 0.28567741676452607
  endloop
endfacet
facet normal -1.0 0.0 0.0
  outer loop
    vertex 616.3618192844932 963.9236623641033 0.28567741676452607
    vertex 616.3618192844932 960.9236623641032 -1.214322583235474
    vertex 616.3618192844932 960.9236623641032 0.28567741676452607
  endloop
endfacet
facet normal -1.0 0.0 0.0
  outer loop
    vertex 616.3618192844932 960.9236623641032 -1.214322583235474
    vertex 616.3618192844932 963.9236623641033 0.28567741676452607
    vertex 616.3618192844932 960.9236623641032 -6.714322583235475
  endloop
endfacet
facet normal -1.0 0.0 0.0
  outer loop
    vertex 616.3618192844932 960.9236623641032 -6.714322583235475
    vertex 616.3618192844932 963.9236623641033 0.28567741676452607
    vertex 616.3618192844932 963.9236623641033 -6.714322583235475
  endloop
endfacet
facet normal -1.0 0.0 0.0
  outer loop
    vertex 616.3618192844932 990.7236623641032 0.28567741676452607
    vertex 616.3618192844932 987.7236623641032 -6.714322583235475
    vertex 616.3618192844932 987.7236623641032 0.28567741676452607
  endloop
endfacet
facet normal -1.0 0.0 0.0
  outer loop
    vertex 616.3618192844932 987.7236623641032 -6.714322583235475
    vertex 616.3618192844932 990.7236623641032 0.28567741676452607
    vertex 616.3618192844932 990.7236623641032 -1.2143225832354738
  endloop
endfacet
facet normal -1.0 0.0 0.0
  outer loop
    vertex 616.3618192844932 987.7236623641032 -6.714322583235475
    vertex 616.3618192844932 990.7236623641032 -1.2143225832354738
    vertex 616.3618192844932 990.9236623641033 -6.714322583235475
  endloop
endfacet
facet normal -1.0 0.0 0.0
  outer loop
    vertex 616.3618192844932 990.9236623641033 -6.714322583235475
    vertex 616.3618192844932 990.7236623641032 -1.2143225832354738
    vertex 616.3618192844932 996.7236623641033 -1.2143225832354738
  endloop
endfacet
facet normal -1.0 0.0 0.0
  outer loop
    vertex 616.3618192844932 990.9236623641033 -6.714322583235475
    vertex 616.3618192844932 996.7236623641033 -1.2143225832354738
    vertex 616.3618192844932 990.9236623641033 -22.714322583235475
  endloop
endfacet
facet normal -1.0 0.0 0.0
  outer loop
    vertex 616.3618192844932 1003.9236623641032 0.28567741676452607
    vertex 616.3618192844932 996.7236623641033 -1.2143225832354738
    vertex 616.3618192844932 996.7236623641033 0.28567741676452607
  endloop
endfacet
facet normal -1.0 0.0 0.0
  outer loop
    vertex 616.3618192844932 954.9236623641032 0.28567741676452607
    vertex 616.3618192844932 947.923662364103 -25.71432258323547
    vertex 616.3618192844932 947.923662364103 0.28567741676452607
  endloop
endfacet
facet normal -1.0 0.0 0.0
  outer loop
    vertex 616.3618192844932 947.923662364103 -25.71432258323547
    vertex 616.3618192844932 954.9236623641032 0.28567741676452607
    vertex 616.3618192844932 954.9236623641032 -1.214322583235474
  endloop
endfacet
facet normal -1.0 0.0 0.0
  outer loop
    vertex 616.3618192844932 947.923662364103 -25.71432258323547
    vertex 616.3618192844932 954.9236623641032 -1.214322583235474
    vertex 616.3618192844932 960.9236623641032 -22.714322583235475
  endloop
endfacet
facet normal -1.0 0.0 0.0
  outer loop
    vertex 616.3618192844932 947.923662364103 -25.71432258323547
    vertex 616.3618192844932 960.9236623641032 -22.714322583235475
    vertex 616.3618192844932 1003.9236623641032 -25.71432258323547
  endloop
endfacet
facet normal -1.0 0.0 0.0
  outer loop
    vertex 616.3618192844932 960.9236623641032 -22.714322583235475
    vertex 616.3618192844932 954.9236623641032 -1.214322583235474
    vertex 616.3618192844932 960.9236623641032 -1.214322583235474
  endloop
endfacet
facet normal -1.0 0.0 0.0
  outer loop
    vertex 616.3618192844932 960.9236623641032 -22.714322583235475
    vertex 616.3618192844932 960.9236623641032 -1.214322583235474
    vertex 616.3618192844932 960.9236623641032 -6.714322583235475
  endloop
endfacet
facet normal -1.0 0.0 0.0
  outer loop
    vertex 616.3618192844932 1003.9236623641032 -25.71432258323547
    vertex 616.3618192844932 960.9236623641032 -22.714322583235475
    vertex 616.3618192844932 990.9236623641033 -22.714322583235475
  endloop
endfacet
facet normal -1.0 0.0 0.0
  outer loop
    vertex 616.3618192844932 1003.9236623641032 -25.71432258323547
    vertex 616.3618192844932 990.9236623641033 -22.714322583235475
    vertex 616.3618192844932 996.7236623641033 -1.2143225832354738
  endloop
endfacet
facet normal -1.0 0.0 0.0
  outer loop
    vertex 616.3618192844932 1003.9236623641032 -25.71432258323547
    vertex 616.3618192844932 996.7236623641033 -1.2143225832354738
    vertex 616.3618192844932 1003.9236623641032 0.28567741676452607
  endloop
endfacet
facet normal 0.0 0.0 1.0
  outer loop
    vertex 633.3618192844931 957.9236623641032 -2.714322583235474
    vertex 619.3618192844932 963.9236623641033 -2.714322583235474
    vertex 619.3618192844932 957.9236623641032 -2.714322583235474
  endloop
endfacet
facet normal 0.0 0.0 1.0
  outer loop
    vertex 619.3618192844932 963.9236623641033 -2.714322583235474
    vertex 633.3618192844931 957.9236623641032 -2.714322583235474
    vertex 633.3618192844931 963.9236623641033 -2.714322583235474
  endloop
endfacet
facet normal 1.0 -0.0 -0.0
  outer loop
    vertex 619.3618192844932 957.9236623641032 -22.714322583235475
    vertex 619.3618192844932 953.9236623641032 0.28567741676452607
    vertex 619.3618192844932 953.9236623641032 -22.714322583235475
  endloop
endfacet
facet normal 1.0 -0.0 -0.0
  outer loop
    vertex 619.3618192844932 953.9236623641032 0.28567741676452607
    vertex 619.3618192844932 957.9236623641032 -22.714322583235475
    vertex 619.3618192844932 957.9236623641032 -2.714322583235474
  endloop
endfacet
facet normal 1.0 -0.0 -0.0
  outer loop
    vertex 619.3618192844932 953.9236623641032 0.28567741676452607
    vertex 619.3618192844932 957.9236623641032 -2.714322583235474
    vertex 619.3618192844932 963.9236623641033 0.28567741676452607
  endloop
endfacet
facet normal 1.0 -0.0 -0.0
  outer loop
    vertex 619.3618192844932 963.9236623641033 0.28567741676452607
    vertex 619.3618192844932 957.9236623641032 -2.714322583235474
    vertex 619.3618192844932 963.9236623641033 -2.714322583235474
  endloop
endfacet
facet normal -1.0 0.0 0.0
  outer loop
    vertex 633.3618192844931 953.9236623641032 0.28567741676452607
    vertex 633.3618192844931 957.9236623641032 -2.714322583235474
    vertex 633.3618192844931 953.9236623641032 -22.714322583235475
  endloop
endfacet
facet normal -1.0 0.0 0.0
  outer loop
    vertex 633.3618192844931 957.9236623641032 -2.714322583235474
    vertex 633.3618192844931 953.9236623641032 0.28567741676452607
    vertex 633.3618192844931 963.9236623641033 0.28567741676452607
  endloop
endfacet
facet normal -1.0 0.0 0.0
  outer loop
    vertex 633.3618192844931 957.9236623641032 -2.714322583235474
    vertex 633.3618192844931 963.9236623641033 0.28567741676452607
    vertex 633.3618192844931 963.9236623641033 -2.714322583235474
  endloop
endfacet
facet normal -1.0 0.0 0.0
  outer loop
    vertex 633.3618192844931 957.9236623641032 -22.714322583235475
    vertex 633.3618192844931 953.9236623641032 -22.714322583235475
    vertex 633.3618192844931 957.9236623641032 -2.714322583235474
  endloop
endfacet
facet normal 0.707106781186548 -0.0 0.7071067811865471
  outer loop
    vertex 638.3618192844932 993.323662364103 -22.714322583235475
    vertex 636.3618192844932 990.9236623641033 -20.714322583235475
    vertex 638.3618192844932 990.9236623641033 -22.714322583235475
  endloop
endfacet
facet normal 0.707106781186548 -0.0 0.7071067811865471
  outer loop
    vertex 636.3618192844932 990.9236623641033 -20.714322583235475
    vertex 638.3618192844932 993.323662364103 -22.714322583235475
    vertex 636.3618192844932 993.323662364103 -20.714322583235475
  endloop
endfacet
facet normal -0.0 1.0 -0.0
  outer loop
    vertex 619.3618192844932 993.9236623641033 -2.714322583235474
    vertex 633.3618192844931 993.9236623641033 -22.714322583235475
    vertex 619.3618192844932 993.9236623641033 -22.714322583235475
  endloop
endfacet
facet normal -0.0 1.0 -0.0
  outer loop
    vertex 633.3618192844931 993.9236623641033 -22.714322583235475
    vertex 619.3618192844932 993.9236623641033 -2.714322583235474
    vertex 633.3618192844931 993.9236623641033 -2.714322583235474
  endloop
endfacet
facet normal 0.7682212795973995 -0.6401843996644516 -1.1941297695774619e-17
  outer loop
    vertex 661.3618192844932 960.9236623641032 -25.714322583235905
    vertex 659.3618192844932 958.5236623641031 -22.714322583235475
    vertex 659.3618192844932 958.5236623641031 -25.71432258323547
  endloop
endfacet
facet normal 0.7682212795973995 -0.6401843996644516 -1.1941297695774619e-17
  outer loop
    vertex 659.3618192844932 958.5236623641031 -22.714322583235475
    vertex 661.3618192844932 960.9236623641032 -25.714322583235905
    vertex 661.3618192844932 960.9236623641032 -22.714322583235475
  endloop
endfacet
facet normal 0.0 0.0 1.0
  outer loop
    vertex 633.3618192844931 987.7236623641032 -2.714322583235474
    vertex 619.3618192844932 993.9236623641033 -2.714322583235474
    vertex 619.3618192844932 987.7236623641032 -2.714322583235474
  endloop
endfacet
facet normal 0.0 0.0 1.0
  outer loop
    vertex 619.3618192844932 993.9236623641033 -2.714322583235474
    vertex 633.3618192844931 987.7236623641032 -2.714322583235474
    vertex 633.3618192844931 993.9236623641033 -2.714322583235474
  endloop
endfacet
facet normal -1.0 0.0 0.0
  outer loop
    vertex 633.3618192844931 997.923662364103 0.28567741676452607
    vertex 633.3618192844931 987.7236623641032 -2.714322583235474
    vertex 633.3618192844931 987.7236623641032 0.28567741676452607
  endloop
endfacet
facet normal -1.0 0.0 0.0
  outer loop
    vertex 633.3618192844931 987.7236623641032 -2.714322583235474
    vertex 633.3618192844931 997.923662364103 0.28567741676452607
    vertex 633.3618192844931 993.9236623641033 -2.714322583235474
  endloop
endfacet
facet normal -1.0 0.0 0.0
  outer loop
    vertex 633.3618192844931 993.9236623641033 -2.714322583235474
    vertex 633.3618192844931 997.923662364103 0.28567741676452607
    vertex 633.3618192844931 993.9236623641033 -22.714322583235475
  endloop
endfacet
facet normal -1.0 0.0 0.0
  outer loop
    vertex 633.3618192844931 993.9236623641033 -22.714322583235475
    vertex 633.3618192844931 997.923662364103 0.28567741676452607
    vertex 633.3618192844931 997.923662364103 -22.714322583235475
  endloop
endfacet
facet normal -0.0 -1.0 -0.0
  outer loop
    vertex 633.3618192844931 997.923662364103 0.28567741676452607
    vertex 619.3618192844932 997.923662364103 -22.714322583235475
    vertex 633.3618192844931 997.923662364103 -22.714322583235475
  endloop
endfacet
facet normal -0.0 -1.0 -0.0
  outer loop
    vertex 619.3618192844932 997.923662364103 -22.714322583235475
    vertex 633.3618192844931 997.923662364103 0.28567741676452607
    vertex 619.3618192844932 997.923662364103 0.28567741676452607
  endloop
endfacet
facet normal -4.530267306034866e-15 -1.0 5.356374873605933e-14
  outer loop
    vertex 659.3618192844932 958.5236623641031 -22.714322583235475
    vertex 636.3618192844932 958.5236623641031 -25.71432258323547
    vertex 659.3618192844932 958.5236623641031 -25.71432258323547
  endloop
endfacet
facet normal -4.530267306034866e-15 -1.0 5.356374873605933e-14
  outer loop
    vertex 636.3618192844932 958.5236623641031 -25.71432258323547
    vertex 659.3618192844932 958.5236623641031 -22.714322583235475
    vertex 636.3618192844932 958.5236623641031 -22.714322583235475
  endloop
endfacet
facet normal -4.530267306034866e-15 -1.0 5.356374873605933e-14
  outer loop
    vertex 636.3618192844932 958.5236623641031 -22.714322583235475
    vertex 659.3618192844932 958.5236623641031 -22.714322583235475
    vertex 638.3618192844932 958.5236623641034 -22.714322583235475
  endloop
endfacet
facet normal -4.530267306034866e-15 -1.0 5.356374873605933e-14
  outer loop
    vertex 636.3618192844932 958.5236623641031 -22.714322583235475
    vertex 638.3618192844932 958.5236623641034 -22.714322583235475
    vertex 636.3618192844932 958.5236623641034 -20.714322583235475
  endloop
endfacet
facet normal 1.0 6.221564250079315e-16 1.82992021482753e-15
  outer loop
    vertex 636.3618192844932 993.323662364103 -20.714322583235475
    vertex 636.3618192844932 990.9236623641033 -6.714322583235473
    vertex 636.3618192844932 990.9236623641033 -20.714322583235475
  endloop
endfacet
facet normal 1.0 6.221564250079315e-16 1.82992021482753e-15
  outer loop
    vertex 636.3618192844932 1003.9236623641032 -25.71432258323547
    vertex 636.3618192844933 993.3236623641034 -22.71432258323526
    vertex 636.3618192844933 993.3236623641034 -25.71432258323526
  endloop
endfacet
facet normal 1.0 6.221564250079315e-16 1.82992021482753e-15
  outer loop
    vertex 636.3618192844932 990.9236623641033 -6.714322583235473
    vertex 636.3618192844932 987.7236623641032 0.28567741676452607
    vertex 636.3618192844932 987.7236623641032 -6.714322583235473
  endloop
endfacet
facet normal 1.0 6.221564250079315e-16 1.82992021482753e-15
  outer loop
    vertex 636.3618192844932 987.7236623641032 0.28567741676452607
    vertex 636.3618192844932 990.9236623641033 -6.714322583235473
    vertex 636.3618192844932 1003.9236623641032 0.28567741676452607
  endloop
endfacet
facet normal 1.0 6.221564250079315e-16 1.82992021482753e-15
  outer loop
    vertex 636.3618192844932 1003.9236623641032 0.28567741676452607
    vertex 636.3618192844932 990.9236623641033 -6.714322583235473
    vertex 636.3618192844932 993.323662364103 -20.714322583235475
  endloop
endfacet
facet normal 1.0 6.221564250079315e-16 1.82992021482753e-15
  outer loop
    vertex 636.3618192844932 1003.9236623641032 0.28567741676452607
    vertex 636.3618192844932 993.323662364103 -20.714322583235475
    vertex 636.3618192844933 993.3236623641034 -22.71432258323526
  endloop
endfacet
facet normal 1.0 6.221564250079315e-16 1.82992021482753e-15
  outer loop
    vertex 636.3618192844932 1003.9236623641032 0.28567741676452607
    vertex 636.3618192844933 993.3236623641034 -22.71432258323526
    vertex 636.3618192844932 1003.9236623641032 -25.71432258323547
  endloop
endfacet
facet normal 4.328352677236472e-14 1.0 5.1718843498304034e-14
  outer loop
    vertex 636.3618192844933 993.3236623641034 -22.71432258323526
    vertex 638.3618192844932 993.323662364103 -22.714322583235475
    vertex 636.3618192844933 993.3236623641034 -25.71432258323526
  endloop
endfacet
facet normal 4.328352677236472e-14 1.0 5.1718843498304034e-14
  outer loop
    vertex 638.3618192844932 993.323662364103 -22.714322583235475
    vertex 636.3618192844933 993.3236623641034 -22.71432258323526
    vertex 636.3618192844932 993.323662364103 -20.714322583235475
  endloop
endfacet
facet normal 4.328352677236472e-14 1.0 5.1718843498304034e-14
  outer loop
    vertex 636.3618192844933 993.3236623641034 -25.71432258323526
    vertex 659.3618192844933 993.3236623641023 -22.714322583235276
    vertex 659.3618192844933 993.3236623641023 -25.714322583235653
  endloop
endfacet
facet normal 4.328352677236472e-14 1.0 5.1718843498304034e-14
  outer loop
    vertex 659.3618192844933 993.3236623641023 -22.714322583235276
    vertex 636.3618192844933 993.3236623641034 -25.71432258323526
    vertex 638.3618192844932 993.323662364103 -22.714322583235475
  endloop
endfacet
facet normal 3.0173641363263057e-14 3.651856594899509e-14 1.0
  outer loop
    vertex 679.3618192844931 960.9236623641032 -22.714322583236147
    vertex 664.3618192844934 990.9236623641033 -22.71432258323679
    vertex 664.3618192844932 960.9236623641032 -22.714322583235475
  endloop
endfacet
facet normal 3.0173641363263057e-14 3.651856594899509e-14 1.0
  outer loop
    vertex 664.3618192844934 990.9236623641033 -22.71432258323679
    vertex 679.3618192844931 960.9236623641032 -22.714322583236147
    vertex 679.3618192844931 990.9236623641033 -22.71432258323702
  endloop
endfacet
facet normal -0.7071067811865327 -0.0 0.7071067811865624
  outer loop
    vertex 662.3618192844932 960.9236623641032 -21.71432258323547
    vertex 661.3618192844932 990.9236623641021 -22.714322583235475
    vertex 661.3618192844932 960.9236623641032 -22.714322583235475
  endloop
endfacet
facet normal -0.7071067811865327 -0.0 0.7071067811865624
  outer loop
    vertex 661.3618192844932 990.9236623641021 -22.714322583235475
    vertex 662.3618192844932 960.9236623641032 -21.71432258323547
    vertex 662.3618192844932 990.9236623641021 -21.71432258323547
  endloop
endfacet
facet normal -0.0 1.0 -0.0
  outer loop
    vertex 636.3618192844932 960.9236623641032 -20.714322583235475
    vertex 638.3618192844932 960.9236623641032 -22.714322583235475
    vertex 636.3618192844932 960.9236623641032 -22.714322583235475
  endloop
endfacet
facet normal 1.0 -0.0 -0.0
  outer loop
    vertex 636.3618192844932 960.9236623641032 -22.714322583235475
    vertex 636.3618192844932 958.5236623641034 -20.714322583235475
    vertex 636.3618192844932 958.5236623641031 -22.714322583235475
  endloop
endfacet
facet normal 1.0 -0.0 -0.0
  outer loop
    vertex 636.3618192844932 958.5236623641034 -20.714322583235475
    vertex 636.3618192844932 960.9236623641032 -22.714322583235475
    vertex 636.3618192844932 960.9236623641032 -20.714322583235475
  endloop
endfacet
facet normal 0.707106781186548 -0.0 0.7071067811865471
  outer loop
    vertex 638.3618192844932 960.9236623641032 -22.714322583235475
    vertex 636.3618192844932 958.5236623641034 -20.714322583235475
    vertex 638.3618192844932 958.5236623641034 -22.714322583235475
  endloop
endfacet
facet normal 0.707106781186548 -0.0 0.7071067811865471
  outer loop
    vertex 636.3618192844932 958.5236623641034 -20.714322583235475
    vertex 638.3618192844932 960.9236623641032 -22.714322583235475
    vertex 636.3618192844932 960.9236623641032 -20.714322583235475
  endloop
endfacet
facet normal -3.048899309726812e-14 1.0 -5.744443133172329e-14
  outer loop
    vertex 661.3618192844932 990.9236623641027 -25.714322583235905
    vertex 664.3618192844934 990.9236623641033 -22.71432258323679
    vertex 679.3618192844931 990.9236623641033 -22.71432258323702
  endloop
endfacet
facet normal -3.048899309726812e-14 1.0 -5.744443133172329e-14
  outer loop
    vertex 664.3618192844934 990.9236623641033 -22.71432258323679
    vertex 661.3618192844932 990.9236623641027 -25.714322583235905
    vertex 661.3618192844932 990.9236623641021 -22.714322583235475
  endloop
endfacet
facet normal -3.048899309726812e-14 1.0 -5.744443133172329e-14
  outer loop
    vertex 664.3618192844934 990.9236623641033 -22.71432258323679
    vertex 661.3618192844932 990.9236623641021 -22.714322583235475
    vertex 662.3618192844932 990.9236623641021 -21.71432258323547
  endloop
endfacet
facet normal -3.048899309726812e-14 1.0 -5.744443133172329e-14
  outer loop
    vertex 664.3618192844934 990.9236623641033 -22.71432258323679
    vertex 662.3618192844932 990.9236623641021 -21.71432258323547
    vertex 664.3618192844932 990.9236623641033 -12.714322583235473
  endloop
endfacet
facet normal -3.048899309726812e-14 1.0 -5.744443133172329e-14
  outer loop
    vertex 664.3618192844932 990.9236623641033 -12.714322583235473
    vertex 662.3618192844932 990.9236623641021 -21.71432258323547
    vertex 662.3618192844932 990.9236623641033 -12.714322583235473
  endloop
endfacet
facet normal -3.048899309726812e-14 1.0 -5.744443133172329e-14
  outer loop
    vertex 681.9618192844932 990.9236623641033 -25.714322583236328
    vertex 679.3618192844931 990.9236623641033 -22.71432258323702
    vertex 681.9618192844932 990.9236623641033 -20.214322583236928
  endloop
endfacet
facet normal -3.048899309726812e-14 1.0 -5.744443133172329e-14
  outer loop
    vertex 679.3618192844931 990.9236623641033 -22.71432258323702
    vertex 681.9618192844932 990.9236623641033 -25.714322583236328
    vertex 661.3618192844932 990.9236623641027 -25.714322583235905
  endloop
endfacet
facet normal -3.048899309726812e-14 1.0 -5.744443133172329e-14
  outer loop
    vertex 681.9618192844932 990.9236623641033 -20.214322583236928
    vertex 679.3618192844931 990.9236623641033 -22.71432258323702
    vertex 679.3618192844931 990.9236623641033 -20.214322583237024
  endloop
endfacet
facet normal 0.7682212795973783 0.640184399664477 5.776403740049572e-14
  outer loop
    vertex 661.3618192844932 990.9236623641027 -25.714322583235905
    vertex 659.3618192844933 993.3236623641023 -22.714322583235276
    vertex 661.3618192844932 990.9236623641021 -22.714322583235475
  endloop
endfacet
facet normal 0.7682212795973783 0.640184399664477 5.776403740049572e-14
  outer loop
    vertex 659.3618192844933 993.3236623641023 -22.714322583235276
    vertex 661.3618192844932 990.9236623641027 -25.714322583235905
    vertex 659.3618192844933 993.3236623641023 -25.714322583235653
  endloop
endfacet
facet normal 1.0 -1.8799776550321786e-14 2.255973186038149e-14
  outer loop
    vertex 636.3618192844933 993.3236623641034 -22.71432258323526
    vertex 636.3618192844932 990.9236623641033 -20.714322583235475
    vertex 636.3618192844932 990.9236623641033 -22.714322583235475
  endloop
endfacet
facet normal 1.0 -1.8799776550321786e-14 2.255973186038149e-14
  outer loop
    vertex 636.3618192844932 990.9236623641033 -20.714322583235475
    vertex 636.3618192844933 993.3236623641034 -22.71432258323526
    vertex 636.3618192844932 993.323662364103 -20.714322583235475
  endloop
endfacet
facet normal 0.0 -1.0 0.0
  outer loop
    vertex 636.3618192844932 990.9236623641033 -20.714322583235475
    vertex 636.3618192844932 990.9236623641033 -22.714322583235475
    vertex 638.3618192844932 990.9236623641033 -22.714322583235475
  endloop
endfacet
facet normal -1.0 1.264197640223058e-28 4.338409973150544e-15
  outer loop
    vertex 679.3618192844931 990.9236623641033 -20.214322583237024
    vertex 679.3618192844931 960.9236623641032 -22.714322583236147
    vertex 679.3618192844931 960.9236623641032 -20.21432258323615
  endloop
endfacet
facet normal -1.0 1.264197640223058e-28 4.338409973150544e-15
  outer loop
    vertex 679.3618192844931 960.9236623641032 -22.714322583236147
    vertex 679.3618192844931 990.9236623641033 -20.214322583237024
    vertex 679.3618192844931 990.9236623641033 -22.71432258323702
  endloop
endfacet
facet normal 4.338409973150544e-15 2.5567696108434236e-14 1.0
  outer loop
    vertex 681.9618192844932 960.9236623641032 -20.214322583236267
    vertex 679.3618192844931 990.9236623641033 -20.214322583237024
    vertex 679.3618192844931 960.9236623641032 -20.21432258323615
  endloop
endfacet
facet normal 4.338409973150544e-15 2.5567696108434236e-14 1.0
  outer loop
    vertex 679.3618192844931 990.9236623641033 -20.214322583237024
    vertex 681.9618192844932 960.9236623641032 -20.214322583236267
    vertex 681.9618192844932 990.9236623641033 -20.214322583236928
  endloop
endfacet
facet normal -1.0 0.0 0.0
  outer loop
    vertex 634.1618192844933 1003.9236623641032 0.28567741676452607
    vertex 634.1618192844933 1000.5236623641031 -22.71432258323547
    vertex 634.1618192844933 1000.5236623641031 0.28567741676452607
  endloop
endfacet
facet normal -1.0 0.0 0.0
  outer loop
    vertex 634.1618192844933 1000.5236623641031 -22.71432258323547
    vertex 634.1618192844933 1003.9236623641032 0.28567741676452607
    vertex 634.1618192844933 1003.9236623641032 -22.71432258323547
  endloop
endfacet
facet normal 1.7765788840051695e-13 3.294660840443376e-14 1.0
  outer loop
    vertex 684.4618192844931 963.9236623641033 -22.71432258323638
    vertex 681.9618192844932 987.9236623641032 -22.714322583236925
    vertex 681.9618192844932 963.9236623641033 -22.714322583236267
  endloop
endfacet
facet normal 1.7765788840051695e-13 3.294660840443376e-14 1.0
  outer loop
    vertex 681.9618192844932 987.9236623641032 -22.714322583236925
    vertex 684.4618192844931 963.9236623641033 -22.71432258323638
    vertex 684.4618192844935 987.9236623641032 -22.7143225832377
  endloop
endfacet
facet normal 0.0 -1.0 0.0
  outer loop
    vertex 681.9618192844932 963.9236623641033 -22.714322583236267
    vertex 681.9618192844932 963.9236623641033 -25.714322583236328
    vertex 684.4618192844931 963.9236623641033 -22.71432258323638
  endloop
endfacet
facet normal -1.0 0.0 0.0
  outer loop
    vertex 634.1618192844932 951.3236623641033 0.28567741676452607
    vertex 634.1618192844932 947.923662364103 -22.71432258323547
    vertex 634.1618192844932 947.923662364103 0.28567741676452607
  endloop
endfacet
facet normal -1.0 0.0 0.0
  outer loop
    vertex 634.1618192844932 947.923662364103 -22.71432258323547
    vertex 634.1618192844932 951.3236623641033 0.28567741676452607
    vertex 634.1618192844932 951.3236623641033 -22.71432258323547
  endloop
endfacet
facet normal 0.7682212795972876 -1.752027198333224e-14 -0.6401843996645858
  outer loop
    vertex 681.9618192844932 987.9236623641032 -25.714322583236328
    vertex 684.4618192844931 963.9236623641033 -22.71432258323638
    vertex 681.9618192844932 963.9236623641033 -25.714322583236328
  endloop
endfacet
facet normal 0.7682212795972876 -1.752027198333224e-14 -0.6401843996645858
  outer loop
    vertex 684.4618192844931 963.9236623641033 -22.71432258323638
    vertex 681.9618192844932 987.9236623641032 -25.714322583236328
    vertex 684.4618192844935 987.9236623641032 -22.7143225832377
  endloop
endfacet
facet normal 1.0 -0.0 -0.0
  outer loop
    vertex 619.3618192844932 997.923662364103 -22.714322583235475
    vertex 619.3618192844932 993.9236623641033 -2.714322583235474
    vertex 619.3618192844932 993.9236623641033 -22.714322583235475
  endloop
endfacet
facet normal 1.0 -0.0 -0.0
  outer loop
    vertex 619.3618192844932 993.9236623641033 -2.714322583235474
    vertex 619.3618192844932 987.7236623641032 0.28567741676452607
    vertex 619.3618192844932 987.7236623641032 -2.714322583235474
  endloop
endfacet
facet normal 1.0 -0.0 -0.0
  outer loop
    vertex 619.3618192844932 987.7236623641032 0.28567741676452607
    vertex 619.3618192844932 993.9236623641033 -2.714322583235474
    vertex 619.3618192844932 997.923662364103 0.28567741676452607
  endloop
endfacet
facet normal 1.0 -0.0 -0.0
  outer loop
    vertex 619.3618192844932 997.923662364103 0.28567741676452607
    vertex 619.3618192844932 993.9236623641033 -2.714322583235474
    vertex 619.3618192844932 997.923662364103 -22.714322583235475
  endloop
endfacet
facet normal 0.0 -1.0 0.0
  outer loop
    vertex 681.9618192844932 960.9236623641032 -25.714322583236328
    vertex 679.3618192844931 960.9236623641032 -22.714322583236147
    vertex 661.3618192844932 960.9236623641032 -25.714322583235905
  endloop
endfacet
facet normal 0.0 -1.0 0.0
  outer loop
    vertex 679.3618192844931 960.9236623641032 -22.714322583236147
    vertex 681.9618192844932 960.9236623641032 -25.714322583236328
    vertex 681.9618192844932 960.9236623641032 -20.214322583236267
  endloop
endfacet
facet normal 0.0 -1.0 0.0
  outer loop
    vertex 679.3618192844931 960.9236623641032 -22.714322583236147
    vertex 681.9618192844932 960.9236623641032 -20.214322583236267
    vertex 679.3618192844931 960.9236623641032 -20.21432258323615
  endloop
endfacet
facet normal 0.0 -1.0 0.0
  outer loop
    vertex 679.3618192844931 960.9236623641032 -22.714322583236147
    vertex 661.3618192844932 960.9236623641032 -22.714322583235475
    vertex 661.3618192844932 960.9236623641032 -25.714322583235905
  endloop
endfacet
facet normal 0.0 -1.0 0.0
  outer loop
    vertex 661.3618192844932 960.9236623641032 -22.714322583235475
    vertex 679.3618192844931 960.9236623641032 -22.714322583236147
    vertex 664.3618192844932 960.9236623641032 -22.714322583235475
  endloop
endfacet
facet normal 0.0 -1.0 0.0
  outer loop
    vertex 661.3618192844932 960.9236623641032 -22.714322583235475
    vertex 664.3618192844932 960.9236623641032 -22.714322583235475
    vertex 662.3618192844932 960.9236623641032 -21.71432258323547
  endloop
endfacet
facet normal 0.0 -1.0 0.0
  outer loop
    vertex 662.3618192844932 960.9236623641032 -21.71432258323547
    vertex 664.3618192844932 960.9236623641032 -22.714322583235475
    vertex 664.3618192844932 960.9236623641032 -12.714322583235473
  endloop
endfacet
facet normal 0.0 -1.0 0.0
  outer loop
    vertex 662.3618192844932 960.9236623641032 -21.71432258323547
    vertex 664.3618192844932 960.9236623641032 -12.714322583235473
    vertex 662.3618192844932 960.9236623641032 -12.714322583235473
  endloop
endfacet
facet normal -1.253243369699674e-15 -1.1407085843241277e-15 1.0
  outer loop
    vertex 659.3618192844932 958.5236623641031 -22.714322583235475
    vertex 638.3618192844932 960.9236623641032 -22.714322583235475
    vertex 638.3618192844932 958.5236623641034 -22.714322583235475
  endloop
endfacet
facet normal -1.253243369699674e-15 -1.1407085843241277e-15 1.0
  outer loop
    vertex 638.3618192844932 960.9236623641032 -22.714322583235475
    vertex 659.3618192844932 958.5236623641031 -22.714322583235475
    vertex 638.3618192844932 990.9236623641033 -22.714322583235475
  endloop
endfacet
facet normal -1.253243369699674e-15 -1.1407085843241277e-15 1.0
  outer loop
    vertex 638.3618192844932 990.9236623641033 -22.714322583235475
    vertex 659.3618192844932 958.5236623641031 -22.714322583235475
    vertex 638.3618192844932 993.323662364103 -22.714322583235475
  endloop
endfacet
facet normal -1.253243369699674e-15 -1.1407085843241277e-15 1.0
  outer loop
    vertex 638.3618192844932 993.323662364103 -22.714322583235475
    vertex 659.3618192844932 958.5236623641031 -22.714322583235475
    vertex 659.3618192844933 993.3236623641023 -22.714322583235276
  endloop
endfacet
facet normal -1.253243369699674e-15 -1.1407085843241277e-15 1.0
  outer loop
    vertex 659.3618192844933 993.3236623641023 -22.714322583235276
    vertex 659.3618192844932 958.5236623641031 -22.714322583235475
    vertex 661.3618192844932 960.9236623641032 -22.714322583235475
  endloop
endfacet
facet normal -1.253243369699674e-15 -1.1407085843241277e-15 1.0
  outer loop
    vertex 659.3618192844933 993.3236623641023 -22.714322583235276
    vertex 661.3618192844932 960.9236623641032 -22.714322583235475
    vertex 661.3618192844932 990.9236623641021 -22.714322583235475
  endloop
endfacet
facet normal -1.253243369699674e-15 -1.1407085843241277e-15 1.0
  outer loop
    vertex 636.3618192844932 960.9236623641032 -22.714322583235475
    vertex 616.3618192844932 990.9236623641033 -22.714322583235475
    vertex 616.3618192844932 960.9236623641032 -22.714322583235475
  endloop
endfacet
facet normal -1.253243369699674e-15 -1.1407085843241277e-15 1.0
  outer loop
    vertex 616.3618192844932 990.9236623641033 -22.714322583235475
    vertex 636.3618192844932 960.9236623641032 -22.714322583235475
    vertex 636.3618192844932 990.9236623641033 -22.714322583235475
  endloop
endfacet
facet normal -1.253243369699674e-15 -1.1407085843241277e-15 1.0
  outer loop
    vertex 636.3618192844932 990.9236623641033 -22.714322583235475
    vertex 636.3618192844932 960.9236623641032 -22.714322583235475
    vertex 638.3618192844932 960.9236623641032 -22.714322583235475
  endloop
endfacet
facet normal -1.253243369699674e-15 -1.1407085843241277e-15 1.0
  outer loop
    vertex 636.3618192844932 990.9236623641033 -22.714322583235475
    vertex 638.3618192844932 960.9236623641032 -22.714322583235475
    vertex 638.3618192844932 990.9236623641033 -22.714322583235475
  endloop
endfacet
facet normal 1.0 0.0 0.0
  outer loop
    vertex 618.5618192844933 1003.9236623641032 -22.71432258323547
    vertex 618.5618192844933 1000.5236623641031 0.28567741676452607
    vertex 618.5618192844933 1000.5236623641031 -22.71432258323547
  endloop
endfacet
facet normal 1.0 0.0 0.0
  outer loop
    vertex 618.5618192844933 1000.5236623641031 0.28567741676452607
    vertex 618.5618192844933 1003.9236623641032 -22.71432258323547
    vertex 618.5618192844933 1003.9236623641032 0.28567741676452607
  endloop
endfacet
facet normal 1.0 0.0 0.0
  outer loop
    vertex 618.5618192844933 951.3236623641033 -22.71432258323547
    vertex 618.5618192844933 947.923662364103 0.28567741676452607
    vertex 618.5618192844933 947.923662364103 -22.71432258323547
  endloop
endfacet
facet normal 1.0 0.0 0.0
  outer loop
    vertex 618.5618192844933 947.923662364103 0.28567741676452607
    vertex 618.5618192844933 951.3236623641033 -22.71432258323547
    vertex 618.5618192844933 951.3236623641033 0.28567741676452607
  endloop
endfacet
facet normal 0.0 1.0 0.0
  outer loop
    vertex 618.5618192844933 1000.5236623641031 0.28567741676452607
    vertex 634.1618192844933 1000.5236623641031 -22.71432258323547
    vertex 618.5618192844933 1000.5236623641031 -22.71432258323547
  endloop
endfacet
facet normal 0.0 1.0 0.0
  outer loop
    vertex 634.1618192844933 1000.5236623641031 -22.71432258323547
    vertex 618.5618192844933 1000.5236623641031 0.28567741676452607
    vertex 634.1618192844933 1000.5236623641031 0.28567741676452607
  endloop
endfacet
facet normal 1.0 -0.0 -0.0
  outer loop
    vertex 681.9618192844932 990.9236623641033 -25.714322583236328
    vertex 681.9618192844932 987.9236623641032 -22.714322583236925
    vertex 681.9618192844932 987.9236623641032 -25.714322583236328
  endloop
endfacet
facet normal 1.0 -0.0 -0.0
  outer loop
    vertex 681.9618192844932 963.9236623641033 -25.714322583236328
    vertex 681.9618192844932 960.9236623641032 -20.214322583236267
    vertex 681.9618192844932 960.9236623641032 -25.714322583236328
  endloop
endfacet
facet normal 1.0 -0.0 -0.0
  outer loop
    vertex 681.9618192844932 960.9236623641032 -20.214322583236267
    vertex 681.9618192844932 963.9236623641033 -25.714322583236328
    vertex 681.9618192844932 963.9236623641033 -22.714322583236267
  endloop
endfacet
facet normal 1.0 -0.0 -0.0
  outer loop
    vertex 681.9618192844932 960.9236623641032 -20.214322583236267
    vertex 681.9618192844932 963.9236623641033 -22.714322583236267
    vertex 681.9618192844932 990.9236623641033 -20.214322583236928
  endloop
endfacet
facet normal 1.0 -0.0 -0.0
  outer loop
    vertex 681.9618192844932 990.9236623641033 -20.214322583236928
    vertex 681.9618192844932 963.9236623641033 -22.714322583236267
    vertex 681.9618192844932 987.9236623641032 -22.714322583236925
  endloop
endfacet
facet normal 1.0 -0.0 -0.0
  outer loop
    vertex 681.9618192844932 990.9236623641033 -20.214322583236928
    vertex 681.9618192844932 987.9236623641032 -22.714322583236925
    vertex 681.9618192844932 990.9236623641033 -25.714322583236328
  endloop
endfacet
facet normal 0.0 -1.0 0.0
  outer loop
    vertex 634.1618192844932 951.3236623641033 0.28567741676452607
    vertex 618.5618192844933 951.3236623641033 -22.71432258323547
    vertex 634.1618192844932 951.3236623641033 -22.71432258323547
  endloop
endfacet
facet normal 0.0 -1.0 0.0
  outer loop
    vertex 618.5618192844933 951.3236623641033 -22.71432258323547
    vertex 634.1618192844932 951.3236623641033 0.28567741676452607
    vertex 618.5618192844933 951.3236623641033 0.28567741676452607
  endloop
endfacet
facet normal 0.0 1.0 0.0
  outer loop
    vertex 681.9618192844932 987.9236623641032 -22.714322583236925
    vertex 684.4618192844935 987.9236623641032 -22.7143225832377
    vertex 681.9618192844932 987.9236623641032 -25.714322583236328
  endloop
endfacet
facet normal 1.0 -0.0 -0.0
  outer loop
    vertex 681.9618192844932 987.9236623641032 -25.714322583236328
    vertex 681.9618192844932 963.9236623641033 -22.714322583236267
    vertex 681.9618192844932 963.9236623641033 -25.714322583236328
  endloop
endfacet
facet normal 1.0 -0.0 -0.0
  outer loop
    vertex 681.9618192844932 963.9236623641033 -22.714322583236267
    vertex 681.9618192844932 987.9236623641032 -25.714322583236328
    vertex 681.9618192844932 987.9236623641032 -22.714322583236925
  endloop
endfacet
endsolid Main_Body_RevB1
