solid Main_Body_RevB1
facet normal 0.9981347984218663 9.895194998461014e-19 0.0610485395348705
  outer loop
    vertex 606.3824733493379 1077.3132920176713 -1.0815177887870724
    vertex 606.2481665623615 1037.3132920176713 1.1143787677409487
    vertex 606.3824733493379 1037.3132920176713 -1.0815177887870724
  endloop
endfacet
facet normal 0.9981347984218663 9.895194998461014e-19 0.0610485395348705
  outer loop
    vertex 606.2481665623615 1037.3132920176713 1.1143787677409487
    vertex 606.3824733493379 1077.3132920176713 -1.0815177887870724
    vertex 606.2481665623615 1039.5132920176713 1.1143787677409487
  endloop
endfacet
facet normal 0.9981347984218663 9.895194998461014e-19 0.0610485395348705
  outer loop
    vertex 606.2481665623615 1039.5132920176713 1.1143787677409487
    vertex 606.3824733493379 1077.3132920176713 -1.0815177887870724
    vertex 605.3324384693382 1039.5132920176713 16.086400744068612
  endloop
endfacet
facet normal 0.9981347984218663 9.895194998461014e-19 0.0610485395348705
  outer loop
    vertex 605.3324384693382 1039.5132920176713 16.086400744068612
    vertex 606.3824733493379 1077.3132920176713 -1.0815177887870724
    vertex 605.160625941053 1041.5132920176713 18.895510750504826
  endloop
endfacet
facet normal 0.9981347984218663 9.895194998461014e-19 0.0610485395348705
  outer loop
    vertex 605.3324384693382 1039.5132920176713 16.086400744068612
    vertex 605.160625941053 1041.5132920176713 18.895510750504826
    vertex 605.1451031413501 1041.1819211677728 19.14930628223663
  endloop
endfacet
facet normal 0.9981347984218663 9.895194998461014e-19 0.0610485395348705
  outer loop
    vertex 605.3324384693382 1039.5132920176713 16.086400744068612
    vertex 605.1451031413501 1041.1819211677728 19.14930628223663
    vertex 605.1248734349194 1040.927651371616 19.480059058702913
  endloop
endfacet
facet normal 0.9981347984218663 9.895194998461014e-19 0.0610485395348705
  outer loop
    vertex 605.3324384693382 1039.5132920176713 16.086400744068612
    vertex 605.1248734349194 1040.927651371616 19.480059058702913
    vertex 605.1013154428231 1040.7678106956087 19.865228824782502
  endloop
endfacet
facet normal 0.9981347984218663 9.895194998461014e-19 0.0610485395348705
  outer loop
    vertex 605.3324384693382 1039.5132920176713 16.086400744068612
    vertex 605.1013154428231 1040.7678106956087 19.865228824782502
    vertex 605.0760346032915 1040.7132920176714 20.2785668974406
  endloop
endfacet
facet normal 0.9981347984218663 9.895194998461014e-19 0.0610485395348705
  outer loop
    vertex 605.160625941053 1041.5132920176713 18.895510750504826
    vertex 606.3824733493379 1077.3132920176713 -1.0815177887870724
    vertex 605.1703839808818 1041.8991815455072 18.735968209578733
  endloop
endfacet
facet normal 0.9981347984218663 9.895194998461014e-19 0.0610485395348705
  outer loop
    vertex 605.1703839808818 1041.8991815455072 18.735968209578733
    vertex 606.3824733493379 1077.3132920176713 -1.0815177887870724
    vertex 605.1737122665471 1042.3132920176713 18.681551219965442
  endloop
endfacet
facet normal 0.9981347984218663 9.895194998461014e-19 0.0610485395348705
  outer loop
    vertex 605.1737122665471 1042.3132920176713 18.681551219965442
    vertex 606.3824733493379 1077.3132920176713 -1.0815177887870724
    vertex 605.1703839808818 1042.7274024898354 18.735968209578733
  endloop
endfacet
facet normal 0.9981347984218663 9.895194998461014e-19 0.0610485395348705
  outer loop
    vertex 605.1703839808818 1042.7274024898354 18.735968209578733
    vertex 606.3824733493379 1077.3132920176713 -1.0815177887870724
    vertex 605.160625941053 1043.1132920176713 18.895510750504826
  endloop
endfacet
facet normal 0.9981347984218663 9.895194998461014e-19 0.0610485395348705
  outer loop
    vertex 605.160625941053 1043.1132920176713 18.895510750504826
    vertex 606.3824733493379 1077.3132920176713 -1.0815177887870724
    vertex 605.1451031413501 1043.4446628675698 19.14930628223663
  endloop
endfacet
facet normal 0.9981347984218663 9.895194998461014e-19 0.0610485395348705
  outer loop
    vertex 605.1451031413501 1043.4446628675698 19.14930628223663
    vertex 606.3824733493379 1077.3132920176713 -1.0815177887870724
    vertex 605.1248734349194 1043.6989326637265 19.480059058702913
  endloop
endfacet
facet normal 0.9981347984218663 9.895194998461014e-19 0.0610485395348705
  outer loop
    vertex 605.1248734349194 1043.6989326637265 19.480059058702913
    vertex 606.3824733493379 1077.3132920176713 -1.0815177887870724
    vertex 605.1013154428231 1043.858773339734 19.865228824782502
  endloop
endfacet
facet normal 0.9981347984218663 9.895194998461014e-19 0.0610485395348705
  outer loop
    vertex 605.1013154428231 1043.858773339734 19.865228824782502
    vertex 606.3824733493379 1077.3132920176713 -1.0815177887870724
    vertex 605.0760346032915 1043.9132920176712 20.2785668974406
  endloop
endfacet
facet normal 0.9981347984218663 9.895194998461014e-19 0.0610485395348705
  outer loop
    vertex 605.0760346032915 1043.9132920176712 20.2785668974406
    vertex 606.3824733493379 1077.3132920176713 -1.0815177887870724
    vertex 606.2481665623615 1075.1132920176713 1.1143787677409487
  endloop
endfacet
facet normal 0.9981347984218663 9.895194998461014e-19 0.0610485395348705
  outer loop
    vertex 605.0760346032915 1043.9132920176712 20.2785668974406
    vertex 606.2481665623615 1075.1132920176713 1.1143787677409487
    vertex 605.1013154428231 1070.7678106956087 19.865228824782502
  endloop
endfacet
facet normal 0.9981347984218663 9.895194998461014e-19 0.0610485395348705
  outer loop
    vertex 605.0760346032915 1043.9132920176712 20.2785668974406
    vertex 605.1013154428231 1070.7678106956087 19.865228824782502
    vertex 605.0760346032915 1070.7132920176714 20.2785668974406
  endloop
endfacet
facet normal 0.9981347984218663 9.895194998461014e-19 0.0610485395348705
  outer loop
    vertex 605.1013154428231 1070.7678106956087 19.865228824782502
    vertex 606.2481665623615 1075.1132920176713 1.1143787677409487
    vertex 605.1248734349194 1070.927651371616 19.480059058702913
  endloop
endfacet
facet normal 0.9981347984218663 9.895194998461014e-19 0.0610485395348705
  outer loop
    vertex 605.1248734349194 1070.927651371616 19.480059058702913
    vertex 606.2481665623615 1075.1132920176713 1.1143787677409487
    vertex 605.1451031413501 1071.1819211677728 19.14930628223663
  endloop
endfacet
facet normal 0.9981347984218663 9.895194998461014e-19 0.0610485395348705
  outer loop
    vertex 605.1451031413501 1071.1819211677728 19.14930628223663
    vertex 606.2481665623615 1075.1132920176713 1.1143787677409487
    vertex 605.160625941053 1071.5132920176713 18.895510750504826
  endloop
endfacet
facet normal 0.9981347984218663 9.895194998461014e-19 0.0610485395348705
  outer loop
    vertex 605.160625941053 1071.5132920176713 18.895510750504826
    vertex 606.2481665623615 1075.1132920176713 1.1143787677409487
    vertex 605.1703839808818 1071.8991815455072 18.735968209578733
  endloop
endfacet
facet normal 0.9981347984218663 9.895194998461014e-19 0.0610485395348705
  outer loop
    vertex 605.1703839808818 1071.8991815455072 18.735968209578733
    vertex 606.2481665623615 1075.1132920176713 1.1143787677409487
    vertex 605.1737122665471 1072.3132920176713 18.681551219965442
  endloop
endfacet
facet normal 0.9981347984218663 9.895194998461014e-19 0.0610485395348705
  outer loop
    vertex 605.1737122665471 1072.3132920176713 18.681551219965442
    vertex 606.2481665623615 1075.1132920176713 1.1143787677409487
    vertex 605.1703839808818 1072.7274024898354 18.735968209578733
  endloop
endfacet
facet normal 0.9981347984218663 9.895194998461014e-19 0.0610485395348705
  outer loop
    vertex 605.1703839808818 1072.7274024898354 18.735968209578733
    vertex 606.2481665623615 1075.1132920176713 1.1143787677409487
    vertex 605.160625941053 1073.1132920176713 18.895510750504826
  endloop
endfacet
facet normal 0.9981347984218663 9.895194998461014e-19 0.0610485395348705
  outer loop
    vertex 605.160625941053 1073.1132920176713 18.895510750504826
    vertex 606.2481665623615 1075.1132920176713 1.1143787677409487
    vertex 605.1451031413501 1073.4446628675698 19.14930628223663
  endloop
endfacet
facet normal 0.9981347984218663 9.895194998461014e-19 0.0610485395348705
  outer loop
    vertex 605.1451031413501 1073.4446628675698 19.14930628223663
    vertex 606.2481665623615 1075.1132920176713 1.1143787677409487
    vertex 605.1248734349194 1073.6989326637265 19.480059058702913
  endloop
endfacet
facet normal 0.9981347984218663 9.895194998461014e-19 0.0610485395348705
  outer loop
    vertex 605.1248734349194 1073.6989326637265 19.480059058702913
    vertex 606.2481665623615 1075.1132920176713 1.1143787677409487
    vertex 605.1013154428231 1073.858773339734 19.865228824782502
  endloop
endfacet
facet normal 0.9981347984218663 9.895194998461014e-19 0.0610485395348705
  outer loop
    vertex 605.1013154428231 1073.858773339734 19.865228824782502
    vertex 606.2481665623615 1075.1132920176713 1.1143787677409487
    vertex 605.0760346032915 1073.9132920176714 20.2785668974406
  endloop
endfacet
facet normal 0.9981347984218663 9.895194998461014e-19 0.0610485395348705
  outer loop
    vertex 606.2481665623615 1075.1132920176713 1.1143787677409487
    vertex 606.3824733493379 1077.3132920176713 -1.0815177887870724
    vertex 606.2481665623615 1077.3132920176713 1.1143787677409487
  endloop
endfacet
facet normal 0.9981347984218663 9.895194998461014e-19 0.0610485395348705
  outer loop
    vertex 605.3324384693382 1039.5132920176713 16.086400744068612
    vertex 604.7707919056177 1037.3132920176713 25.269240889549852
    vertex 605.3324384693382 1037.3132920176713 16.086400744068612
  endloop
endfacet
facet normal 0.9981347984218663 9.895194998461014e-19 0.0610485395348705
  outer loop
    vertex 604.7707919056177 1037.3132920176713 25.269240889549852
    vertex 605.3324384693382 1039.5132920176713 16.086400744068612
    vertex 605.0507537637599 1040.7678106956087 20.691904970098268
  endloop
endfacet
facet normal 0.9981347984218663 9.895194998461014e-19 0.0610485395348705
  outer loop
    vertex 604.7707919056177 1037.3132920176713 25.269240889549852
    vertex 605.0507537637599 1040.7678106956087 20.691904970098268
    vertex 605.0271957716635 1040.927651371616 21.077074736177828
  endloop
endfacet
facet normal 0.9981347984218663 9.895194998461014e-19 0.0610485395348705
  outer loop
    vertex 604.7707919056177 1037.3132920176713 25.269240889549852
    vertex 605.0271957716635 1040.927651371616 21.077074736177828
    vertex 605.006966065233 1041.1819211677728 21.407827512644243
  endloop
endfacet
facet normal 0.9981347984218663 9.895194998461014e-19 0.0610485395348705
  outer loop
    vertex 604.7707919056177 1037.3132920176713 25.269240889549852
    vertex 605.006966065233 1041.1819211677728 21.407827512644243
    vertex 604.9914432655299 1041.5132920176713 21.66162304437587
  endloop
endfacet
facet normal 0.9981347984218663 9.895194998461014e-19 0.0610485395348705
  outer loop
    vertex 604.7707919056177 1037.3132920176713 25.269240889549852
    vertex 604.9914432655299 1041.5132920176713 21.66162304437587
    vertex 604.9816852257014 1041.8991815455072 21.821165585302193
  endloop
endfacet
facet normal 0.9981347984218663 9.895194998461014e-19 0.0610485395348705
  outer loop
    vertex 604.7707919056177 1037.3132920176713 25.269240889549852
    vertex 604.9816852257014 1041.8991815455072 21.821165585302193
    vertex 604.9783569400358 1042.3132920176713 21.875582574915562
  endloop
endfacet
facet normal 0.9981347984218663 9.895194998461014e-19 0.0610485395348705
  outer loop
    vertex 604.7707919056177 1037.3132920176713 25.269240889549852
    vertex 604.9783569400358 1042.3132920176713 21.875582574915562
    vertex 604.7707919056177 1077.3132920176713 25.269240889549852
  endloop
endfacet
facet normal 0.9981347984218663 9.895194998461014e-19 0.0610485395348705
  outer loop
    vertex 605.0507537637599 1040.7678106956087 20.691904970098268
    vertex 605.3324384693382 1039.5132920176713 16.086400744068612
    vertex 605.0760346032915 1040.7132920176714 20.2785668974406
  endloop
endfacet
facet normal 0.9981347984218663 9.895194998461014e-19 0.0610485395348705
  outer loop
    vertex 604.7707919056177 1077.3132920176713 25.269240889549852
    vertex 604.9783569400358 1042.3132920176713 21.875582574915562
    vertex 604.9816852257014 1042.7274024898354 21.821165585302193
  endloop
endfacet
facet normal 0.9981347984218663 9.895194998461014e-19 0.0610485395348705
  outer loop
    vertex 604.7707919056177 1077.3132920176713 25.269240889549852
    vertex 604.9816852257014 1042.7274024898354 21.821165585302193
    vertex 604.9914432655299 1043.1132920176713 21.66162304437587
  endloop
endfacet
facet normal 0.9981347984218663 9.895194998461014e-19 0.0610485395348705
  outer loop
    vertex 604.7707919056177 1077.3132920176713 25.269240889549852
    vertex 604.9914432655299 1043.1132920176713 21.66162304437587
    vertex 605.006966065233 1043.4446628675698 21.407827512644243
  endloop
endfacet
facet normal 0.9981347984218663 9.895194998461014e-19 0.0610485395348705
  outer loop
    vertex 604.7707919056177 1077.3132920176713 25.269240889549852
    vertex 605.006966065233 1043.4446628675698 21.407827512644243
    vertex 605.0271957716635 1043.6989326637265 21.077074736177828
  endloop
endfacet
facet normal 0.9981347984218663 9.895194998461014e-19 0.0610485395348705
  outer loop
    vertex 604.7707919056177 1077.3132920176713 25.269240889549852
    vertex 605.0271957716635 1043.6989326637265 21.077074736177828
    vertex 605.0507537637599 1043.858773339734 20.691904970098268
  endloop
endfacet
facet normal 0.9981347984218663 9.895194998461014e-19 0.0610485395348705
  outer loop
    vertex 604.7707919056177 1077.3132920176713 25.269240889549852
    vertex 605.0507537637599 1043.858773339734 20.691904970098268
    vertex 605.0760346032915 1043.9132920176712 20.2785668974406
  endloop
endfacet
facet normal 0.9981347984218663 9.895194998461014e-19 0.0610485395348705
  outer loop
    vertex 604.7707919056177 1077.3132920176713 25.269240889549852
    vertex 605.0760346032915 1043.9132920176712 20.2785668974406
    vertex 604.9914432655299 1071.5132920176713 21.66162304437587
  endloop
endfacet
facet normal 0.9981347984218663 9.895194998461014e-19 0.0610485395348705
  outer loop
    vertex 604.9914432655299 1071.5132920176713 21.66162304437587
    vertex 605.0760346032915 1043.9132920176712 20.2785668974406
    vertex 605.006966065233 1071.1819211677728 21.407827512644243
  endloop
endfacet
facet normal 0.9981347984218663 9.895194998461014e-19 0.0610485395348705
  outer loop
    vertex 605.006966065233 1071.1819211677728 21.407827512644243
    vertex 605.0760346032915 1043.9132920176712 20.2785668974406
    vertex 605.0271957716635 1070.927651371616 21.077074736177828
  endloop
endfacet
facet normal 0.9981347984218663 9.895194998461014e-19 0.0610485395348705
  outer loop
    vertex 605.0271957716635 1070.927651371616 21.077074736177828
    vertex 605.0760346032915 1043.9132920176712 20.2785668974406
    vertex 605.0507537637599 1070.7678106956087 20.691904970098268
  endloop
endfacet
facet normal 0.9981347984218663 9.895194998461014e-19 0.0610485395348705
  outer loop
    vertex 605.0507537637599 1070.7678106956087 20.691904970098268
    vertex 605.0760346032915 1043.9132920176712 20.2785668974406
    vertex 605.0760346032915 1070.7132920176714 20.2785668974406
  endloop
endfacet
facet normal 0.9981347984218663 9.895194998461014e-19 0.0610485395348705
  outer loop
    vertex 604.7707919056177 1077.3132920176713 25.269240889549852
    vertex 604.9914432655299 1071.5132920176713 21.66162304437587
    vertex 604.9816852257014 1071.8991815455072 21.821165585302193
  endloop
endfacet
facet normal 0.9981347984218663 9.895194998461014e-19 0.0610485395348705
  outer loop
    vertex 604.7707919056177 1077.3132920176713 25.269240889549852
    vertex 604.9816852257014 1071.8991815455072 21.821165585302193
    vertex 604.9783569400358 1072.3132920176713 21.875582574915562
  endloop
endfacet
facet normal 0.9981347984218663 9.895194998461014e-19 0.0610485395348705
  outer loop
    vertex 604.7707919056177 1077.3132920176713 25.269240889549852
    vertex 604.9783569400358 1072.3132920176713 21.875582574915562
    vertex 604.9816852257014 1072.7274024898354 21.821165585302193
  endloop
endfacet
facet normal 0.9981347984218663 9.895194998461014e-19 0.0610485395348705
  outer loop
    vertex 604.7707919056177 1077.3132920176713 25.269240889549852
    vertex 604.9816852257014 1072.7274024898354 21.821165585302193
    vertex 604.9914432655299 1073.1132920176713 21.66162304437587
  endloop
endfacet
facet normal 0.9981347984218663 9.895194998461014e-19 0.0610485395348705
  outer loop
    vertex 604.7707919056177 1077.3132920176713 25.269240889549852
    vertex 604.9914432655299 1073.1132920176713 21.66162304437587
    vertex 605.006966065233 1073.4446628675698 21.407827512644243
  endloop
endfacet
facet normal 0.9981347984218663 9.895194998461014e-19 0.0610485395348705
  outer loop
    vertex 604.7707919056177 1077.3132920176713 25.269240889549852
    vertex 605.006966065233 1073.4446628675698 21.407827512644243
    vertex 605.0271957716635 1073.6989326637265 21.077074736177828
  endloop
endfacet
facet normal 0.9981347984218663 9.895194998461014e-19 0.0610485395348705
  outer loop
    vertex 604.7707919056177 1077.3132920176713 25.269240889549852
    vertex 605.0271957716635 1073.6989326637265 21.077074736177828
    vertex 605.0507537637599 1073.858773339734 20.691904970098268
  endloop
endfacet
facet normal 0.9981347984218663 9.895194998461014e-19 0.0610485395348705
  outer loop
    vertex 604.7707919056177 1077.3132920176713 25.269240889549852
    vertex 605.0507537637599 1073.858773339734 20.691904970098268
    vertex 605.0760346032915 1073.9132920176714 20.2785668974406
  endloop
endfacet
facet normal 0.9981347984218663 9.895194998461014e-19 0.0610485395348705
  outer loop
    vertex 604.7707919056177 1077.3132920176713 25.269240889549852
    vertex 605.0760346032915 1073.9132920176714 20.2785668974406
    vertex 605.3324384693382 1075.1132920176713 16.086400744068612
  endloop
endfacet
facet normal 0.9981347984218663 9.895194998461014e-19 0.0610485395348705
  outer loop
    vertex 605.3324384693382 1075.1132920176713 16.086400744068612
    vertex 605.0760346032915 1073.9132920176714 20.2785668974406
    vertex 606.2481665623615 1075.1132920176713 1.1143787677409487
  endloop
endfacet
facet normal 0.9981347984218663 9.895194998461014e-19 0.0610485395348705
  outer loop
    vertex 604.7707919056177 1077.3132920176713 25.269240889549852
    vertex 605.3324384693382 1075.1132920176713 16.086400744068612
    vertex 605.3324384693382 1077.3132920176713 16.086400744068612
  endloop
endfacet
facet normal -0.9981347984218669 0.0 -0.061048539534858226
  outer loop
    vertex 602.774522308774 1037.3132920176713 25.14714381048025
    vertex 603.0544841669162 1040.7678106956087 20.569807891028677
    vertex 604.3862037524942 1037.3132920176713 -1.2036148678567868
  endloop
endfacet
facet normal -0.9981347984218669 0.0 -0.061048539534858226
  outer loop
    vertex 603.0544841669162 1040.7678106956087 20.569807891028677
    vertex 602.774522308774 1037.3132920176713 25.14714381048025
    vertex 603.03092617482 1040.927651371616 20.954977657108305
  endloop
endfacet
facet normal -0.9981347984218669 0.0 -0.061048539534858226
  outer loop
    vertex 603.03092617482 1040.927651371616 20.954977657108305
    vertex 602.774522308774 1037.3132920176713 25.14714381048025
    vertex 603.0106964683893 1041.1819211677728 21.285730433574596
  endloop
endfacet
facet normal -0.9981347984218669 0.0 -0.061048539534858226
  outer loop
    vertex 603.0106964683893 1041.1819211677728 21.285730433574596
    vertex 602.774522308774 1037.3132920176713 25.14714381048025
    vertex 602.9951736686862 1041.5132920176713 21.539525965306197
  endloop
endfacet
facet normal -0.9981347984218669 0.0 -0.061048539534858226
  outer loop
    vertex 602.9951736686862 1041.5132920176713 21.539525965306197
    vertex 602.774522308774 1037.3132920176713 25.14714381048025
    vertex 602.9854156288575 1041.8991815455072 21.699068506232308
  endloop
endfacet
facet normal -0.9981347984218669 0.0 -0.061048539534858226
  outer loop
    vertex 602.9854156288575 1041.8991815455072 21.699068506232308
    vertex 602.774522308774 1037.3132920176713 25.14714381048025
    vertex 602.9820873431921 1042.3132920176713 21.753485495845847
  endloop
endfacet
facet normal -0.9981347984218669 0.0 -0.061048539534858226
  outer loop
    vertex 602.9820873431921 1042.3132920176713 21.753485495845847
    vertex 602.774522308774 1037.3132920176713 25.14714381048025
    vertex 602.774522308774 1077.3132920176713 25.14714381048025
  endloop
endfacet
facet normal -0.9981347984218669 0.0 -0.061048539534858226
  outer loop
    vertex 604.3862037524942 1037.3132920176713 -1.2036148678567868
    vertex 603.0544841669162 1040.7678106956087 20.569807891028677
    vertex 603.0797650064477 1040.7132920176714 20.156469818370763
  endloop
endfacet
facet normal -0.9981347984218669 0.0 -0.061048539534858226
  outer loop
    vertex 602.9820873431921 1042.3132920176713 21.753485495845847
    vertex 602.774522308774 1077.3132920176713 25.14714381048025
    vertex 602.9854156288575 1042.7274024898354 21.699068506232308
  endloop
endfacet
facet normal -0.9981347984218669 0.0 -0.061048539534858226
  outer loop
    vertex 602.9854156288575 1042.7274024898354 21.699068506232308
    vertex 602.774522308774 1077.3132920176713 25.14714381048025
    vertex 602.9951736686862 1043.1132920176713 21.539525965306197
  endloop
endfacet
facet normal -0.9981347984218669 0.0 -0.061048539534858226
  outer loop
    vertex 602.9951736686862 1043.1132920176713 21.539525965306197
    vertex 602.774522308774 1077.3132920176713 25.14714381048025
    vertex 603.0106964683893 1043.4446628675698 21.285730433574596
  endloop
endfacet
facet normal -0.9981347984218669 0.0 -0.061048539534858226
  outer loop
    vertex 603.0106964683893 1043.4446628675698 21.285730433574596
    vertex 602.774522308774 1077.3132920176713 25.14714381048025
    vertex 603.03092617482 1043.6989326637265 20.954977657108305
  endloop
endfacet
facet normal -0.9981347984218669 0.0 -0.061048539534858226
  outer loop
    vertex 603.03092617482 1043.6989326637265 20.954977657108305
    vertex 602.774522308774 1077.3132920176713 25.14714381048025
    vertex 603.0544841669162 1043.858773339734 20.569807891028677
  endloop
endfacet
facet normal -0.9981347984218669 0.0 -0.061048539534858226
  outer loop
    vertex 603.0544841669162 1043.858773339734 20.569807891028677
    vertex 602.774522308774 1077.3132920176713 25.14714381048025
    vertex 603.0797650064477 1043.9132920176712 20.156469818370763
  endloop
endfacet
facet normal -0.9981347984218669 0.0 -0.061048539534858226
  outer loop
    vertex 603.0797650064477 1043.9132920176712 20.156469818370763
    vertex 602.774522308774 1077.3132920176713 25.14714381048025
    vertex 602.9951736686862 1071.5132920176713 21.539525965306197
  endloop
endfacet
facet normal -0.9981347984218669 0.0 -0.061048539534858226
  outer loop
    vertex 603.0797650064477 1043.9132920176712 20.156469818370763
    vertex 602.9951736686862 1071.5132920176713 21.539525965306197
    vertex 603.0106964683893 1071.1819211677728 21.285730433574596
  endloop
endfacet
facet normal -0.9981347984218669 0.0 -0.061048539534858226
  outer loop
    vertex 603.0797650064477 1043.9132920176712 20.156469818370763
    vertex 603.0106964683893 1071.1819211677728 21.285730433574596
    vertex 603.03092617482 1070.927651371616 20.954977657108305
  endloop
endfacet
facet normal -0.9981347984218669 0.0 -0.061048539534858226
  outer loop
    vertex 603.0797650064477 1043.9132920176712 20.156469818370763
    vertex 603.03092617482 1070.927651371616 20.954977657108305
    vertex 603.0544841669162 1070.7678106956087 20.569807891028677
  endloop
endfacet
facet normal -0.9981347984218669 0.0 -0.061048539534858226
  outer loop
    vertex 603.0797650064477 1043.9132920176712 20.156469818370763
    vertex 603.0544841669162 1070.7678106956087 20.569807891028677
    vertex 603.0797650064477 1070.7132920176714 20.156469818370763
  endloop
endfacet
facet normal -0.9981347984218669 0.0 -0.061048539534858226
  outer loop
    vertex 602.9951736686862 1071.5132920176713 21.539525965306197
    vertex 602.774522308774 1077.3132920176713 25.14714381048025
    vertex 602.9854156288575 1071.8991815455072 21.699068506232308
  endloop
endfacet
facet normal -0.9981347984218669 0.0 -0.061048539534858226
  outer loop
    vertex 602.9854156288575 1071.8991815455072 21.699068506232308
    vertex 602.774522308774 1077.3132920176713 25.14714381048025
    vertex 602.9820873431921 1072.3132920176713 21.753485495845847
  endloop
endfacet
facet normal -0.9981347984218669 0.0 -0.061048539534858226
  outer loop
    vertex 602.9820873431921 1072.3132920176713 21.753485495845847
    vertex 602.774522308774 1077.3132920176713 25.14714381048025
    vertex 602.9854156288575 1072.7274024898354 21.699068506232308
  endloop
endfacet
facet normal -0.9981347984218669 0.0 -0.061048539534858226
  outer loop
    vertex 602.9854156288575 1072.7274024898354 21.699068506232308
    vertex 602.774522308774 1077.3132920176713 25.14714381048025
    vertex 602.9951736686862 1073.1132920176713 21.539525965306197
  endloop
endfacet
facet normal -0.9981347984218669 0.0 -0.061048539534858226
  outer loop
    vertex 602.9951736686862 1073.1132920176713 21.539525965306197
    vertex 602.774522308774 1077.3132920176713 25.14714381048025
    vertex 603.0106964683893 1073.4446628675698 21.285730433574596
  endloop
endfacet
facet normal -0.9981347984218669 0.0 -0.061048539534858226
  outer loop
    vertex 603.0106964683893 1073.4446628675698 21.285730433574596
    vertex 602.774522308774 1077.3132920176713 25.14714381048025
    vertex 603.03092617482 1073.6989326637265 20.954977657108305
  endloop
endfacet
facet normal -0.9981347984218669 0.0 -0.061048539534858226
  outer loop
    vertex 603.03092617482 1073.6989326637265 20.954977657108305
    vertex 602.774522308774 1077.3132920176713 25.14714381048025
    vertex 603.0544841669162 1073.858773339734 20.569807891028677
  endloop
endfacet
facet normal -0.9981347984218669 0.0 -0.061048539534858226
  outer loop
    vertex 603.0544841669162 1073.858773339734 20.569807891028677
    vertex 602.774522308774 1077.3132920176713 25.14714381048025
    vertex 603.0797650064477 1073.9132920176714 20.156469818370763
  endloop
endfacet
facet normal -0.9981347984218669 0.0 -0.061048539534858226
  outer loop
    vertex 604.3862037524942 1037.3132920176713 -1.2036148678567868
    vertex 603.1643563442095 1041.5132920176713 18.773413671435417
    vertex 604.3862037524942 1077.3132920176713 -1.2036148678567868
  endloop
endfacet
facet normal -0.9981347984218669 0.0 -0.061048539534858226
  outer loop
    vertex 603.1643563442095 1041.5132920176713 18.773413671435417
    vertex 604.3862037524942 1037.3132920176713 -1.2036148678567868
    vertex 603.1488335445064 1041.1819211677728 19.02720920316695
  endloop
endfacet
facet normal -0.9981347984218669 0.0 -0.061048539534858226
  outer loop
    vertex 603.1488335445064 1041.1819211677728 19.02720920316695
    vertex 604.3862037524942 1037.3132920176713 -1.2036148678567868
    vertex 603.1286038380756 1040.927651371616 19.357961979633185
  endloop
endfacet
facet normal -0.9981347984218669 0.0 -0.061048539534858226
  outer loop
    vertex 603.1286038380756 1040.927651371616 19.357961979633185
    vertex 604.3862037524942 1037.3132920176713 -1.2036148678567868
    vertex 603.1050458459794 1040.7678106956087 19.743131745712912
  endloop
endfacet
facet normal -0.9981347984218669 0.0 -0.061048539534858226
  outer loop
    vertex 603.1050458459794 1040.7678106956087 19.743131745712912
    vertex 604.3862037524942 1037.3132920176713 -1.2036148678567868
    vertex 603.0797650064477 1040.7132920176714 20.156469818370763
  endloop
endfacet
facet normal -0.9981347984218669 0.0 -0.061048539534858226
  outer loop
    vertex 604.3862037524942 1077.3132920176713 -1.2036148678567868
    vertex 603.1643563442095 1041.5132920176713 18.773413671435417
    vertex 603.1741143840378 1041.8991815455072 18.61387113050896
  endloop
endfacet
facet normal -0.9981347984218669 0.0 -0.061048539534858226
  outer loop
    vertex 604.3862037524942 1077.3132920176713 -1.2036148678567868
    vertex 603.1741143840378 1041.8991815455072 18.61387113050896
    vertex 603.1774426697034 1042.3132920176713 18.559454140895706
  endloop
endfacet
facet normal -0.9981347984218669 0.0 -0.061048539534858226
  outer loop
    vertex 604.3862037524942 1077.3132920176713 -1.2036148678567868
    vertex 603.1774426697034 1042.3132920176713 18.559454140895706
    vertex 603.1741143840378 1042.7274024898354 18.61387113050896
  endloop
endfacet
facet normal -0.9981347984218669 0.0 -0.061048539534858226
  outer loop
    vertex 604.3862037524942 1077.3132920176713 -1.2036148678567868
    vertex 603.1741143840378 1042.7274024898354 18.61387113050896
    vertex 603.1643563442095 1043.1132920176713 18.773413671435417
  endloop
endfacet
facet normal -0.9981347984218669 0.0 -0.061048539534858226
  outer loop
    vertex 604.3862037524942 1077.3132920176713 -1.2036148678567868
    vertex 603.1643563442095 1043.1132920176713 18.773413671435417
    vertex 603.1488335445064 1043.4446628675698 19.02720920316695
  endloop
endfacet
facet normal -0.9981347984218669 0.0 -0.061048539534858226
  outer loop
    vertex 604.3862037524942 1077.3132920176713 -1.2036148678567868
    vertex 603.1488335445064 1043.4446628675698 19.02720920316695
    vertex 603.1286038380756 1043.6989326637265 19.357961979633185
  endloop
endfacet
facet normal -0.9981347984218669 0.0 -0.061048539534858226
  outer loop
    vertex 604.3862037524942 1077.3132920176713 -1.2036148678567868
    vertex 603.1286038380756 1043.6989326637265 19.357961979633185
    vertex 603.1050458459794 1043.858773339734 19.743131745712912
  endloop
endfacet
facet normal -0.9981347984218669 0.0 -0.061048539534858226
  outer loop
    vertex 604.3862037524942 1077.3132920176713 -1.2036148678567868
    vertex 603.1050458459794 1043.858773339734 19.743131745712912
    vertex 603.0797650064477 1043.9132920176712 20.156469818370763
  endloop
endfacet
facet normal -0.9981347984218669 0.0 -0.061048539534858226
  outer loop
    vertex 604.3862037524942 1077.3132920176713 -1.2036148678567868
    vertex 603.0797650064477 1043.9132920176712 20.156469818370763
    vertex 603.1050458459794 1070.7678106956087 19.743131745712912
  endloop
endfacet
facet normal -0.9981347984218669 0.0 -0.061048539534858226
  outer loop
    vertex 603.1050458459794 1070.7678106956087 19.743131745712912
    vertex 603.0797650064477 1043.9132920176712 20.156469818370763
    vertex 603.0797650064477 1070.7132920176714 20.156469818370763
  endloop
endfacet
facet normal -0.9981347984218669 0.0 -0.061048539534858226
  outer loop
    vertex 604.3862037524942 1077.3132920176713 -1.2036148678567868
    vertex 603.1050458459794 1070.7678106956087 19.743131745712912
    vertex 603.1286038380756 1070.927651371616 19.357961979633185
  endloop
endfacet
facet normal -0.9981347984218669 0.0 -0.061048539534858226
  outer loop
    vertex 604.3862037524942 1077.3132920176713 -1.2036148678567868
    vertex 603.1286038380756 1070.927651371616 19.357961979633185
    vertex 603.1488335445064 1071.1819211677728 19.02720920316695
  endloop
endfacet
facet normal -0.9981347984218669 0.0 -0.061048539534858226
  outer loop
    vertex 604.3862037524942 1077.3132920176713 -1.2036148678567868
    vertex 603.1488335445064 1071.1819211677728 19.02720920316695
    vertex 603.1643563442095 1071.5132920176713 18.773413671435417
  endloop
endfacet
facet normal -0.9981347984218669 0.0 -0.061048539534858226
  outer loop
    vertex 604.3862037524942 1077.3132920176713 -1.2036148678567868
    vertex 603.1643563442095 1071.5132920176713 18.773413671435417
    vertex 603.1741143840378 1071.8991815455072 18.61387113050896
  endloop
endfacet
facet normal -0.9981347984218669 0.0 -0.061048539534858226
  outer loop
    vertex 604.3862037524942 1077.3132920176713 -1.2036148678567868
    vertex 603.1741143840378 1071.8991815455072 18.61387113050896
    vertex 603.1774426697034 1072.3132920176713 18.559454140895706
  endloop
endfacet
facet normal -0.9981347984218669 0.0 -0.061048539534858226
  outer loop
    vertex 604.3862037524942 1077.3132920176713 -1.2036148678567868
    vertex 603.1774426697034 1072.3132920176713 18.559454140895706
    vertex 603.1741143840378 1072.7274024898354 18.61387113050896
  endloop
endfacet
facet normal -0.9981347984218669 0.0 -0.061048539534858226
  outer loop
    vertex 604.3862037524942 1077.3132920176713 -1.2036148678567868
    vertex 603.1741143840378 1072.7274024898354 18.61387113050896
    vertex 603.1643563442095 1073.1132920176713 18.773413671435417
  endloop
endfacet
facet normal -0.9981347984218669 0.0 -0.061048539534858226
  outer loop
    vertex 604.3862037524942 1077.3132920176713 -1.2036148678567868
    vertex 603.1643563442095 1073.1132920176713 18.773413671435417
    vertex 603.1488335445064 1073.4446628675698 19.02720920316695
  endloop
endfacet
facet normal -0.9981347984218669 0.0 -0.061048539534858226
  outer loop
    vertex 604.3862037524942 1077.3132920176713 -1.2036148678567868
    vertex 603.1488335445064 1073.4446628675698 19.02720920316695
    vertex 603.1286038380756 1073.6989326637265 19.357961979633185
  endloop
endfacet
facet normal -0.9981347984218669 0.0 -0.061048539534858226
  outer loop
    vertex 604.3862037524942 1077.3132920176713 -1.2036148678567868
    vertex 603.1286038380756 1073.6989326637265 19.357961979633185
    vertex 603.1050458459794 1073.858773339734 19.743131745712912
  endloop
endfacet
facet normal -0.9981347984218669 0.0 -0.061048539534858226
  outer loop
    vertex 604.3862037524942 1077.3132920176713 -1.2036148678567868
    vertex 603.1050458459794 1073.858773339734 19.743131745712912
    vertex 603.0797650064477 1073.9132920176714 20.156469818370763
  endloop
endfacet
facet normal -0.9981347984218669 0.0 -0.061048539534858226
  outer loop
    vertex 604.3862037524942 1077.3132920176713 -1.2036148678567868
    vertex 603.0797650064477 1073.9132920176714 20.156469818370763
    vertex 602.774522308774 1077.3132920176713 25.14714381048025
  endloop
endfacet
facet normal 0.06104853953485621 0.0 -0.9981347984218671
  outer loop
    vertex 606.3824733493379 1077.3132920176713 -1.0815177887870724
    vertex 604.3862037524942 1037.3132920176713 -1.2036148678567868
    vertex 604.3862037524942 1077.3132920176713 -1.2036148678567868
  endloop
endfacet
facet normal 0.06104853953485621 0.0 -0.9981347984218671
  outer loop
    vertex 604.3862037524942 1037.3132920176713 -1.2036148678567868
    vertex 606.3824733493379 1077.3132920176713 -1.0815177887870724
    vertex 606.3824733493379 1037.3132920176713 -1.0815177887870724
  endloop
endfacet
facet normal 0.00796843340607204 -0.9914448613738281 -0.130282734560201
  outer loop
    vertex 605.0760346032915 1043.9132920176712 20.2785668974406
    vertex 603.0544841669162 1043.858773339734 20.569807891028677
    vertex 603.0797650064477 1043.9132920176712 20.156469818370763
  endloop
endfacet
facet normal 0.00796843340607204 -0.9914448613738281 -0.130282734560201
  outer loop
    vertex 603.0544841669162 1043.858773339734 20.569807891028677
    vertex 605.0760346032915 1043.9132920176712 20.2785668974406
    vertex 605.0507537637599 1043.858773339734 20.691904970098268
  endloop
endfacet
facet normal 0.0 -1.0 0.0
  outer loop
    vertex 608.7260967839727 1037.3132920176713 16.29396577848763
    vertex 605.3324384693382 1037.3132920176713 16.086400744068612
    vertex 609.6418248769954 1037.3132920176713 1.321943802159529
  endloop
endfacet
facet normal 0.0 -1.0 0.0
  outer loop
    vertex 606.3824733493379 1037.3132920176713 -1.0815177887870724
    vertex 602.774522308774 1037.3132920176713 25.14714381048025
    vertex 604.3862037524942 1037.3132920176713 -1.2036148678567868
  endloop
endfacet
facet normal 0.0 -1.0 0.0
  outer loop
    vertex 602.774522308774 1037.3132920176713 25.14714381048025
    vertex 606.3824733493379 1037.3132920176713 -1.0815177887870724
    vertex 606.2481665623615 1037.3132920176713 1.1143787677409487
  endloop
endfacet
facet normal 0.0 -1.0 0.0
  outer loop
    vertex 602.774522308774 1037.3132920176713 25.14714381048025
    vertex 606.2481665623615 1037.3132920176713 1.1143787677409487
    vertex 605.3324384693382 1037.3132920176713 16.086400744068612
  endloop
endfacet
facet normal 0.0 -1.0 0.0
  outer loop
    vertex 605.3324384693382 1037.3132920176713 16.086400744068612
    vertex 606.2481665623615 1037.3132920176713 1.1143787677409487
    vertex 609.6418248769954 1037.3132920176713 1.321943802159529
  endloop
endfacet
facet normal 0.0 -1.0 0.0
  outer loop
    vertex 602.774522308774 1037.3132920176713 25.14714381048025
    vertex 605.3324384693382 1037.3132920176713 16.086400744068612
    vertex 604.7707919056177 1037.3132920176713 25.269240889549852
  endloop
endfacet
facet normal -0.007968433406068634 -0.9914448613738356 0.1302827345601453
  outer loop
    vertex 605.1013154428231 1043.858773339734 19.865228824782502
    vertex 603.0797650064477 1043.9132920176712 20.156469818370763
    vertex 603.1050458459794 1043.858773339734 19.743131745712912
  endloop
endfacet
facet normal -0.007968433406068634 -0.9914448613738356 0.1302827345601453
  outer loop
    vertex 603.0797650064477 1043.9132920176712 20.156469818370763
    vertex 605.1013154428231 1043.858773339734 19.865228824782502
    vertex 605.0760346032915 1043.9132920176712 20.2785668974406
  endloop
endfacet
facet normal -0.023362264650067646 -0.9238795325112613 0.3819696506231791
  outer loop
    vertex 605.1248734349194 1043.6989326637265 19.480059058702913
    vertex 603.1050458459794 1043.858773339734 19.743131745712912
    vertex 603.1286038380756 1043.6989326637265 19.357961979633185
  endloop
endfacet
facet normal -0.023362264650067646 -0.9238795325112613 0.3819696506231791
  outer loop
    vertex 603.1050458459794 1043.858773339734 19.743131745712912
    vertex 605.1248734349194 1043.6989326637265 19.480059058702913
    vertex 605.1013154428231 1043.858773339734 19.865228824782502
  endloop
endfacet
facet normal -0.03716399616613307 -0.7933533402912094 0.607625966230661
  outer loop
    vertex 605.1451031413501 1043.4446628675698 19.14930628223663
    vertex 603.1286038380756 1043.6989326637265 19.357961979633185
    vertex 603.1488335445064 1043.4446628675698 19.02720920316695
  endloop
endfacet
facet normal -0.03716399616613307 -0.7933533402912094 0.607625966230661
  outer loop
    vertex 603.1286038380756 1043.6989326637265 19.357961979633185
    vertex 605.1451031413501 1043.4446628675698 19.14930628223663
    vertex 605.1248734349194 1043.6989326637265 19.480059058702913
  endloop
endfacet
facet normal -0.0 1.0 -0.0
  outer loop
    vertex 602.774522308774 1077.3132920176713 25.14714381048025
    vertex 606.3824733493379 1077.3132920176713 -1.0815177887870724
    vertex 604.3862037524942 1077.3132920176713 -1.2036148678567868
  endloop
endfacet
facet normal -0.0 1.0 -0.0
  outer loop
    vertex 606.3824733493379 1077.3132920176713 -1.0815177887870724
    vertex 602.774522308774 1077.3132920176713 25.14714381048025
    vertex 606.2481665623615 1077.3132920176713 1.1143787677409487
  endloop
endfacet
facet normal -0.0 1.0 -0.0
  outer loop
    vertex 606.2481665623615 1077.3132920176713 1.1143787677409487
    vertex 602.774522308774 1077.3132920176713 25.14714381048025
    vertex 605.3324384693382 1077.3132920176713 16.086400744068612
  endloop
endfacet
facet normal -0.0 1.0 -0.0
  outer loop
    vertex 606.2481665623615 1077.3132920176713 1.1143787677409487
    vertex 605.3324384693382 1077.3132920176713 16.086400744068612
    vertex 609.6418248769954 1077.3132920176713 1.321943802159529
  endloop
endfacet
facet normal -0.0 1.0 -0.0
  outer loop
    vertex 605.3324384693382 1077.3132920176713 16.086400744068612
    vertex 602.774522308774 1077.3132920176713 25.14714381048025
    vertex 604.7707919056177 1077.3132920176713 25.269240889549852
  endloop
endfacet
facet normal -0.0 1.0 -0.0
  outer loop
    vertex 608.7260967839727 1077.3132920176713 16.29396577848763
    vertex 609.6418248769954 1077.3132920176713 1.321943802159529
    vertex 605.3324384693382 1077.3132920176713 16.086400744068612
  endloop
endfacet
facet normal -0.06104853953480275 -0.0 0.9981347984218703
  outer loop
    vertex 604.7707919056177 1037.3132920176713 25.269240889549852
    vertex 602.774522308774 1077.3132920176713 25.14714381048025
    vertex 602.774522308774 1037.3132920176713 25.14714381048025
  endloop
endfacet
facet normal -0.06104853953480275 -0.0 0.9981347984218703
  outer loop
    vertex 602.774522308774 1077.3132920176713 25.14714381048025
    vertex 604.7707919056177 1037.3132920176713 25.269240889549852
    vertex 604.7707919056177 1077.3132920176713 25.269240889549852
  endloop
endfacet
facet normal -0.04843306275981215 -0.6087614290088286 0.791873576388828
  outer loop
    vertex 603.1643563442095 1043.1132920176713 18.773413671435417
    vertex 605.1451031413501 1043.4446628675698 19.14930628223663
    vertex 603.1488335445064 1043.4446628675698 19.02720920316695
  endloop
endfacet
facet normal -0.04843306275981215 -0.6087614290088286 0.791873576388828
  outer loop
    vertex 605.1451031413501 1043.4446628675698 19.14930628223663
    vertex 603.1643563442095 1043.1132920176713 18.773413671435417
    vertex 605.160625941053 1043.1132920176713 18.895510750504826
  endloop
endfacet
facet normal -0.05640149616590325 -0.3826834323651164 0.9221563109492344
  outer loop
    vertex 603.1741143840378 1042.7274024898354 18.61387113050896
    vertex 605.160625941053 1043.1132920176713 18.895510750504826
    vertex 603.1643563442095 1043.1132920176713 18.773413671435417
  endloop
endfacet
facet normal -0.05640149616590325 -0.3826834323651164 0.9221563109492344
  outer loop
    vertex 605.160625941053 1043.1132920176713 18.895510750504826
    vertex 603.1741143840378 1042.7274024898354 18.61387113050896
    vertex 605.1703839808818 1042.7274024898354 18.735968209578733
  endloop
endfacet
facet normal -0.06052626081622765 -0.1305261922198291 0.9895956168537725
  outer loop
    vertex 603.1774426697034 1042.3132920176713 18.559454140895706
    vertex 605.1703839808818 1042.7274024898354 18.735968209578733
    vertex 603.1741143840378 1042.7274024898354 18.61387113050896
  endloop
endfacet
facet normal -0.06052626081622765 -0.1305261922198291 0.9895956168537725
  outer loop
    vertex 605.1703839808818 1042.7274024898354 18.735968209578733
    vertex 603.1774426697034 1042.3132920176713 18.559454140895706
    vertex 605.1737122665471 1042.3132920176713 18.681551219965442
  endloop
endfacet
facet normal -0.04843306275981215 0.6087614290088285 0.791873576388828
  outer loop
    vertex 605.1451031413501 1041.1819211677728 19.14930628223663
    vertex 603.1643563442095 1041.5132920176713 18.773413671435417
    vertex 603.1488335445064 1041.1819211677728 19.02720920316695
  endloop
endfacet
facet normal -0.04843306275981215 0.6087614290088285 0.791873576388828
  outer loop
    vertex 603.1643563442095 1041.5132920176713 18.773413671435417
    vertex 605.1451031413501 1041.1819211677728 19.14930628223663
    vertex 605.160625941053 1041.5132920176713 18.895510750504826
  endloop
endfacet
facet normal -0.03716399616613308 0.7933533402912094 0.607625966230661
  outer loop
    vertex 603.1286038380756 1070.927651371616 19.357961979633185
    vertex 605.1451031413501 1071.1819211677728 19.14930628223663
    vertex 603.1488335445064 1071.1819211677728 19.02720920316695
  endloop
endfacet
facet normal -0.03716399616613308 0.7933533402912094 0.607625966230661
  outer loop
    vertex 605.1451031413501 1071.1819211677728 19.14930628223663
    vertex 603.1286038380756 1070.927651371616 19.357961979633185
    vertex 605.1248734349194 1070.927651371616 19.480059058702913
  endloop
endfacet
facet normal 0.007968433406072045 0.9914448613738281 -0.130282734560201
  outer loop
    vertex 603.0544841669162 1070.7678106956087 20.569807891028677
    vertex 605.0760346032915 1070.7132920176714 20.2785668974406
    vertex 603.0797650064477 1070.7132920176714 20.156469818370763
  endloop
endfacet
facet normal 0.007968433406072045 0.9914448613738281 -0.130282734560201
  outer loop
    vertex 605.0760346032915 1070.7132920176714 20.2785668974406
    vertex 603.0544841669162 1070.7678106956087 20.569807891028677
    vertex 605.0507537637599 1070.7678106956087 20.691904970098268
  endloop
endfacet
facet normal 0.02336226465005417 0.9238795325112358 -0.3819696506232418
  outer loop
    vertex 603.03092617482 1070.927651371616 20.954977657108305
    vertex 605.0507537637599 1070.7678106956087 20.691904970098268
    vertex 603.0544841669162 1070.7678106956087 20.569807891028677
  endloop
endfacet
facet normal 0.02336226465005417 0.9238795325112358 -0.3819696506232418
  outer loop
    vertex 605.0507537637599 1070.7678106956087 20.691904970098268
    vertex 603.03092617482 1070.927651371616 20.954977657108305
    vertex 605.0271957716635 1070.927651371616 21.077074736177828
  endloop
endfacet
facet normal -0.007968433406068636 0.9914448613738356 0.13028273456014533
  outer loop
    vertex 603.0797650064477 1040.7132920176714 20.156469818370763
    vertex 605.1013154428231 1040.7678106956087 19.865228824782502
    vertex 603.1050458459794 1040.7678106956087 19.743131745712912
  endloop
endfacet
facet normal -0.007968433406068636 0.9914448613738356 0.13028273456014533
  outer loop
    vertex 605.1013154428231 1040.7678106956087 19.865228824782502
    vertex 603.0797650064477 1040.7132920176714 20.156469818370763
    vertex 605.0760346032915 1040.7132920176714 20.2785668974406
  endloop
endfacet
facet normal 0.02336226465005417 0.9238795325112358 -0.3819696506232418
  outer loop
    vertex 603.03092617482 1040.927651371616 20.954977657108305
    vertex 605.0507537637599 1040.7678106956087 20.691904970098268
    vertex 603.0544841669162 1040.7678106956087 20.569807891028677
  endloop
endfacet
facet normal 0.02336226465005417 0.9238795325112358 -0.3819696506232418
  outer loop
    vertex 605.0507537637599 1040.7678106956087 20.691904970098268
    vertex 603.03092617482 1040.927651371616 20.954977657108305
    vertex 605.0271957716635 1040.927651371616 21.077074736177828
  endloop
endfacet
facet normal 0.04843306275985673 0.6087614290087354 -0.791873576388897
  outer loop
    vertex 604.9914432655299 1041.5132920176713 21.66162304437587
    vertex 603.0106964683893 1041.1819211677728 21.285730433574596
    vertex 602.9951736686862 1041.5132920176713 21.539525965306197
  endloop
endfacet
facet normal 0.04843306275985673 0.6087614290087354 -0.791873576388897
  outer loop
    vertex 603.0106964683893 1041.1819211677728 21.285730433574596
    vertex 604.9914432655299 1041.5132920176713 21.66162304437587
    vertex 605.006966065233 1041.1819211677728 21.407827512644243
  endloop
endfacet
facet normal 0.00796843340607204 -0.9914448613738281 -0.130282734560201
  outer loop
    vertex 605.0760346032915 1073.9132920176714 20.2785668974406
    vertex 603.0544841669162 1073.858773339734 20.569807891028677
    vertex 603.0797650064477 1073.9132920176714 20.156469818370763
  endloop
endfacet
facet normal 0.00796843340607204 -0.9914448613738281 -0.130282734560201
  outer loop
    vertex 603.0544841669162 1073.858773339734 20.569807891028677
    vertex 605.0760346032915 1073.9132920176714 20.2785668974406
    vertex 605.0507537637599 1073.858773339734 20.691904970098268
  endloop
endfacet
facet normal -0.007968433406068634 -0.9914448613738356 0.1302827345601453
  outer loop
    vertex 605.1013154428231 1073.858773339734 19.865228824782502
    vertex 603.0797650064477 1073.9132920176714 20.156469818370763
    vertex 603.1050458459794 1073.858773339734 19.743131745712912
  endloop
endfacet
facet normal -0.007968433406068634 -0.9914448613738356 0.1302827345601453
  outer loop
    vertex 603.0797650064477 1073.9132920176714 20.156469818370763
    vertex 605.1013154428231 1073.858773339734 19.865228824782502
    vertex 605.0760346032915 1073.9132920176714 20.2785668974406
  endloop
endfacet
facet normal -0.023362264650067646 -0.9238795325112613 0.3819696506231791
  outer loop
    vertex 605.1248734349194 1073.6989326637265 19.480059058702913
    vertex 603.1050458459794 1073.858773339734 19.743131745712912
    vertex 603.1286038380756 1073.6989326637265 19.357961979633185
  endloop
endfacet
facet normal -0.023362264650067646 -0.9238795325112613 0.3819696506231791
  outer loop
    vertex 603.1050458459794 1073.858773339734 19.743131745712912
    vertex 605.1248734349194 1073.6989326637265 19.480059058702913
    vertex 605.1013154428231 1073.858773339734 19.865228824782502
  endloop
endfacet
facet normal 0.06052626081624652 0.13052619222025305 -0.9895956168537153
  outer loop
    vertex 604.9783569400358 1042.3132920176713 21.875582574915562
    vertex 602.9854156288575 1041.8991815455072 21.699068506232308
    vertex 602.9820873431921 1042.3132920176713 21.753485495845847
  endloop
endfacet
facet normal 0.06052626081624652 0.13052619222025305 -0.9895956168537153
  outer loop
    vertex 602.9854156288575 1041.8991815455072 21.699068506232308
    vertex 604.9783569400358 1042.3132920176713 21.875582574915562
    vertex 604.9816852257014 1041.8991815455072 21.821165585302193
  endloop
endfacet
facet normal 0.060526260816246534 -0.13052619222025305 -0.9895956168537153
  outer loop
    vertex 602.9854156288575 1042.7274024898354 21.699068506232308
    vertex 604.9783569400358 1042.3132920176713 21.875582574915562
    vertex 602.9820873431921 1042.3132920176713 21.753485495845847
  endloop
endfacet
facet normal 0.060526260816246534 -0.13052619222025305 -0.9895956168537153
  outer loop
    vertex 604.9783569400358 1042.3132920176713 21.875582574915562
    vertex 602.9854156288575 1042.7274024898354 21.699068506232308
    vertex 604.9816852257014 1042.7274024898354 21.821165585302193
  endloop
endfacet
facet normal 0.03716399616609272 -0.7933533402912966 -0.6076259662305494
  outer loop
    vertex 605.0271957716635 1043.6989326637265 21.077074736177828
    vertex 603.0106964683893 1043.4446628675698 21.285730433574596
    vertex 603.03092617482 1043.6989326637265 20.954977657108305
  endloop
endfacet
facet normal 0.03716399616609272 -0.7933533402912966 -0.6076259662305494
  outer loop
    vertex 603.0106964683893 1043.4446628675698 21.285730433574596
    vertex 605.0271957716635 1043.6989326637265 21.077074736177828
    vertex 605.006966065233 1043.4446628675698 21.407827512644243
  endloop
endfacet
facet normal -0.04843306275981215 -0.6087614290088286 0.791873576388828
  outer loop
    vertex 603.1643563442095 1073.1132920176713 18.773413671435417
    vertex 605.1451031413501 1073.4446628675698 19.14930628223663
    vertex 603.1488335445064 1073.4446628675698 19.02720920316695
  endloop
endfacet
facet normal -0.04843306275981215 -0.6087614290088286 0.791873576388828
  outer loop
    vertex 605.1451031413501 1073.4446628675698 19.14930628223663
    vertex 603.1643563442095 1073.1132920176713 18.773413671435417
    vertex 605.160625941053 1073.1132920176713 18.895510750504826
  endloop
endfacet
facet normal -0.03716399616613307 -0.7933533402912094 0.607625966230661
  outer loop
    vertex 605.1451031413501 1073.4446628675698 19.14930628223663
    vertex 603.1286038380756 1073.6989326637265 19.357961979633185
    vertex 603.1488335445064 1073.4446628675698 19.02720920316695
  endloop
endfacet
facet normal -0.03716399616613307 -0.7933533402912094 0.607625966230661
  outer loop
    vertex 603.1286038380756 1073.6989326637265 19.357961979633185
    vertex 605.1451031413501 1073.4446628675698 19.14930628223663
    vertex 605.1248734349194 1073.6989326637265 19.480059058702913
  endloop
endfacet
facet normal -0.05640149616590325 -0.3826834323651164 0.9221563109492344
  outer loop
    vertex 603.1741143840378 1072.7274024898354 18.61387113050896
    vertex 605.160625941053 1073.1132920176713 18.895510750504826
    vertex 603.1643563442095 1073.1132920176713 18.773413671435417
  endloop
endfacet
facet normal -0.05640149616590325 -0.3826834323651164 0.9221563109492344
  outer loop
    vertex 605.160625941053 1073.1132920176713 18.895510750504826
    vertex 603.1741143840378 1072.7274024898354 18.61387113050896
    vertex 605.1703839808818 1072.7274024898354 18.735968209578733
  endloop
endfacet
facet normal -0.056401496165903266 0.3826834323651165 0.9221563109492344
  outer loop
    vertex 605.160625941053 1041.5132920176713 18.895510750504826
    vertex 603.1741143840378 1041.8991815455072 18.61387113050896
    vertex 603.1643563442095 1041.5132920176713 18.773413671435417
  endloop
endfacet
facet normal -0.056401496165903266 0.3826834323651165 0.9221563109492344
  outer loop
    vertex 603.1741143840378 1041.8991815455072 18.61387113050896
    vertex 605.160625941053 1041.5132920176713 18.895510750504826
    vertex 605.1703839808818 1041.8991815455072 18.735968209578733
  endloop
endfacet
facet normal -0.023362264650067646 0.9238795325112613 0.3819696506231791
  outer loop
    vertex 603.1050458459794 1040.7678106956087 19.743131745712912
    vertex 605.1248734349194 1040.927651371616 19.480059058702913
    vertex 603.1286038380756 1040.927651371616 19.357961979633185
  endloop
endfacet
facet normal -0.023362264650067646 0.9238795325112613 0.3819696506231791
  outer loop
    vertex 605.1248734349194 1040.927651371616 19.480059058702913
    vertex 603.1050458459794 1040.7678106956087 19.743131745712912
    vertex 605.1013154428231 1040.7678106956087 19.865228824782502
  endloop
endfacet
facet normal -0.06052626081622765 -0.1305261922198291 0.9895956168537725
  outer loop
    vertex 603.1774426697034 1072.3132920176713 18.559454140895706
    vertex 605.1703839808818 1072.7274024898354 18.735968209578733
    vertex 603.1741143840378 1072.7274024898354 18.61387113050896
  endloop
endfacet
facet normal -0.06052626081622765 -0.1305261922198291 0.9895956168537725
  outer loop
    vertex 605.1703839808818 1072.7274024898354 18.735968209578733
    vertex 603.1774426697034 1072.3132920176713 18.559454140895706
    vertex 605.1737122665471 1072.3132920176713 18.681551219965442
  endloop
endfacet
facet normal -0.06052626081622765 0.13052619221982914 0.9895956168537725
  outer loop
    vertex 605.1703839808818 1071.8991815455072 18.735968209578733
    vertex 603.1774426697034 1072.3132920176713 18.559454140895706
    vertex 603.1741143840378 1071.8991815455072 18.61387113050896
  endloop
endfacet
facet normal -0.06052626081622765 0.13052619221982914 0.9895956168537725
  outer loop
    vertex 603.1774426697034 1072.3132920176713 18.559454140895706
    vertex 605.1703839808818 1071.8991815455072 18.735968209578733
    vertex 605.1737122665471 1072.3132920176713 18.681551219965442
  endloop
endfacet
facet normal 0.04843306275985672 -0.6087614290087354 -0.791873576388897
  outer loop
    vertex 603.0106964683893 1043.4446628675698 21.285730433574596
    vertex 604.9914432655299 1043.1132920176713 21.66162304437587
    vertex 602.9951736686862 1043.1132920176713 21.539525965306197
  endloop
endfacet
facet normal 0.04843306275985672 -0.6087614290087354 -0.791873576388897
  outer loop
    vertex 604.9914432655299 1043.1132920176713 21.66162304437587
    vertex 603.0106964683893 1043.4446628675698 21.285730433574596
    vertex 605.006966065233 1043.4446628675698 21.407827512644243
  endloop
endfacet
facet normal -0.04843306275981215 0.6087614290088285 0.791873576388828
  outer loop
    vertex 605.1451031413501 1071.1819211677728 19.14930628223663
    vertex 603.1643563442095 1071.5132920176713 18.773413671435417
    vertex 603.1488335445064 1071.1819211677728 19.02720920316695
  endloop
endfacet
facet normal -0.04843306275981215 0.6087614290088285 0.791873576388828
  outer loop
    vertex 603.1643563442095 1071.5132920176713 18.773413671435417
    vertex 605.1451031413501 1071.1819211677728 19.14930628223663
    vertex 605.160625941053 1071.5132920176713 18.895510750504826
  endloop
endfacet
facet normal 0.05640149616598759 0.3826834323650182 -0.92215631094927
  outer loop
    vertex 604.9816852257014 1041.8991815455072 21.821165585302193
    vertex 602.9951736686862 1041.5132920176713 21.539525965306197
    vertex 602.9854156288575 1041.8991815455072 21.699068506232308
  endloop
endfacet
facet normal 0.05640149616598759 0.3826834323650182 -0.92215631094927
  outer loop
    vertex 602.9951736686862 1041.5132920176713 21.539525965306197
    vertex 604.9816852257014 1041.8991815455072 21.821165585302193
    vertex 604.9914432655299 1041.5132920176713 21.66162304437587
  endloop
endfacet
facet normal -0.007968433406068636 0.9914448613738356 0.13028273456014533
  outer loop
    vertex 603.0797650064477 1070.7132920176714 20.156469818370763
    vertex 605.1013154428231 1070.7678106956087 19.865228824782502
    vertex 603.1050458459794 1070.7678106956087 19.743131745712912
  endloop
endfacet
facet normal -0.007968433406068636 0.9914448613738356 0.13028273456014533
  outer loop
    vertex 605.1013154428231 1070.7678106956087 19.865228824782502
    vertex 603.0797650064477 1070.7132920176714 20.156469818370763
    vertex 605.0760346032915 1070.7132920176714 20.2785668974406
  endloop
endfacet
facet normal 0.007968433406072045 0.9914448613738281 -0.130282734560201
  outer loop
    vertex 603.0544841669162 1040.7678106956087 20.569807891028677
    vertex 605.0760346032915 1040.7132920176714 20.2785668974406
    vertex 603.0797650064477 1040.7132920176714 20.156469818370763
  endloop
endfacet
facet normal 0.007968433406072045 0.9914448613738281 -0.130282734560201
  outer loop
    vertex 605.0760346032915 1040.7132920176714 20.2785668974406
    vertex 603.0544841669162 1040.7678106956087 20.569807891028677
    vertex 605.0507537637599 1040.7678106956087 20.691904970098268
  endloop
endfacet
facet normal -0.03716399616613308 0.7933533402912094 0.607625966230661
  outer loop
    vertex 603.1286038380756 1040.927651371616 19.357961979633185
    vertex 605.1451031413501 1041.1819211677728 19.14930628223663
    vertex 603.1488335445064 1041.1819211677728 19.02720920316695
  endloop
endfacet
facet normal -0.03716399616613308 0.7933533402912094 0.607625966230661
  outer loop
    vertex 605.1451031413501 1041.1819211677728 19.14930628223663
    vertex 603.1286038380756 1040.927651371616 19.357961979633185
    vertex 605.1248734349194 1040.927651371616 19.480059058702913
  endloop
endfacet
facet normal 0.05640149616598758 -0.3826834323650183 -0.92215631094927
  outer loop
    vertex 602.9951736686862 1043.1132920176713 21.539525965306197
    vertex 604.9816852257014 1042.7274024898354 21.821165585302193
    vertex 602.9854156288575 1042.7274024898354 21.699068506232308
  endloop
endfacet
facet normal 0.05640149616598758 -0.3826834323650183 -0.92215631094927
  outer loop
    vertex 604.9816852257014 1042.7274024898354 21.821165585302193
    vertex 602.9951736686862 1043.1132920176713 21.539525965306197
    vertex 604.9914432655299 1043.1132920176713 21.66162304437587
  endloop
endfacet
facet normal 0.023362264650054178 -0.9238795325112358 -0.38196965062324184
  outer loop
    vertex 605.0507537637599 1043.858773339734 20.691904970098268
    vertex 603.03092617482 1043.6989326637265 20.954977657108305
    vertex 603.0544841669162 1043.858773339734 20.569807891028677
  endloop
endfacet
facet normal 0.023362264650054178 -0.9238795325112358 -0.38196965062324184
  outer loop
    vertex 603.03092617482 1043.6989326637265 20.954977657108305
    vertex 605.0507537637599 1043.858773339734 20.691904970098268
    vertex 605.0271957716635 1043.6989326637265 21.077074736177828
  endloop
endfacet
facet normal -0.056401496165903266 0.3826834323651165 0.9221563109492344
  outer loop
    vertex 605.160625941053 1071.5132920176713 18.895510750504826
    vertex 603.1741143840378 1071.8991815455072 18.61387113050896
    vertex 603.1643563442095 1071.5132920176713 18.773413671435417
  endloop
endfacet
facet normal -0.056401496165903266 0.3826834323651165 0.9221563109492344
  outer loop
    vertex 603.1741143840378 1071.8991815455072 18.61387113050896
    vertex 605.160625941053 1071.5132920176713 18.895510750504826
    vertex 605.1703839808818 1071.8991815455072 18.735968209578733
  endloop
endfacet
facet normal -0.023362264650067646 0.9238795325112613 0.3819696506231791
  outer loop
    vertex 603.1050458459794 1070.7678106956087 19.743131745712912
    vertex 605.1248734349194 1070.927651371616 19.480059058702913
    vertex 603.1286038380756 1070.927651371616 19.357961979633185
  endloop
endfacet
facet normal -0.023362264650067646 0.9238795325112613 0.3819696506231791
  outer loop
    vertex 605.1248734349194 1070.927651371616 19.480059058702913
    vertex 603.1050458459794 1070.7678106956087 19.743131745712912
    vertex 605.1013154428231 1070.7678106956087 19.865228824782502
  endloop
endfacet
facet normal -0.06052626081622765 0.13052619221982914 0.9895956168537725
  outer loop
    vertex 605.1703839808818 1041.8991815455072 18.735968209578733
    vertex 603.1774426697034 1042.3132920176713 18.559454140895706
    vertex 603.1741143840378 1041.8991815455072 18.61387113050896
  endloop
endfacet
facet normal -0.06052626081622765 0.13052619221982914 0.9895956168537725
  outer loop
    vertex 603.1774426697034 1042.3132920176713 18.559454140895706
    vertex 605.1703839808818 1041.8991815455072 18.735968209578733
    vertex 605.1737122665471 1042.3132920176713 18.681551219965442
  endloop
endfacet
facet normal 0.03716399616609272 0.7933533402912966 -0.6076259662305494
  outer loop
    vertex 603.0106964683893 1041.1819211677728 21.285730433574596
    vertex 605.0271957716635 1040.927651371616 21.077074736177828
    vertex 603.03092617482 1040.927651371616 20.954977657108305
  endloop
endfacet
facet normal 0.03716399616609272 0.7933533402912966 -0.6076259662305494
  outer loop
    vertex 605.0271957716635 1040.927651371616 21.077074736177828
    vertex 603.0106964683893 1041.1819211677728 21.285730433574596
    vertex 605.006966065233 1041.1819211677728 21.407827512644243
  endloop
endfacet
facet normal 0.03716399616609272 -0.7933533402912966 -0.6076259662305494
  outer loop
    vertex 605.0271957716635 1073.6989326637265 21.077074736177828
    vertex 603.0106964683893 1073.4446628675698 21.285730433574596
    vertex 603.03092617482 1073.6989326637265 20.954977657108305
  endloop
endfacet
facet normal 0.03716399616609272 -0.7933533402912966 -0.6076259662305494
  outer loop
    vertex 603.0106964683893 1073.4446628675698 21.285730433574596
    vertex 605.0271957716635 1073.6989326637265 21.077074736177828
    vertex 605.006966065233 1073.4446628675698 21.407827512644243
  endloop
endfacet
facet normal 0.060526260816246534 -0.13052619222025305 -0.9895956168537153
  outer loop
    vertex 602.9854156288575 1072.7274024898354 21.699068506232308
    vertex 604.9783569400358 1072.3132920176713 21.875582574915562
    vertex 602.9820873431921 1072.3132920176713 21.753485495845847
  endloop
endfacet
facet normal 0.060526260816246534 -0.13052619222025305 -0.9895956168537153
  outer loop
    vertex 604.9783569400358 1072.3132920176713 21.875582574915562
    vertex 602.9854156288575 1072.7274024898354 21.699068506232308
    vertex 604.9816852257014 1072.7274024898354 21.821165585302193
  endloop
endfacet
facet normal 0.0 -1.0 0.0
  outer loop
    vertex 609.6418248769954 1075.1132920176713 1.321943802159529
    vertex 605.3324384693382 1075.1132920176713 16.086400744068612
    vertex 606.2481665623615 1075.1132920176713 1.1143787677409487
  endloop
endfacet
facet normal 0.0 -1.0 0.0
  outer loop
    vertex 605.3324384693382 1075.1132920176713 16.086400744068612
    vertex 609.6418248769954 1075.1132920176713 1.321943802159529
    vertex 608.7260967839727 1075.1132920176713 16.29396577848763
  endloop
endfacet
facet normal 0.05640149616598758 -0.3826834323650183 -0.92215631094927
  outer loop
    vertex 602.9951736686862 1073.1132920176713 21.539525965306197
    vertex 604.9816852257014 1072.7274024898354 21.821165585302193
    vertex 602.9854156288575 1072.7274024898354 21.699068506232308
  endloop
endfacet
facet normal 0.05640149616598758 -0.3826834323650183 -0.92215631094927
  outer loop
    vertex 604.9816852257014 1072.7274024898354 21.821165585302193
    vertex 602.9951736686862 1073.1132920176713 21.539525965306197
    vertex 604.9914432655299 1073.1132920176713 21.66162304437587
  endloop
endfacet
facet normal 0.023362264650054178 -0.9238795325112358 -0.38196965062324184
  outer loop
    vertex 605.0507537637599 1073.858773339734 20.691904970098268
    vertex 603.03092617482 1073.6989326637265 20.954977657108305
    vertex 603.0544841669162 1073.858773339734 20.569807891028677
  endloop
endfacet
facet normal 0.023362264650054178 -0.9238795325112358 -0.38196965062324184
  outer loop
    vertex 603.03092617482 1073.6989326637265 20.954977657108305
    vertex 605.0507537637599 1073.858773339734 20.691904970098268
    vertex 605.0271957716635 1073.6989326637265 21.077074736177828
  endloop
endfacet
facet normal 0.9981347984218674 -3.358626268564524e-27 0.0610485395348528
  outer loop
    vertex 609.6418248769954 1039.5132920176713 1.321943802159529
    vertex 608.7260967839727 1037.3132920176713 16.29396577848763
    vertex 609.6418248769954 1037.3132920176713 1.321943802159529
  endloop
endfacet
facet normal 0.9981347984218674 -3.358626268564524e-27 0.0610485395348528
  outer loop
    vertex 608.7260967839727 1037.3132920176713 16.29396577848763
    vertex 609.6418248769954 1039.5132920176713 1.321943802159529
    vertex 608.7260967839727 1039.5132920176713 16.29396577848763
  endloop
endfacet
facet normal 0.04843306275985672 -0.6087614290087354 -0.791873576388897
  outer loop
    vertex 603.0106964683893 1073.4446628675698 21.285730433574596
    vertex 604.9914432655299 1073.1132920176713 21.66162304437587
    vertex 602.9951736686862 1073.1132920176713 21.539525965306197
  endloop
endfacet
facet normal 0.04843306275985672 -0.6087614290087354 -0.791873576388897
  outer loop
    vertex 604.9914432655299 1073.1132920176713 21.66162304437587
    vertex 603.0106964683893 1073.4446628675698 21.285730433574596
    vertex 605.006966065233 1073.4446628675698 21.407827512644243
  endloop
endfacet
facet normal -0.0 1.0 -0.0
  outer loop
    vertex 605.3324384693382 1039.5132920176713 16.086400744068612
    vertex 609.6418248769954 1039.5132920176713 1.321943802159529
    vertex 606.2481665623615 1039.5132920176713 1.1143787677409487
  endloop
endfacet
facet normal -0.0 1.0 -0.0
  outer loop
    vertex 609.6418248769954 1039.5132920176713 1.321943802159529
    vertex 605.3324384693382 1039.5132920176713 16.086400744068612
    vertex 608.7260967839727 1039.5132920176713 16.29396577848763
  endloop
endfacet
facet normal -0.061048539535003464 -2.054223826921437e-28 0.9981347984218581
  outer loop
    vertex 608.7260967839727 1037.3132920176713 16.29396577848763
    vertex 605.3324384693382 1039.5132920176713 16.086400744068612
    vertex 605.3324384693382 1037.3132920176713 16.086400744068612
  endloop
endfacet
facet normal -0.061048539535003464 -2.054223826921437e-28 0.9981347984218581
  outer loop
    vertex 605.3324384693382 1039.5132920176713 16.086400744068612
    vertex 608.7260967839727 1037.3132920176713 16.29396577848763
    vertex 608.7260967839727 1039.5132920176713 16.29396577848763
  endloop
endfacet
facet normal -0.061048539535003464 2.054223826921437e-28 0.9981347984218581
  outer loop
    vertex 608.7260967839727 1075.1132920176713 16.29396577848763
    vertex 605.3324384693382 1077.3132920176713 16.086400744068612
    vertex 605.3324384693382 1075.1132920176713 16.086400744068612
  endloop
endfacet
facet normal -0.061048539535003464 2.054223826921437e-28 0.9981347984218581
  outer loop
    vertex 605.3324384693382 1077.3132920176713 16.086400744068612
    vertex 608.7260967839727 1075.1132920176713 16.29396577848763
    vertex 608.7260967839727 1077.3132920176713 16.29396577848763
  endloop
endfacet
facet normal 0.06104853953488264 0.0 -0.9981347984218654
  outer loop
    vertex 609.6418248769954 1039.5132920176713 1.321943802159529
    vertex 606.2481665623615 1037.3132920176713 1.1143787677409487
    vertex 606.2481665623615 1039.5132920176713 1.1143787677409487
  endloop
endfacet
facet normal 0.06104853953488264 0.0 -0.9981347984218654
  outer loop
    vertex 606.2481665623615 1037.3132920176713 1.1143787677409487
    vertex 609.6418248769954 1039.5132920176713 1.321943802159529
    vertex 609.6418248769954 1037.3132920176713 1.321943802159529
  endloop
endfacet
facet normal 0.05640149616598759 0.3826834323650182 -0.92215631094927
  outer loop
    vertex 604.9816852257014 1071.8991815455072 21.821165585302193
    vertex 602.9951736686862 1071.5132920176713 21.539525965306197
    vertex 602.9854156288575 1071.8991815455072 21.699068506232308
  endloop
endfacet
facet normal 0.05640149616598759 0.3826834323650182 -0.92215631094927
  outer loop
    vertex 602.9951736686862 1071.5132920176713 21.539525965306197
    vertex 604.9816852257014 1071.8991815455072 21.821165585302193
    vertex 604.9914432655299 1071.5132920176713 21.66162304437587
  endloop
endfacet
facet normal 0.06104853953488264 0.0 -0.9981347984218654
  outer loop
    vertex 609.6418248769954 1077.3132920176713 1.321943802159529
    vertex 606.2481665623615 1075.1132920176713 1.1143787677409487
    vertex 606.2481665623615 1077.3132920176713 1.1143787677409487
  endloop
endfacet
facet normal 0.06104853953488264 0.0 -0.9981347984218654
  outer loop
    vertex 606.2481665623615 1075.1132920176713 1.1143787677409487
    vertex 609.6418248769954 1077.3132920176713 1.321943802159529
    vertex 609.6418248769954 1075.1132920176713 1.321943802159529
  endloop
endfacet
facet normal 0.03716399616609272 0.7933533402912966 -0.6076259662305494
  outer loop
    vertex 603.0106964683893 1071.1819211677728 21.285730433574596
    vertex 605.0271957716635 1070.927651371616 21.077074736177828
    vertex 603.03092617482 1070.927651371616 20.954977657108305
  endloop
endfacet
facet normal 0.03716399616609272 0.7933533402912966 -0.6076259662305494
  outer loop
    vertex 605.0271957716635 1070.927651371616 21.077074736177828
    vertex 603.0106964683893 1071.1819211677728 21.285730433574596
    vertex 605.006966065233 1071.1819211677728 21.407827512644243
  endloop
endfacet
facet normal 0.9981347984218674 -3.358626268564524e-27 0.0610485395348528
  outer loop
    vertex 609.6418248769954 1077.3132920176713 1.321943802159529
    vertex 608.7260967839727 1075.1132920176713 16.29396577848763
    vertex 609.6418248769954 1075.1132920176713 1.321943802159529
  endloop
endfacet
facet normal 0.9981347984218674 -3.358626268564524e-27 0.0610485395348528
  outer loop
    vertex 608.7260967839727 1075.1132920176713 16.29396577848763
    vertex 609.6418248769954 1077.3132920176713 1.321943802159529
    vertex 608.7260967839727 1077.3132920176713 16.29396577848763
  endloop
endfacet
facet normal 0.04843306275985673 0.6087614290087354 -0.791873576388897
  outer loop
    vertex 604.9914432655299 1071.5132920176713 21.66162304437587
    vertex 603.0106964683893 1071.1819211677728 21.285730433574596
    vertex 602.9951736686862 1071.5132920176713 21.539525965306197
  endloop
endfacet
facet normal 0.04843306275985673 0.6087614290087354 -0.791873576388897
  outer loop
    vertex 603.0106964683893 1071.1819211677728 21.285730433574596
    vertex 604.9914432655299 1071.5132920176713 21.66162304437587
    vertex 605.006966065233 1071.1819211677728 21.407827512644243
  endloop
endfacet
facet normal 0.06052626081624652 0.13052619222025305 -0.9895956168537153
  outer loop
    vertex 604.9783569400358 1072.3132920176713 21.875582574915562
    vertex 602.9854156288575 1071.8991815455072 21.699068506232308
    vertex 602.9820873431921 1072.3132920176713 21.753485495845847
  endloop
endfacet
facet normal 0.06052626081624652 0.13052619222025305 -0.9895956168537153
  outer loop
    vertex 602.9854156288575 1071.8991815455072 21.699068506232308
    vertex 604.9783569400358 1072.3132920176713 21.875582574915562
    vertex 604.9816852257014 1071.8991815455072 21.821165585302193
  endloop
endfacet
endsolid Main_Body_RevB1
