solid Main_Body_RevB1
facet normal 0.3438439052840374 -0.9390268200637413 0.0
  outer loop
    vertex 590.7021241667828 1104.13156385451 1.9999999999999998
    vertex 590.0402591526196 1103.889208421866 0.39999999999999997
    vertex 590.7021241667828 1104.13156385451 0.39999999999999997
  endloop
endfacet
facet normal 0.3438439052840374 -0.9390268200637413 0.0
  outer loop
    vertex 590.0402591526196 1103.889208421866 0.39999999999999997
    vertex 590.7021241667828 1104.13156385451 1.9999999999999998
    vertex 590.0402591526196 1103.889208421866 1.9999999999999998
  endloop
endfacet
facet normal 0.57516573322055 -0.8180369058476931 0.0
  outer loop
    vertex 591.278710475828 1104.5369644969946 1.9999999999999998
    vertex 590.7021241667828 1104.13156385451 0.39999999999999997
    vertex 591.278710475828 1104.5369644969946 0.39999999999999997
  endloop
endfacet
facet normal 0.57516573322055 -0.8180369058476931 0.0
  outer loop
    vertex 590.7021241667828 1104.13156385451 0.39999999999999997
    vertex 591.278710475828 1104.5369644969946 1.9999999999999998
    vertex 590.7021241667828 1104.13156385451 1.9999999999999998
  endloop
endfacet
facet normal -0.42085787508689615 -0.9071265892792156 0.0
  outer loop
    vertex 588.6438508078062 1103.947460866953 1.9999999999999998
    vertex 588.0044703981813 1104.2440989368179 0.39999999999999997
    vertex 588.6438508078062 1103.947460866953 0.39999999999999997
  endloop
endfacet
facet normal -0.42085787508689615 -0.9071265892792156 0.0
  outer loop
    vertex 588.0044703981813 1104.2440989368179 0.39999999999999997
    vertex 588.6438508078062 1103.947460866953 1.9999999999999998
    vertex 588.0044703981813 1104.2440989368179 1.9999999999999998
  endloop
endfacet
facet normal 0.17173585311940318 0.985143033652145 -0.0
  outer loop
    vertex 589.5632906048858 1109.2217218584892 1.9999999999999998
    vertex 590.2576602373493 1109.1006753128224 0.39999999999999997
    vertex 589.5632906048858 1109.2217218584892 0.39999999999999997
  endloop
endfacet
facet normal 0.17173585311940318 0.985143033652145 -0.0
  outer loop
    vertex 590.2576602373493 1109.1006753128224 0.39999999999999997
    vertex 589.5632906048858 1109.2217218584892 1.9999999999999998
    vertex 590.2576602373493 1109.1006753128224 1.9999999999999998
  endloop
endfacet
facet normal -0.6412991283679297 -0.76729096694444 0.0
  outer loop
    vertex 588.0044703981813 1104.2440989368179 1.9999999999999998
    vertex 587.4636519296848 1104.6961131366375 0.39999999999999997
    vertex 588.0044703981813 1104.2440989368179 0.39999999999999997
  endloop
endfacet
facet normal -0.6412991283679297 -0.76729096694444 0.0
  outer loop
    vertex 587.4636519296848 1104.6961131366375 0.39999999999999997
    vertex 588.0044703981813 1104.2440989368179 1.9999999999999998
    vertex 587.4636519296848 1104.6961131366375 1.9999999999999998
  endloop
endfacet
facet normal 0.9960236083075953 0.08908968343146352 -0.0
  outer loop
    vertex 592.0856151905995 1107.1135717199295 0.39999999999999997
    vertex 592.1484092911793 1106.4115330075797 1.9999999999999998
    vertex 592.1484092911793 1106.4115330075797 0.39999999999999997
  endloop
endfacet
facet normal 0.9960236083075953 0.08908968343146352 -0.0
  outer loop
    vertex 592.1484092911793 1106.4115330075797 1.9999999999999998
    vertex 592.0856151905995 1107.1135717199295 0.39999999999999997
    vertex 592.0856151905995 1107.1135717199295 1.9999999999999998
  endloop
endfacet
facet normal 0.9071265892791667 -0.42085787508700145 -0.0
  outer loop
    vertex 592.0273627455125 1105.7171633751161 0.39999999999999997
    vertex 591.7307246756475 1105.0777829654912 1.9999999999999998
    vertex 591.7307246756475 1105.0777829654912 0.39999999999999997
  endloop
endfacet
facet normal 0.9071265892791667 -0.42085787508700145 -0.0
  outer loop
    vertex 591.7307246756475 1105.0777829654912 1.9999999999999998
    vertex 592.0273627455125 1105.7171633751161 0.39999999999999997
    vertex 592.0273627455125 1105.7171633751161 1.9999999999999998
  endloop
endfacet
facet normal 0.42085787508689615 0.9071265892792156 -0.0
  outer loop
    vertex 590.2576602373493 1109.1006753128224 1.9999999999999998
    vertex 590.8970406469742 1108.8040372429575 0.39999999999999997
    vertex 590.2576602373493 1109.1006753128224 0.39999999999999997
  endloop
endfacet
facet normal 0.42085787508689615 0.9071265892792156 -0.0
  outer loop
    vertex 590.8970406469742 1108.8040372429575 0.39999999999999997
    vertex 590.2576602373493 1109.1006753128224 1.9999999999999998
    vertex 590.8970406469742 1108.8040372429575 1.9999999999999998
  endloop
endfacet
facet normal 0.08908968343160188 -0.9960236083075827 0.0
  outer loop
    vertex 590.0402591526196 1103.889208421866 1.9999999999999998
    vertex 589.3382204402698 1103.8264143212862 0.39999999999999997
    vertex 590.0402591526196 1103.889208421866 0.39999999999999997
  endloop
endfacet
facet normal 0.08908968343160188 -0.9960236083075827 0.0
  outer loop
    vertex 589.3382204402698 1103.8264143212862 0.39999999999999997
    vertex 590.0402591526196 1103.889208421866 1.9999999999999998
    vertex 589.3382204402698 1103.8264143212862 1.9999999999999998
  endloop
endfacet
facet normal -0.3438439052840374 0.9390268200637413 -0.0
  outer loop
    vertex 588.1993868783727 1108.9165723252654 1.9999999999999998
    vertex 588.8612518925361 1109.1589277579094 0.39999999999999997
    vertex 588.1993868783727 1108.9165723252654 0.39999999999999997
  endloop
endfacet
facet normal -0.3438439052840374 0.9390268200637413 -0.0
  outer loop
    vertex 588.8612518925361 1109.1589277579094 0.39999999999999997
    vertex 588.1993868783727 1108.9165723252654 1.9999999999999998
    vertex 588.8612518925361 1109.1589277579094 1.9999999999999998
  endloop
endfacet
facet normal 0.0 0.0 -1.0
  outer loop
    vertex 588.1993868783727 1108.9165723252654 0.39999999999999997
    vertex 587.8454088022249 1106.591036589482 0.39999999999999997
    vertex 587.6228005693276 1108.5111716827807 0.39999999999999997
  endloop
endfacet
facet normal 0.0 0.0 -1.0
  outer loop
    vertex 587.8454088022249 1106.591036589482 0.39999999999999997
    vertex 588.1993868783727 1108.9165723252654 0.39999999999999997
    vertex 587.9174423883576 1107.004248998414 0.39999999999999997
  endloop
endfacet
facet normal 0.0 0.0 -1.0
  outer loop
    vertex 587.9174423883576 1107.004248998414 0.39999999999999997
    vertex 588.1993868783727 1108.9165723252654 0.39999999999999997
    vertex 588.0939687306674 1107.384737871966 0.39999999999999997
  endloop
endfacet
facet normal 0.0 0.0 -1.0
  outer loop
    vertex 588.0939687306674 1107.384737871966 0.39999999999999997
    vertex 588.1993868783727 1108.9165723252654 0.39999999999999997
    vertex 588.3629578506497 1107.7065735221938 0.39999999999999997
  endloop
endfacet
facet normal 0.0 0.0 -1.0
  outer loop
    vertex 588.3629578506497 1107.7065735221938 0.39999999999999997
    vertex 588.1993868783727 1108.9165723252654 0.39999999999999997
    vertex 588.8612518925361 1109.1589277579094 0.39999999999999997
  endloop
endfacet
facet normal 0.0 0.0 -1.0
  outer loop
    vertex 588.3629578506497 1107.7065735221938 0.39999999999999997
    vertex 588.8612518925361 1109.1589277579094 0.39999999999999997
    vertex 588.7060785843033 1107.9478233813923 0.39999999999999997
  endloop
endfacet
facet normal 0.0 0.0 -1.0
  outer loop
    vertex 588.7060785843033 1107.9478233813923 0.39999999999999997
    vertex 588.8612518925361 1109.1589277579094 0.39999999999999997
    vertex 589.0999478206636 1108.092046670342 0.39999999999999997
  endloop
endfacet
facet normal 0.0 0.0 -1.0
  outer loop
    vertex 589.0999478206636 1108.092046670342 0.39999999999999997
    vertex 588.8612518925361 1109.1589277579094 0.39999999999999997
    vertex 589.5632906048858 1109.2217218584892 0.39999999999999997
  endloop
endfacet
facet normal 0.0 0.0 -1.0
  outer loop
    vertex 589.0999478206636 1108.092046670342 0.39999999999999997
    vertex 589.5632906048858 1109.2217218584892 0.39999999999999997
    vertex 589.517724022172 1108.1294148102406 0.39999999999999997
  endloop
endfacet
facet normal 0.0 0.0 -1.0
  outer loop
    vertex 589.517724022172 1108.1294148102406 0.39999999999999997
    vertex 589.5632906048858 1109.2217218584892 0.39999999999999997
    vertex 589.9309364311039 1108.0573812241082 0.39999999999999997
  endloop
endfacet
facet normal 0.0 0.0 -1.0
  outer loop
    vertex 589.9309364311039 1108.0573812241082 0.39999999999999997
    vertex 589.5632906048858 1109.2217218584892 0.39999999999999997
    vertex 590.2576602373493 1109.1006753128224 0.39999999999999997
  endloop
endfacet
facet normal 0.0 0.0 -1.0
  outer loop
    vertex 589.9309364311039 1108.0573812241082 0.39999999999999997
    vertex 590.2576602373493 1109.1006753128224 0.39999999999999997
    vertex 590.3114253046562 1107.8808548817983 0.39999999999999997
  endloop
endfacet
facet normal 0.0 0.0 -1.0
  outer loop
    vertex 590.3114253046562 1107.8808548817983 0.39999999999999997
    vertex 590.2576602373493 1109.1006753128224 0.39999999999999997
    vertex 590.8970406469742 1108.8040372429575 0.39999999999999997
  endloop
endfacet
facet normal 0.0 0.0 -1.0
  outer loop
    vertex 590.3114253046562 1107.8808548817983 0.39999999999999997
    vertex 590.8970406469742 1108.8040372429575 0.39999999999999997
    vertex 590.6332609548838 1107.6118657618158 0.39999999999999997
  endloop
endfacet
facet normal 0.0 0.0 -1.0
  outer loop
    vertex 590.6332609548838 1107.6118657618158 0.39999999999999997
    vertex 590.8970406469742 1108.8040372429575 0.39999999999999997
    vertex 590.8745108140826 1107.2687450281621 0.39999999999999997
  endloop
endfacet
facet normal 0.0 0.0 -1.0
  outer loop
    vertex 590.8745108140826 1107.2687450281621 0.39999999999999997
    vertex 590.8970406469742 1108.8040372429575 0.39999999999999997
    vertex 591.018734103032 1106.874875791802 0.39999999999999997
  endloop
endfacet
facet normal 0.0 0.0 -1.0
  outer loop
    vertex 591.018734103032 1106.874875791802 0.39999999999999997
    vertex 590.8970406469742 1108.8040372429575 0.39999999999999997
    vertex 591.4378591154708 1108.352023043138 0.39999999999999997
  endloop
endfacet
facet normal 0.0 0.0 -1.0
  outer loop
    vertex 591.018734103032 1106.874875791802 0.39999999999999997
    vertex 591.4378591154708 1108.352023043138 0.39999999999999997
    vertex 591.0561022429307 1106.4570995902934 0.39999999999999997
  endloop
endfacet
facet normal 0.0 0.0 -1.0
  outer loop
    vertex 591.0561022429307 1106.4570995902934 0.39999999999999997
    vertex 591.4378591154708 1108.352023043138 0.39999999999999997
    vertex 591.278710475828 1104.5369644969946 0.39999999999999997
  endloop
endfacet
facet normal 0.0 0.0 -1.0
  outer loop
    vertex 591.278710475828 1104.5369644969946 0.39999999999999997
    vertex 591.4378591154708 1108.352023043138 0.39999999999999997
    vertex 591.7307246756475 1105.0777829654912 0.39999999999999997
  endloop
endfacet
facet normal 0.0 0.0 -1.0
  outer loop
    vertex 591.7307246756475 1105.0777829654912 0.39999999999999997
    vertex 591.4378591154708 1108.352023043138 0.39999999999999997
    vertex 591.8432597579555 1107.7754367340926 0.39999999999999997
  endloop
endfacet
facet normal 0.0 0.0 -1.0
  outer loop
    vertex 591.7307246756475 1105.0777829654912 0.39999999999999997
    vertex 591.8432597579555 1107.7754367340926 0.39999999999999997
    vertex 592.0273627455125 1105.7171633751161 0.39999999999999997
  endloop
endfacet
facet normal 0.0 0.0 -1.0
  outer loop
    vertex 592.0273627455125 1105.7171633751161 0.39999999999999997
    vertex 591.8432597579555 1107.7754367340926 0.39999999999999997
    vertex 592.0856151905995 1107.1135717199295 0.39999999999999997
  endloop
endfacet
facet normal 0.0 0.0 -1.0
  outer loop
    vertex 592.0273627455125 1105.7171633751161 0.39999999999999997
    vertex 592.0856151905995 1107.1135717199295 0.39999999999999997
    vertex 592.1484092911793 1106.4115330075797 0.39999999999999997
  endloop
endfacet
facet normal 0.0 0.0 -1.0
  outer loop
    vertex 586.874148299643 1107.3309728046593 0.39999999999999997
    vertex 586.8158958545561 1105.934564459846 0.39999999999999997
    vertex 586.7531017539764 1106.6366031721957 0.39999999999999997
  endloop
endfacet
facet normal 0.0 0.0 -1.0
  outer loop
    vertex 586.8158958545561 1105.934564459846 0.39999999999999997
    vertex 586.874148299643 1107.3309728046593 0.39999999999999997
    vertex 587.0582512872 1105.2726994456827 0.39999999999999997
  endloop
endfacet
facet normal 0.0 0.0 -1.0
  outer loop
    vertex 587.0582512872 1105.2726994456827 0.39999999999999997
    vertex 586.874148299643 1107.3309728046593 0.39999999999999997
    vertex 587.170786369508 1107.9703532142842 0.39999999999999997
  endloop
endfacet
facet normal 0.0 0.0 -1.0
  outer loop
    vertex 587.0582512872 1105.2726994456827 0.39999999999999997
    vertex 587.170786369508 1107.9703532142842 0.39999999999999997
    vertex 587.4636519296848 1104.6961131366375 0.39999999999999997
  endloop
endfacet
facet normal 0.0 0.0 -1.0
  outer loop
    vertex 587.4636519296848 1104.6961131366375 0.39999999999999997
    vertex 587.170786369508 1107.9703532142842 0.39999999999999997
    vertex 587.6228005693276 1108.5111716827807 0.39999999999999997
  endloop
endfacet
facet normal 0.0 0.0 -1.0
  outer loop
    vertex 587.4636519296848 1104.6961131366375 0.39999999999999997
    vertex 587.6228005693276 1108.5111716827807 0.39999999999999997
    vertex 588.0044703981813 1104.2440989368179 0.39999999999999997
  endloop
endfacet
facet normal 0.0 0.0 -1.0
  outer loop
    vertex 588.0044703981813 1104.2440989368179 0.39999999999999997
    vertex 587.6228005693276 1108.5111716827807 0.39999999999999997
    vertex 587.8454088022249 1106.591036589482 0.39999999999999997
  endloop
endfacet
facet normal 0.0 0.0 -1.0
  outer loop
    vertex 588.0044703981813 1104.2440989368179 0.39999999999999997
    vertex 587.8454088022249 1106.591036589482 0.39999999999999997
    vertex 587.8827769421237 1106.1732603879734 0.39999999999999997
  endloop
endfacet
facet normal 0.0 0.0 -1.0
  outer loop
    vertex 588.0044703981813 1104.2440989368179 0.39999999999999997
    vertex 587.8827769421237 1106.1732603879734 0.39999999999999997
    vertex 588.027000231073 1105.7793911516133 0.39999999999999997
  endloop
endfacet
facet normal 0.0 0.0 -1.0
  outer loop
    vertex 588.0044703981813 1104.2440989368179 0.39999999999999997
    vertex 588.027000231073 1105.7793911516133 0.39999999999999997
    vertex 588.6438508078062 1103.947460866953 0.39999999999999997
  endloop
endfacet
facet normal 0.0 0.0 -1.0
  outer loop
    vertex 588.6438508078062 1103.947460866953 0.39999999999999997
    vertex 588.027000231073 1105.7793911516133 0.39999999999999997
    vertex 588.2682500902717 1105.4362704179596 0.39999999999999997
  endloop
endfacet
facet normal 0.0 0.0 -1.0
  outer loop
    vertex 588.6438508078062 1103.947460866953 0.39999999999999997
    vertex 588.2682500902717 1105.4362704179596 0.39999999999999997
    vertex 588.5900857404995 1105.1672812979773 0.39999999999999997
  endloop
endfacet
facet normal 0.0 0.0 -1.0
  outer loop
    vertex 588.6438508078062 1103.947460866953 0.39999999999999997
    vertex 588.5900857404995 1105.1672812979773 0.39999999999999997
    vertex 588.9705746140518 1104.9907549556674 0.39999999999999997
  endloop
endfacet
facet normal 0.0 0.0 -1.0
  outer loop
    vertex 588.6438508078062 1103.947460866953 0.39999999999999997
    vertex 588.9705746140518 1104.9907549556674 0.39999999999999997
    vertex 589.3382204402698 1103.8264143212862 0.39999999999999997
  endloop
endfacet
facet normal 0.0 0.0 -1.0
  outer loop
    vertex 589.3382204402698 1103.8264143212862 0.39999999999999997
    vertex 588.9705746140518 1104.9907549556674 0.39999999999999997
    vertex 589.3837870229835 1104.9187213695348 0.39999999999999997
  endloop
endfacet
facet normal 0.0 0.0 -1.0
  outer loop
    vertex 589.3382204402698 1103.8264143212862 0.39999999999999997
    vertex 589.3837870229835 1104.9187213695348 0.39999999999999997
    vertex 590.0402591526196 1103.889208421866 0.39999999999999997
  endloop
endfacet
facet normal 0.0 0.0 -1.0
  outer loop
    vertex 590.0402591526196 1103.889208421866 0.39999999999999997
    vertex 589.3837870229835 1104.9187213695348 0.39999999999999997
    vertex 589.801563224492 1104.9560895094337 0.39999999999999997
  endloop
endfacet
facet normal 0.0 0.0 -1.0
  outer loop
    vertex 590.0402591526196 1103.889208421866 0.39999999999999997
    vertex 589.801563224492 1104.9560895094337 0.39999999999999997
    vertex 590.1954324608522 1105.1003127983831 0.39999999999999997
  endloop
endfacet
facet normal 0.0 0.0 -1.0
  outer loop
    vertex 590.0402591526196 1103.889208421866 0.39999999999999997
    vertex 590.1954324608522 1105.1003127983831 0.39999999999999997
    vertex 590.7021241667828 1104.13156385451 0.39999999999999997
  endloop
endfacet
facet normal 0.0 0.0 -1.0
  outer loop
    vertex 590.7021241667828 1104.13156385451 0.39999999999999997
    vertex 590.1954324608522 1105.1003127983831 0.39999999999999997
    vertex 590.5385531945059 1105.3415626575816 0.39999999999999997
  endloop
endfacet
facet normal 0.0 0.0 -1.0
  outer loop
    vertex 590.7021241667828 1104.13156385451 0.39999999999999997
    vertex 590.5385531945059 1105.3415626575816 0.39999999999999997
    vertex 590.8075423144882 1105.6633983078093 0.39999999999999997
  endloop
endfacet
facet normal 0.0 0.0 -1.0
  outer loop
    vertex 590.7021241667828 1104.13156385451 0.39999999999999997
    vertex 590.8075423144882 1105.6633983078093 0.39999999999999997
    vertex 591.278710475828 1104.5369644969946 0.39999999999999997
  endloop
endfacet
facet normal 0.0 0.0 -1.0
  outer loop
    vertex 591.278710475828 1104.5369644969946 0.39999999999999997
    vertex 590.8075423144882 1105.6633983078093 0.39999999999999997
    vertex 590.9840686567981 1106.0438871813615 0.39999999999999997
  endloop
endfacet
facet normal 0.0 0.0 -1.0
  outer loop
    vertex 591.278710475828 1104.5369644969946 0.39999999999999997
    vertex 590.9840686567981 1106.0438871813615 0.39999999999999997
    vertex 591.0561022429307 1106.4570995902934 0.39999999999999997
  endloop
endfacet
facet normal -0.17173585311940318 -0.985143033652145 0.0
  outer loop
    vertex 589.3382204402698 1103.8264143212862 1.9999999999999998
    vertex 588.6438508078062 1103.947460866953 0.39999999999999997
    vertex 589.3382204402698 1103.8264143212862 0.39999999999999997
  endloop
endfacet
facet normal -0.17173585311940318 -0.985143033652145 0.0
  outer loop
    vertex 588.6438508078062 1103.947460866953 0.39999999999999997
    vertex 589.3382204402698 1103.8264143212862 1.9999999999999998
    vertex 588.6438508078062 1103.947460866953 1.9999999999999998
  endloop
endfacet
facet normal -0.7672909669443772 0.6412991283680051 0.0
  outer loop
    vertex 587.6228005693276 1108.5111716827807 1.9999999999999998
    vertex 587.170786369508 1107.9703532142842 0.39999999999999997
    vertex 587.170786369508 1107.9703532142842 1.9999999999999998
  endloop
endfacet
facet normal -0.7672909669443772 0.6412991283680051 0.0
  outer loop
    vertex 587.170786369508 1107.9703532142842 0.39999999999999997
    vertex 587.6228005693276 1108.5111716827807 1.9999999999999998
    vertex 587.6228005693276 1108.5111716827807 0.39999999999999997
  endloop
endfacet
facet normal -0.8180369058477209 -0.5751657332205101 0.0
  outer loop
    vertex 590.6332609548838 1107.6118657618158 1.9999999999999998
    vertex 590.8745108140826 1107.2687450281621 0.39999999999999997
    vertex 590.8745108140826 1107.2687450281621 1.9999999999999998
  endloop
endfacet
facet normal -0.8180369058477209 -0.5751657332205101 0.0
  outer loop
    vertex 590.8745108140826 1107.2687450281621 0.39999999999999997
    vertex 590.6332609548838 1107.6118657618158 1.9999999999999998
    vertex 590.6332609548838 1107.6118657618158 0.39999999999999997
  endloop
endfacet
facet normal 0.6412991283679297 0.76729096694444 -0.0
  outer loop
    vertex 590.8970406469742 1108.8040372429575 1.9999999999999998
    vertex 591.4378591154708 1108.352023043138 0.39999999999999997
    vertex 590.8970406469742 1108.8040372429575 0.39999999999999997
  endloop
endfacet
facet normal 0.6412991283679297 0.76729096694444 -0.0
  outer loop
    vertex 591.4378591154708 1108.352023043138 0.39999999999999997
    vertex 590.8970406469742 1108.8040372429575 1.9999999999999998
    vertex 591.4378591154708 1108.352023043138 1.9999999999999998
  endloop
endfacet
facet normal -0.57516573322055 0.8180369058476931 -0.0
  outer loop
    vertex 587.6228005693276 1108.5111716827807 1.9999999999999998
    vertex 588.1993868783727 1108.9165723252654 0.39999999999999997
    vertex 587.6228005693276 1108.5111716827807 0.39999999999999997
  endloop
endfacet
facet normal -0.57516573322055 0.8180369058476931 -0.0
  outer loop
    vertex 588.1993868783727 1108.9165723252654 0.39999999999999997
    vertex 587.6228005693276 1108.5111716827807 1.9999999999999998
    vertex 588.1993868783727 1108.9165723252654 1.9999999999999998
  endloop
endfacet
facet normal -0.08908968343182849 0.9960236083075625 -0.0
  outer loop
    vertex 589.3837870229835 1104.9187213695348 1.9999999999999998
    vertex 589.801563224492 1104.9560895094337 0.39999999999999997
    vertex 589.3837870229835 1104.9187213695348 0.39999999999999997
  endloop
endfacet
facet normal -0.08908968343182849 0.9960236083075625 -0.0
  outer loop
    vertex 589.801563224492 1104.9560895094337 0.39999999999999997
    vertex 589.3837870229835 1104.9187213695348 1.9999999999999998
    vertex 589.801563224492 1104.9560895094337 1.9999999999999998
  endloop
endfacet
facet normal 0.9071265892791616 -0.42085787508701233 -0.0
  outer loop
    vertex 588.0939687306674 1107.384737871966 0.39999999999999997
    vertex 587.9174423883576 1107.004248998414 1.9999999999999998
    vertex 587.9174423883576 1107.004248998414 0.39999999999999997
  endloop
endfacet
facet normal 0.9071265892791616 -0.42085787508701233 -0.0
  outer loop
    vertex 587.9174423883576 1107.004248998414 1.9999999999999998
    vertex 588.0939687306674 1107.384737871966 0.39999999999999997
    vertex 588.0939687306674 1107.384737871966 1.9999999999999998
  endloop
endfacet
facet normal 0.0 0.0 1.0
  outer loop
    vertex 586.8158958545561 1105.934564459846 1.9999999999999998
    vertex 586.874148299643 1107.3309728046593 1.9999999999999998
    vertex 586.7531017539764 1106.6366031721957 1.9999999999999998
  endloop
endfacet
facet normal 0.0 0.0 1.0
  outer loop
    vertex 586.874148299643 1107.3309728046593 1.9999999999999998
    vertex 586.8158958545561 1105.934564459846 1.9999999999999998
    vertex 587.0582512872 1105.2726994456827 1.9999999999999998
  endloop
endfacet
facet normal 0.0 0.0 1.0
  outer loop
    vertex 586.874148299643 1107.3309728046593 1.9999999999999998
    vertex 587.0582512872 1105.2726994456827 1.9999999999999998
    vertex 587.170786369508 1107.9703532142842 1.9999999999999998
  endloop
endfacet
facet normal 0.0 0.0 1.0
  outer loop
    vertex 587.170786369508 1107.9703532142842 1.9999999999999998
    vertex 587.0582512872 1105.2726994456827 1.9999999999999998
    vertex 587.4636519296848 1104.6961131366375 1.9999999999999998
  endloop
endfacet
facet normal 0.0 0.0 1.0
  outer loop
    vertex 587.170786369508 1107.9703532142842 1.9999999999999998
    vertex 587.4636519296848 1104.6961131366375 1.9999999999999998
    vertex 587.6228005693276 1108.5111716827807 1.9999999999999998
  endloop
endfacet
facet normal 0.0 0.0 1.0
  outer loop
    vertex 587.6228005693276 1108.5111716827807 1.9999999999999998
    vertex 587.4636519296848 1104.6961131366375 1.9999999999999998
    vertex 588.0044703981813 1104.2440989368179 1.9999999999999998
  endloop
endfacet
facet normal 0.0 0.0 1.0
  outer loop
    vertex 587.6228005693276 1108.5111716827807 1.9999999999999998
    vertex 588.0044703981813 1104.2440989368179 1.9999999999999998
    vertex 587.8454088022249 1106.591036589482 1.9999999999999998
  endloop
endfacet
facet normal 0.0 0.0 1.0
  outer loop
    vertex 587.8454088022249 1106.591036589482 1.9999999999999998
    vertex 588.0044703981813 1104.2440989368179 1.9999999999999998
    vertex 587.8827769421237 1106.1732603879734 1.9999999999999998
  endloop
endfacet
facet normal 0.0 0.0 1.0
  outer loop
    vertex 587.8827769421237 1106.1732603879734 1.9999999999999998
    vertex 588.0044703981813 1104.2440989368179 1.9999999999999998
    vertex 588.027000231073 1105.7793911516133 1.9999999999999998
  endloop
endfacet
facet normal 0.0 0.0 1.0
  outer loop
    vertex 588.027000231073 1105.7793911516133 1.9999999999999998
    vertex 588.0044703981813 1104.2440989368179 1.9999999999999998
    vertex 588.6438508078062 1103.947460866953 1.9999999999999998
  endloop
endfacet
facet normal 0.0 0.0 1.0
  outer loop
    vertex 588.027000231073 1105.7793911516133 1.9999999999999998
    vertex 588.6438508078062 1103.947460866953 1.9999999999999998
    vertex 588.2682500902717 1105.4362704179596 1.9999999999999998
  endloop
endfacet
facet normal 0.0 0.0 1.0
  outer loop
    vertex 588.2682500902717 1105.4362704179596 1.9999999999999998
    vertex 588.6438508078062 1103.947460866953 1.9999999999999998
    vertex 588.5900857404995 1105.1672812979773 1.9999999999999998
  endloop
endfacet
facet normal 0.0 0.0 1.0
  outer loop
    vertex 588.5900857404995 1105.1672812979773 1.9999999999999998
    vertex 588.6438508078062 1103.947460866953 1.9999999999999998
    vertex 588.9705746140518 1104.9907549556674 1.9999999999999998
  endloop
endfacet
facet normal 0.0 0.0 1.0
  outer loop
    vertex 588.9705746140518 1104.9907549556674 1.9999999999999998
    vertex 588.6438508078062 1103.947460866953 1.9999999999999998
    vertex 589.3382204402698 1103.8264143212862 1.9999999999999998
  endloop
endfacet
facet normal 0.0 0.0 1.0
  outer loop
    vertex 588.9705746140518 1104.9907549556674 1.9999999999999998
    vertex 589.3382204402698 1103.8264143212862 1.9999999999999998
    vertex 589.3837870229835 1104.9187213695348 1.9999999999999998
  endloop
endfacet
facet normal 0.0 0.0 1.0
  outer loop
    vertex 589.3837870229835 1104.9187213695348 1.9999999999999998
    vertex 589.3382204402698 1103.8264143212862 1.9999999999999998
    vertex 590.0402591526196 1103.889208421866 1.9999999999999998
  endloop
endfacet
facet normal 0.0 0.0 1.0
  outer loop
    vertex 589.3837870229835 1104.9187213695348 1.9999999999999998
    vertex 590.0402591526196 1103.889208421866 1.9999999999999998
    vertex 589.801563224492 1104.9560895094337 1.9999999999999998
  endloop
endfacet
facet normal 0.0 0.0 1.0
  outer loop
    vertex 589.801563224492 1104.9560895094337 1.9999999999999998
    vertex 590.0402591526196 1103.889208421866 1.9999999999999998
    vertex 590.1954324608522 1105.1003127983831 1.9999999999999998
  endloop
endfacet
facet normal 0.0 0.0 1.0
  outer loop
    vertex 590.1954324608522 1105.1003127983831 1.9999999999999998
    vertex 590.0402591526196 1103.889208421866 1.9999999999999998
    vertex 590.7021241667828 1104.13156385451 1.9999999999999998
  endloop
endfacet
facet normal 0.0 0.0 1.0
  outer loop
    vertex 590.1954324608522 1105.1003127983831 1.9999999999999998
    vertex 590.7021241667828 1104.13156385451 1.9999999999999998
    vertex 590.5385531945059 1105.3415626575816 1.9999999999999998
  endloop
endfacet
facet normal 0.0 0.0 1.0
  outer loop
    vertex 590.5385531945059 1105.3415626575816 1.9999999999999998
    vertex 590.7021241667828 1104.13156385451 1.9999999999999998
    vertex 590.8075423144882 1105.6633983078093 1.9999999999999998
  endloop
endfacet
facet normal 0.0 0.0 1.0
  outer loop
    vertex 590.8075423144882 1105.6633983078093 1.9999999999999998
    vertex 590.7021241667828 1104.13156385451 1.9999999999999998
    vertex 591.278710475828 1104.5369644969946 1.9999999999999998
  endloop
endfacet
facet normal 0.0 0.0 1.0
  outer loop
    vertex 590.8075423144882 1105.6633983078093 1.9999999999999998
    vertex 591.278710475828 1104.5369644969946 1.9999999999999998
    vertex 590.9840686567981 1106.0438871813615 1.9999999999999998
  endloop
endfacet
facet normal 0.0 0.0 1.0
  outer loop
    vertex 590.9840686567981 1106.0438871813615 1.9999999999999998
    vertex 591.278710475828 1104.5369644969946 1.9999999999999998
    vertex 591.0561022429307 1106.4570995902934 1.9999999999999998
  endloop
endfacet
facet normal 0.0 0.0 1.0
  outer loop
    vertex 587.8454088022249 1106.591036589482 1.9999999999999998
    vertex 588.1993868783727 1108.9165723252654 1.9999999999999998
    vertex 587.6228005693276 1108.5111716827807 1.9999999999999998
  endloop
endfacet
facet normal 0.0 0.0 1.0
  outer loop
    vertex 588.1993868783727 1108.9165723252654 1.9999999999999998
    vertex 587.8454088022249 1106.591036589482 1.9999999999999998
    vertex 587.9174423883576 1107.004248998414 1.9999999999999998
  endloop
endfacet
facet normal 0.0 0.0 1.0
  outer loop
    vertex 588.1993868783727 1108.9165723252654 1.9999999999999998
    vertex 587.9174423883576 1107.004248998414 1.9999999999999998
    vertex 588.0939687306674 1107.384737871966 1.9999999999999998
  endloop
endfacet
facet normal 0.0 0.0 1.0
  outer loop
    vertex 588.1993868783727 1108.9165723252654 1.9999999999999998
    vertex 588.0939687306674 1107.384737871966 1.9999999999999998
    vertex 588.3629578506497 1107.7065735221938 1.9999999999999998
  endloop
endfacet
facet normal 0.0 0.0 1.0
  outer loop
    vertex 588.1993868783727 1108.9165723252654 1.9999999999999998
    vertex 588.3629578506497 1107.7065735221938 1.9999999999999998
    vertex 588.8612518925361 1109.1589277579094 1.9999999999999998
  endloop
endfacet
facet normal 0.0 0.0 1.0
  outer loop
    vertex 588.8612518925361 1109.1589277579094 1.9999999999999998
    vertex 588.3629578506497 1107.7065735221938 1.9999999999999998
    vertex 588.7060785843033 1107.9478233813923 1.9999999999999998
  endloop
endfacet
facet normal 0.0 0.0 1.0
  outer loop
    vertex 588.8612518925361 1109.1589277579094 1.9999999999999998
    vertex 588.7060785843033 1107.9478233813923 1.9999999999999998
    vertex 589.0999478206636 1108.092046670342 1.9999999999999998
  endloop
endfacet
facet normal 0.0 0.0 1.0
  outer loop
    vertex 588.8612518925361 1109.1589277579094 1.9999999999999998
    vertex 589.0999478206636 1108.092046670342 1.9999999999999998
    vertex 589.5632906048858 1109.2217218584892 1.9999999999999998
  endloop
endfacet
facet normal 0.0 0.0 1.0
  outer loop
    vertex 589.5632906048858 1109.2217218584892 1.9999999999999998
    vertex 589.0999478206636 1108.092046670342 1.9999999999999998
    vertex 589.517724022172 1108.1294148102406 1.9999999999999998
  endloop
endfacet
facet normal 0.0 0.0 1.0
  outer loop
    vertex 589.5632906048858 1109.2217218584892 1.9999999999999998
    vertex 589.517724022172 1108.1294148102406 1.9999999999999998
    vertex 589.9309364311039 1108.0573812241082 1.9999999999999998
  endloop
endfacet
facet normal 0.0 0.0 1.0
  outer loop
    vertex 589.5632906048858 1109.2217218584892 1.9999999999999998
    vertex 589.9309364311039 1108.0573812241082 1.9999999999999998
    vertex 590.2576602373493 1109.1006753128224 1.9999999999999998
  endloop
endfacet
facet normal 0.0 0.0 1.0
  outer loop
    vertex 590.2576602373493 1109.1006753128224 1.9999999999999998
    vertex 589.9309364311039 1108.0573812241082 1.9999999999999998
    vertex 590.3114253046562 1107.8808548817983 1.9999999999999998
  endloop
endfacet
facet normal 0.0 0.0 1.0
  outer loop
    vertex 590.2576602373493 1109.1006753128224 1.9999999999999998
    vertex 590.3114253046562 1107.8808548817983 1.9999999999999998
    vertex 590.8970406469742 1108.8040372429575 1.9999999999999998
  endloop
endfacet
facet normal 0.0 0.0 1.0
  outer loop
    vertex 590.8970406469742 1108.8040372429575 1.9999999999999998
    vertex 590.3114253046562 1107.8808548817983 1.9999999999999998
    vertex 590.6332609548838 1107.6118657618158 1.9999999999999998
  endloop
endfacet
facet normal 0.0 0.0 1.0
  outer loop
    vertex 590.8970406469742 1108.8040372429575 1.9999999999999998
    vertex 590.6332609548838 1107.6118657618158 1.9999999999999998
    vertex 590.8745108140826 1107.2687450281621 1.9999999999999998
  endloop
endfacet
facet normal 0.0 0.0 1.0
  outer loop
    vertex 590.8970406469742 1108.8040372429575 1.9999999999999998
    vertex 590.8745108140826 1107.2687450281621 1.9999999999999998
    vertex 591.018734103032 1106.874875791802 1.9999999999999998
  endloop
endfacet
facet normal 0.0 0.0 1.0
  outer loop
    vertex 590.8970406469742 1108.8040372429575 1.9999999999999998
    vertex 591.018734103032 1106.874875791802 1.9999999999999998
    vertex 591.4378591154708 1108.352023043138 1.9999999999999998
  endloop
endfacet
facet normal 0.0 0.0 1.0
  outer loop
    vertex 591.4378591154708 1108.352023043138 1.9999999999999998
    vertex 591.018734103032 1106.874875791802 1.9999999999999998
    vertex 591.0561022429307 1106.4570995902934 1.9999999999999998
  endloop
endfacet
facet normal 0.0 0.0 1.0
  outer loop
    vertex 591.4378591154708 1108.352023043138 1.9999999999999998
    vertex 591.0561022429307 1106.4570995902934 1.9999999999999998
    vertex 591.278710475828 1104.5369644969946 1.9999999999999998
  endloop
endfacet
facet normal 0.0 0.0 1.0
  outer loop
    vertex 591.4378591154708 1108.352023043138 1.9999999999999998
    vertex 591.278710475828 1104.5369644969946 1.9999999999999998
    vertex 591.7307246756475 1105.0777829654912 1.9999999999999998
  endloop
endfacet
facet normal 0.0 0.0 1.0
  outer loop
    vertex 591.4378591154708 1108.352023043138 1.9999999999999998
    vertex 591.7307246756475 1105.0777829654912 1.9999999999999998
    vertex 591.8432597579555 1107.7754367340926 1.9999999999999998
  endloop
endfacet
facet normal 0.0 0.0 1.0
  outer loop
    vertex 591.8432597579555 1107.7754367340926 1.9999999999999998
    vertex 591.7307246756475 1105.0777829654912 1.9999999999999998
    vertex 592.0273627455125 1105.7171633751161 1.9999999999999998
  endloop
endfacet
facet normal 0.0 0.0 1.0
  outer loop
    vertex 591.8432597579555 1107.7754367340926 1.9999999999999998
    vertex 592.0273627455125 1105.7171633751161 1.9999999999999998
    vertex 592.0856151905995 1107.1135717199295 1.9999999999999998
  endloop
endfacet
facet normal 0.0 0.0 1.0
  outer loop
    vertex 592.0856151905995 1107.1135717199295 1.9999999999999998
    vertex 592.0273627455125 1105.7171633751161 1.9999999999999998
    vertex 592.1484092911793 1106.4115330075797 1.9999999999999998
  endloop
endfacet
facet normal -0.6412991283681014 -0.7672909669442964 0.0
  outer loop
    vertex 590.6332609548838 1107.6118657618158 1.9999999999999998
    vertex 590.3114253046562 1107.8808548817983 0.39999999999999997
    vertex 590.6332609548838 1107.6118657618158 0.39999999999999997
  endloop
endfacet
facet normal -0.6412991283681014 -0.7672909669442964 0.0
  outer loop
    vertex 590.3114253046562 1107.8808548817983 0.39999999999999997
    vertex 590.6332609548838 1107.6118657618158 1.9999999999999998
    vertex 590.3114253046562 1107.8808548817983 1.9999999999999998
  endloop
endfacet
facet normal 0.8180369058477354 0.5751657332204897 -0.0
  outer loop
    vertex 591.4378591154708 1108.352023043138 0.39999999999999997
    vertex 591.8432597579555 1107.7754367340926 1.9999999999999998
    vertex 591.8432597579555 1107.7754367340926 0.39999999999999997
  endloop
endfacet
facet normal 0.8180369058477354 0.5751657332204897 -0.0
  outer loop
    vertex 591.8432597579555 1107.7754367340926 1.9999999999999998
    vertex 591.4378591154708 1108.352023043138 0.39999999999999997
    vertex 591.4378591154708 1108.352023043138 1.9999999999999998
  endloop
endfacet
facet normal 0.9851430336521665 -0.17173585311927894 -0.0
  outer loop
    vertex 592.1484092911793 1106.4115330075797 0.39999999999999997
    vertex 592.0273627455125 1105.7171633751161 1.9999999999999998
    vertex 592.0273627455125 1105.7171633751161 0.39999999999999997
  endloop
endfacet
facet normal 0.9851430336521665 -0.17173585311927894 -0.0
  outer loop
    vertex 592.0273627455125 1105.7171633751161 1.9999999999999998
    vertex 592.1484092911793 1106.4115330075797 0.39999999999999997
    vertex 592.1484092911793 1106.4115330075797 1.9999999999999998
  endloop
endfacet
facet normal -0.8180369058477354 -0.5751657332204897 0.0
  outer loop
    vertex 587.0582512872 1105.2726994456827 1.9999999999999998
    vertex 587.4636519296848 1104.6961131366375 0.39999999999999997
    vertex 587.4636519296848 1104.6961131366375 1.9999999999999998
  endloop
endfacet
facet normal -0.8180369058477354 -0.5751657332204897 0.0
  outer loop
    vertex 587.4636519296848 1104.6961131366375 0.39999999999999997
    vertex 587.0582512872 1105.2726994456827 1.9999999999999998
    vertex 587.0582512872 1105.2726994456827 0.39999999999999997
  endloop
endfacet
facet normal 0.9960236083075816 0.08908968343161507 -0.0
  outer loop
    vertex 587.8454088022249 1106.591036589482 0.39999999999999997
    vertex 587.8827769421237 1106.1732603879734 1.9999999999999998
    vertex 587.8827769421237 1106.1732603879734 0.39999999999999997
  endloop
endfacet
facet normal 0.9960236083075816 0.08908968343161507 -0.0
  outer loop
    vertex 587.8827769421237 1106.1732603879734 1.9999999999999998
    vertex 587.8454088022249 1106.591036589482 0.39999999999999997
    vertex 587.8454088022249 1106.591036589482 1.9999999999999998
  endloop
endfacet
facet normal -0.9390268200636849 -0.34384390528419156 0.0
  outer loop
    vertex 586.8158958545561 1105.934564459846 1.9999999999999998
    vertex 587.0582512872 1105.2726994456827 0.39999999999999997
    vertex 587.0582512872 1105.2726994456827 1.9999999999999998
  endloop
endfacet
facet normal -0.9390268200636849 -0.34384390528419156 0.0
  outer loop
    vertex 587.0582512872 1105.2726994456827 0.39999999999999997
    vertex 586.8158958545561 1105.934564459846 1.9999999999999998
    vertex 586.8158958545561 1105.934564459846 0.39999999999999997
  endloop
endfacet
facet normal -0.9071265892791667 0.42085787508700145 0.0
  outer loop
    vertex 587.170786369508 1107.9703532142842 1.9999999999999998
    vertex 586.874148299643 1107.3309728046593 0.39999999999999997
    vertex 586.874148299643 1107.3309728046593 1.9999999999999998
  endloop
endfacet
facet normal -0.9071265892791667 0.42085787508700145 0.0
  outer loop
    vertex 586.874148299643 1107.3309728046593 0.39999999999999997
    vertex 587.170786369508 1107.9703532142842 1.9999999999999998
    vertex 587.170786369508 1107.9703532142842 0.39999999999999997
  endloop
endfacet
facet normal -0.9851430336521665 0.17173585311927894 0.0
  outer loop
    vertex 586.874148299643 1107.3309728046593 1.9999999999999998
    vertex 586.7531017539764 1106.6366031721957 0.39999999999999997
    vertex 586.7531017539764 1106.6366031721957 1.9999999999999998
  endloop
endfacet
facet normal -0.9851430336521665 0.17173585311927894 0.0
  outer loop
    vertex 586.7531017539764 1106.6366031721957 0.39999999999999997
    vertex 586.874148299643 1107.3309728046593 1.9999999999999998
    vertex 586.874148299643 1107.3309728046593 0.39999999999999997
  endloop
endfacet
facet normal -0.08908968343160187 0.9960236083075827 -0.0
  outer loop
    vertex 588.8612518925361 1109.1589277579094 1.9999999999999998
    vertex 589.5632906048858 1109.2217218584892 0.39999999999999997
    vertex 588.8612518925361 1109.1589277579094 0.39999999999999997
  endloop
endfacet
facet normal -0.08908968343160187 0.9960236083075827 -0.0
  outer loop
    vertex 589.5632906048858 1109.2217218584892 0.39999999999999997
    vertex 588.8612518925361 1109.1589277579094 1.9999999999999998
    vertex 589.5632906048858 1109.2217218584892 1.9999999999999998
  endloop
endfacet
facet normal -0.9960236083075953 -0.08908968343146352 0.0
  outer loop
    vertex 586.7531017539764 1106.6366031721957 1.9999999999999998
    vertex 586.8158958545561 1105.934564459846 0.39999999999999997
    vertex 586.8158958545561 1105.934564459846 1.9999999999999998
  endloop
endfacet
facet normal -0.9960236083075953 -0.08908968343146352 0.0
  outer loop
    vertex 586.8158958545561 1105.934564459846 0.39999999999999997
    vertex 586.7531017539764 1106.6366031721957 1.9999999999999998
    vertex 586.7531017539764 1106.6366031721957 0.39999999999999997
  endloop
endfacet
facet normal -0.7672909669444907 0.641299128367869 0.0
  outer loop
    vertex 590.8075423144882 1105.6633983078093 1.9999999999999998
    vertex 590.5385531945059 1105.3415626575816 0.39999999999999997
    vertex 590.5385531945059 1105.3415626575816 1.9999999999999998
  endloop
endfacet
facet normal -0.7672909669444907 0.641299128367869 0.0
  outer loop
    vertex 590.5385531945059 1105.3415626575816 0.39999999999999997
    vertex 590.8075423144882 1105.6633983078093 1.9999999999999998
    vertex 590.8075423144882 1105.6633983078093 0.39999999999999997
  endloop
endfacet
facet normal 0.9390268200636849 0.34384390528419156 -0.0
  outer loop
    vertex 591.8432597579555 1107.7754367340926 0.39999999999999997
    vertex 592.0856151905995 1107.1135717199295 1.9999999999999998
    vertex 592.0856151905995 1107.1135717199295 0.39999999999999997
  endloop
endfacet
facet normal 0.9390268200636849 0.34384390528419156 -0.0
  outer loop
    vertex 592.0856151905995 1107.1135717199295 1.9999999999999998
    vertex 591.8432597579555 1107.7754367340926 0.39999999999999997
    vertex 591.8432597579555 1107.7754367340926 1.9999999999999998
  endloop
endfacet
facet normal 0.7672909669443772 -0.6412991283680051 -0.0
  outer loop
    vertex 591.7307246756475 1105.0777829654912 0.39999999999999997
    vertex 591.278710475828 1104.5369644969946 1.9999999999999998
    vertex 591.278710475828 1104.5369644969946 0.39999999999999997
  endloop
endfacet
facet normal 0.7672909669443772 -0.6412991283680051 -0.0
  outer loop
    vertex 591.278710475828 1104.5369644969946 1.9999999999999998
    vertex 591.7307246756475 1105.0777829654912 0.39999999999999997
    vertex 591.7307246756475 1105.0777829654912 1.9999999999999998
  endloop
endfacet
facet normal 0.5751657332201794 -0.8180369058479534 0.0
  outer loop
    vertex 588.7060785843033 1107.9478233813923 1.9999999999999998
    vertex 588.3629578506497 1107.7065735221938 0.39999999999999997
    vertex 588.7060785843033 1107.9478233813923 0.39999999999999997
  endloop
endfacet
facet normal 0.5751657332201794 -0.8180369058479534 0.0
  outer loop
    vertex 588.3629578506497 1107.7065735221938 0.39999999999999997
    vertex 588.7060785843033 1107.9478233813923 1.9999999999999998
    vertex 588.3629578506497 1107.7065735221938 1.9999999999999998
  endloop
endfacet
facet normal -0.5751657332201794 0.8180369058479534 -0.0
  outer loop
    vertex 590.1954324608522 1105.1003127983831 1.9999999999999998
    vertex 590.5385531945059 1105.3415626575816 0.39999999999999997
    vertex 590.1954324608522 1105.1003127983831 0.39999999999999997
  endloop
endfacet
facet normal -0.5751657332201794 0.8180369058479534 -0.0
  outer loop
    vertex 590.5385531945059 1105.3415626575816 0.39999999999999997
    vertex 590.1954324608522 1105.1003127983831 1.9999999999999998
    vertex 590.5385531945059 1105.3415626575816 1.9999999999999998
  endloop
endfacet
facet normal 0.6412991283681014 0.7672909669442964 -0.0
  outer loop
    vertex 588.2682500902717 1105.4362704179596 1.9999999999999998
    vertex 588.5900857404995 1105.1672812979773 0.39999999999999997
    vertex 588.2682500902717 1105.4362704179596 0.39999999999999997
  endloop
endfacet
facet normal 0.6412991283681014 0.7672909669442964 -0.0
  outer loop
    vertex 588.5900857404995 1105.1672812979773 0.39999999999999997
    vertex 588.2682500902717 1105.4362704179596 1.9999999999999998
    vertex 588.5900857404995 1105.1672812979773 1.9999999999999998
  endloop
endfacet
facet normal -0.9071265892791616 0.42085787508701233 0.0
  outer loop
    vertex 590.9840686567981 1106.0438871813615 1.9999999999999998
    vertex 590.8075423144882 1105.6633983078093 0.39999999999999997
    vertex 590.8075423144882 1105.6633983078093 1.9999999999999998
  endloop
endfacet
facet normal -0.9071265892791616 0.42085787508701233 0.0
  outer loop
    vertex 590.8075423144882 1105.6633983078093 0.39999999999999997
    vertex 590.9840686567981 1106.0438871813615 1.9999999999999998
    vertex 590.9840686567981 1106.0438871813615 0.39999999999999997
  endloop
endfacet
facet normal 0.42085787508710737 0.9071265892791177 -0.0
  outer loop
    vertex 588.5900857404995 1105.1672812979773 1.9999999999999998
    vertex 588.9705746140518 1104.9907549556674 0.39999999999999997
    vertex 588.5900857404995 1105.1672812979773 0.39999999999999997
  endloop
endfacet
facet normal 0.42085787508710737 0.9071265892791177 -0.0
  outer loop
    vertex 588.9705746140518 1104.9907549556674 0.39999999999999997
    vertex 588.5900857404995 1105.1672812979773 1.9999999999999998
    vertex 588.9705746140518 1104.9907549556674 1.9999999999999998
  endloop
endfacet
facet normal -0.9851430336521014 0.17173585311965203 0.0
  outer loop
    vertex 591.0561022429307 1106.4570995902934 1.9999999999999998
    vertex 590.9840686567981 1106.0438871813615 0.39999999999999997
    vertex 590.9840686567981 1106.0438871813615 1.9999999999999998
  endloop
endfacet
facet normal -0.9851430336521014 0.17173585311965203 0.0
  outer loop
    vertex 590.9840686567981 1106.0438871813615 0.39999999999999997
    vertex 591.0561022429307 1106.4570995902934 1.9999999999999998
    vertex 591.0561022429307 1106.4570995902934 0.39999999999999997
  endloop
endfacet
facet normal -0.1717358531192708 -0.9851430336521679 0.0
  outer loop
    vertex 589.9309364311039 1108.0573812241082 1.9999999999999998
    vertex 589.517724022172 1108.1294148102406 0.39999999999999997
    vertex 589.9309364311039 1108.0573812241082 0.39999999999999997
  endloop
endfacet
facet normal -0.1717358531192708 -0.9851430336521679 0.0
  outer loop
    vertex 589.517724022172 1108.1294148102406 0.39999999999999997
    vertex 589.9309364311039 1108.0573812241082 1.9999999999999998
    vertex 589.517724022172 1108.1294148102406 1.9999999999999998
  endloop
endfacet
facet normal 0.7672909669444907 -0.641299128367869 -0.0
  outer loop
    vertex 588.3629578506497 1107.7065735221938 0.39999999999999997
    vertex 588.0939687306674 1107.384737871966 1.9999999999999998
    vertex 588.0939687306674 1107.384737871966 0.39999999999999997
  endloop
endfacet
facet normal 0.7672909669444907 -0.641299128367869 -0.0
  outer loop
    vertex 588.0939687306674 1107.384737871966 1.9999999999999998
    vertex 588.3629578506497 1107.7065735221938 0.39999999999999997
    vertex 588.3629578506497 1107.7065735221938 1.9999999999999998
  endloop
endfacet
facet normal -0.42085787508710737 -0.9071265892791177 0.0
  outer loop
    vertex 590.3114253046562 1107.8808548817983 1.9999999999999998
    vertex 589.9309364311039 1108.0573812241082 0.39999999999999997
    vertex 590.3114253046562 1107.8808548817983 0.39999999999999997
  endloop
endfacet
facet normal -0.42085787508710737 -0.9071265892791177 0.0
  outer loop
    vertex 589.9309364311039 1108.0573812241082 0.39999999999999997
    vertex 590.3114253046562 1107.8808548817983 1.9999999999999998
    vertex 589.9309364311039 1108.0573812241082 1.9999999999999998
  endloop
endfacet
facet normal -0.9960236083075816 -0.08908968343161507 0.0
  outer loop
    vertex 591.018734103032 1106.874875791802 1.9999999999999998
    vertex 591.0561022429307 1106.4570995902934 0.39999999999999997
    vertex 591.0561022429307 1106.4570995902934 1.9999999999999998
  endloop
endfacet
facet normal -0.9960236083075816 -0.08908968343161507 0.0
  outer loop
    vertex 591.0561022429307 1106.4570995902934 0.39999999999999997
    vertex 591.018734103032 1106.874875791802 1.9999999999999998
    vertex 591.018734103032 1106.874875791802 0.39999999999999997
  endloop
endfacet
facet normal 0.08908968343142072 -0.9960236083075991 0.0
  outer loop
    vertex 589.517724022172 1108.1294148102406 1.9999999999999998
    vertex 589.0999478206636 1108.092046670342 0.39999999999999997
    vertex 589.517724022172 1108.1294148102406 0.39999999999999997
  endloop
endfacet
facet normal 0.08908968343142072 -0.9960236083075991 0.0
  outer loop
    vertex 589.0999478206636 1108.092046670342 0.39999999999999997
    vertex 589.517724022172 1108.1294148102406 1.9999999999999998
    vertex 589.0999478206636 1108.092046670342 1.9999999999999998
  endloop
endfacet
facet normal 0.9851430336521014 -0.17173585311965203 -0.0
  outer loop
    vertex 587.9174423883576 1107.004248998414 0.39999999999999997
    vertex 587.8454088022249 1106.591036589482 1.9999999999999998
    vertex 587.8454088022249 1106.591036589482 0.39999999999999997
  endloop
endfacet
facet normal 0.9851430336521014 -0.17173585311965203 -0.0
  outer loop
    vertex 587.8454088022249 1106.591036589482 1.9999999999999998
    vertex 587.9174423883576 1107.004248998414 0.39999999999999997
    vertex 587.9174423883576 1107.004248998414 1.9999999999999998
  endloop
endfacet
facet normal 0.34384390528448416 -0.9390268200635777 0.0
  outer loop
    vertex 589.0999478206636 1108.092046670342 1.9999999999999998
    vertex 588.7060785843033 1107.9478233813923 0.39999999999999997
    vertex 589.0999478206636 1108.092046670342 0.39999999999999997
  endloop
endfacet
facet normal 0.34384390528448416 -0.9390268200635777 0.0
  outer loop
    vertex 588.7060785843033 1107.9478233813923 0.39999999999999997
    vertex 589.0999478206636 1108.092046670342 1.9999999999999998
    vertex 588.7060785843033 1107.9478233813923 1.9999999999999998
  endloop
endfacet
facet normal -0.9390268200637354 -0.343843905284054 0.0
  outer loop
    vertex 590.8745108140826 1107.2687450281621 1.9999999999999998
    vertex 591.018734103032 1106.874875791802 0.39999999999999997
    vertex 591.018734103032 1106.874875791802 1.9999999999999998
  endloop
endfacet
facet normal -0.9390268200637354 -0.343843905284054 0.0
  outer loop
    vertex 591.018734103032 1106.874875791802 0.39999999999999997
    vertex 590.8745108140826 1107.2687450281621 1.9999999999999998
    vertex 590.8745108140826 1107.2687450281621 0.39999999999999997
  endloop
endfacet
facet normal 0.1717358531192708 0.9851430336521679 -0.0
  outer loop
    vertex 588.9705746140518 1104.9907549556674 1.9999999999999998
    vertex 589.3837870229835 1104.9187213695348 0.39999999999999997
    vertex 588.9705746140518 1104.9907549556674 0.39999999999999997
  endloop
endfacet
facet normal 0.1717358531192708 0.9851430336521679 -0.0
  outer loop
    vertex 589.3837870229835 1104.9187213695348 0.39999999999999997
    vertex 588.9705746140518 1104.9907549556674 1.9999999999999998
    vertex 589.3837870229835 1104.9187213695348 1.9999999999999998
  endloop
endfacet
facet normal 0.8180369058477209 0.5751657332205101 -0.0
  outer loop
    vertex 588.027000231073 1105.7793911516133 0.39999999999999997
    vertex 588.2682500902717 1105.4362704179596 1.9999999999999998
    vertex 588.2682500902717 1105.4362704179596 0.39999999999999997
  endloop
endfacet
facet normal 0.8180369058477209 0.5751657332205101 -0.0
  outer loop
    vertex 588.2682500902717 1105.4362704179596 1.9999999999999998
    vertex 588.027000231073 1105.7793911516133 0.39999999999999997
    vertex 588.027000231073 1105.7793911516133 1.9999999999999998
  endloop
endfacet
facet normal 0.9390268200637354 0.343843905284054 -0.0
  outer loop
    vertex 587.8827769421237 1106.1732603879734 0.39999999999999997
    vertex 588.027000231073 1105.7793911516133 1.9999999999999998
    vertex 588.027000231073 1105.7793911516133 0.39999999999999997
  endloop
endfacet
facet normal 0.9390268200637354 0.343843905284054 -0.0
  outer loop
    vertex 588.027000231073 1105.7793911516133 1.9999999999999998
    vertex 587.8827769421237 1106.1732603879734 0.39999999999999997
    vertex 587.8827769421237 1106.1732603879734 1.9999999999999998
  endloop
endfacet
facet normal -0.3438439052841742 0.9390268200636913 -0.0
  outer loop
    vertex 589.801563224492 1104.9560895094337 1.9999999999999998
    vertex 590.1954324608522 1105.1003127983831 0.39999999999999997
    vertex 589.801563224492 1104.9560895094337 0.39999999999999997
  endloop
endfacet
facet normal -0.3438439052841742 0.9390268200636913 -0.0
  outer loop
    vertex 590.1954324608522 1105.1003127983831 0.39999999999999997
    vertex 589.801563224492 1104.9560895094337 1.9999999999999998
    vertex 590.1954324608522 1105.1003127983831 1.9999999999999998
  endloop
endfacet
endsolid Main_Body_RevB1
