solid Main_Body_RevB1
facet normal 0.0 0.0 -1.0
  outer loop
    vertex 582.8274534393283 1093.6570228556666 0.0
    vertex 582.4734753631805 1091.3314871198831 0.0
    vertex 582.2508671302832 1093.251622213182 0.0
  endloop
endfacet
facet normal 0.0 0.0 -1.0
  outer loop
    vertex 582.4734753631805 1091.3314871198831 0.0
    vertex 582.8274534393283 1093.6570228556666 0.0
    vertex 582.5455089493131 1091.744699528815 0.0
  endloop
endfacet
facet normal 0.0 0.0 -1.0
  outer loop
    vertex 582.5455089493131 1091.744699528815 0.0
    vertex 582.8274534393283 1093.6570228556666 0.0
    vertex 582.7220352916229 1092.1251884023673 0.0
  endloop
endfacet
facet normal 0.0 0.0 -1.0
  outer loop
    vertex 582.7220352916229 1092.1251884023673 0.0
    vertex 582.8274534393283 1093.6570228556666 0.0
    vertex 582.9910244116052 1092.447024052595 0.0
  endloop
endfacet
facet normal 0.0 0.0 -1.0
  outer loop
    vertex 582.9910244116052 1092.447024052595 0.0
    vertex 582.8274534393283 1093.6570228556666 0.0
    vertex 583.4893184534916 1093.8993782883106 0.0
  endloop
endfacet
facet normal 0.0 0.0 -1.0
  outer loop
    vertex 582.9910244116052 1092.447024052595 0.0
    vertex 583.4893184534916 1093.8993782883106 0.0
    vertex 583.3341451452588 1092.6882739117934 0.0
  endloop
endfacet
facet normal 0.0 0.0 -1.0
  outer loop
    vertex 583.3341451452588 1092.6882739117934 0.0
    vertex 583.4893184534916 1093.8993782883106 0.0
    vertex 583.7280143816191 1092.832497200743 0.0
  endloop
endfacet
facet normal 0.0 0.0 -1.0
  outer loop
    vertex 583.7280143816191 1092.832497200743 0.0
    vertex 583.4893184534916 1093.8993782883106 0.0
    vertex 584.1913571658413 1093.9621723888904 0.0
  endloop
endfacet
facet normal 0.0 0.0 -1.0
  outer loop
    vertex 583.7280143816191 1092.832497200743 0.0
    vertex 584.1913571658413 1093.9621723888904 0.0
    vertex 584.1457905831276 1092.8698653406418 0.0
  endloop
endfacet
facet normal 0.0 0.0 -1.0
  outer loop
    vertex 584.1457905831276 1092.8698653406418 0.0
    vertex 584.1913571658413 1093.9621723888904 0.0
    vertex 584.5590029920594 1092.7978317545094 0.0
  endloop
endfacet
facet normal 0.0 0.0 -1.0
  outer loop
    vertex 584.5590029920594 1092.7978317545094 0.0
    vertex 584.1913571658413 1093.9621723888904 0.0
    vertex 584.8857267983049 1093.8411258432236 0.0
  endloop
endfacet
facet normal 0.0 0.0 -1.0
  outer loop
    vertex 584.5590029920594 1092.7978317545094 0.0
    vertex 584.8857267983049 1093.8411258432236 0.0
    vertex 584.9394918656117 1092.6213054121995 0.0
  endloop
endfacet
facet normal 0.0 0.0 -1.0
  outer loop
    vertex 584.9394918656117 1092.6213054121995 0.0
    vertex 584.8857267983049 1093.8411258432236 0.0
    vertex 585.5251072079298 1093.5444877733587 0.0
  endloop
endfacet
facet normal 0.0 0.0 -1.0
  outer loop
    vertex 584.9394918656117 1092.6213054121995 0.0
    vertex 585.5251072079298 1093.5444877733587 0.0
    vertex 585.2613275158393 1092.352316292217 0.0
  endloop
endfacet
facet normal 0.0 0.0 -1.0
  outer loop
    vertex 585.2613275158393 1092.352316292217 0.0
    vertex 585.5251072079298 1093.5444877733587 0.0
    vertex 585.5025773750381 1092.0091955585633 0.0
  endloop
endfacet
facet normal 0.0 0.0 -1.0
  outer loop
    vertex 585.5025773750381 1092.0091955585633 0.0
    vertex 585.5251072079298 1093.5444877733587 0.0
    vertex 585.6468006639875 1091.6153263222031 0.0
  endloop
endfacet
facet normal 0.0 0.0 -1.0
  outer loop
    vertex 585.6468006639875 1091.6153263222031 0.0
    vertex 585.5251072079298 1093.5444877733587 0.0
    vertex 586.0659256764263 1093.092473573539 0.0
  endloop
endfacet
facet normal 0.0 0.0 -1.0
  outer loop
    vertex 585.6468006639875 1091.6153263222031 0.0
    vertex 586.0659256764263 1093.092473573539 0.0
    vertex 585.6841688038862 1091.1975501206946 0.0
  endloop
endfacet
facet normal 0.0 0.0 -1.0
  outer loop
    vertex 585.6841688038862 1091.1975501206946 0.0
    vertex 586.0659256764263 1093.092473573539 0.0
    vertex 585.9067770367835 1089.2774150273958 0.0
  endloop
endfacet
facet normal 0.0 0.0 -1.0
  outer loop
    vertex 585.9067770367835 1089.2774150273958 0.0
    vertex 586.0659256764263 1093.092473573539 0.0
    vertex 586.358791236603 1089.8182334958924 0.0
  endloop
endfacet
facet normal 0.0 0.0 -1.0
  outer loop
    vertex 586.358791236603 1089.8182334958924 0.0
    vertex 586.0659256764263 1093.092473573539 0.0
    vertex 586.471326318911 1092.515887264494 0.0
  endloop
endfacet
facet normal 0.0 0.0 -1.0
  outer loop
    vertex 586.358791236603 1089.8182334958924 0.0
    vertex 586.471326318911 1092.515887264494 0.0
    vertex 586.655429306468 1090.4576139055173 0.0
  endloop
endfacet
facet normal 0.0 0.0 -1.0
  outer loop
    vertex 586.655429306468 1090.4576139055173 0.0
    vertex 586.471326318911 1092.515887264494 0.0
    vertex 586.713681751555 1091.8540222503307 0.0
  endloop
endfacet
facet normal 0.0 0.0 -1.0
  outer loop
    vertex 586.655429306468 1090.4576139055173 0.0
    vertex 586.713681751555 1091.8540222503307 0.0
    vertex 586.7764758521348 1091.1519835379809 0.0
  endloop
endfacet
facet normal 0.0 0.0 -1.0
  outer loop
    vertex 581.5022148605985 1092.0714233350604 0.0
    vertex 581.4439624155116 1090.675014990247 0.0
    vertex 581.3811683149319 1091.3770537025969 0.0
  endloop
endfacet
facet normal 0.0 0.0 -1.0
  outer loop
    vertex 581.4439624155116 1090.675014990247 0.0
    vertex 581.5022148605985 1092.0714233350604 0.0
    vertex 581.6863178481556 1090.013149976084 0.0
  endloop
endfacet
facet normal 0.0 0.0 -1.0
  outer loop
    vertex 581.6863178481556 1090.013149976084 0.0
    vertex 581.5022148605985 1092.0714233350604 0.0
    vertex 581.7988529304636 1092.7108037446853 0.0
  endloop
endfacet
facet normal 0.0 0.0 -1.0
  outer loop
    vertex 581.6863178481556 1090.013149976084 0.0
    vertex 581.7988529304636 1092.7108037446853 0.0
    vertex 582.0917184906403 1089.4365636670386 0.0
  endloop
endfacet
facet normal 0.0 0.0 -1.0
  outer loop
    vertex 582.0917184906403 1089.4365636670386 0.0
    vertex 581.7988529304636 1092.7108037446853 0.0
    vertex 582.2508671302832 1093.251622213182 0.0
  endloop
endfacet
facet normal 0.0 0.0 -1.0
  outer loop
    vertex 582.0917184906403 1089.4365636670386 0.0
    vertex 582.2508671302832 1093.251622213182 0.0
    vertex 582.6325369591368 1088.9845494672193 0.0
  endloop
endfacet
facet normal 0.0 0.0 -1.0
  outer loop
    vertex 582.6325369591368 1088.9845494672193 0.0
    vertex 582.2508671302832 1093.251622213182 0.0
    vertex 582.4734753631805 1091.3314871198831 0.0
  endloop
endfacet
facet normal 0.0 0.0 -1.0
  outer loop
    vertex 582.6325369591368 1088.9845494672193 0.0
    vertex 582.4734753631805 1091.3314871198831 0.0
    vertex 582.5108435030792 1090.9137109183746 0.0
  endloop
endfacet
facet normal 0.0 0.0 -1.0
  outer loop
    vertex 582.6325369591368 1088.9845494672193 0.0
    vertex 582.5108435030792 1090.9137109183746 0.0
    vertex 582.6550667920285 1090.5198416820147 0.0
  endloop
endfacet
facet normal 0.0 0.0 -1.0
  outer loop
    vertex 582.6325369591368 1088.9845494672193 0.0
    vertex 582.6550667920285 1090.5198416820147 0.0
    vertex 583.2719173687617 1088.6879113973544 0.0
  endloop
endfacet
facet normal 0.0 0.0 -1.0
  outer loop
    vertex 583.2719173687617 1088.6879113973544 0.0
    vertex 582.6550667920285 1090.5198416820147 0.0
    vertex 582.8963166512273 1090.1767209483608 0.0
  endloop
endfacet
facet normal 0.0 0.0 -1.0
  outer loop
    vertex 583.2719173687617 1088.6879113973544 0.0
    vertex 582.8963166512273 1090.1767209483608 0.0
    vertex 583.218152301455 1089.9077318283785 0.0
  endloop
endfacet
facet normal 0.0 0.0 -1.0
  outer loop
    vertex 583.2719173687617 1088.6879113973544 0.0
    vertex 583.218152301455 1089.9077318283785 0.0
    vertex 583.5986411750073 1089.7312054860686 0.0
  endloop
endfacet
facet normal 0.0 0.0 -1.0
  outer loop
    vertex 583.2719173687617 1088.6879113973544 0.0
    vertex 583.5986411750073 1089.7312054860686 0.0
    vertex 583.9662870012253 1088.5668648516873 0.0
  endloop
endfacet
facet normal 0.0 0.0 -1.0
  outer loop
    vertex 583.9662870012253 1088.5668648516873 0.0
    vertex 583.5986411750073 1089.7312054860686 0.0
    vertex 584.0118535839391 1089.659171899936 0.0
  endloop
endfacet
facet normal 0.0 0.0 -1.0
  outer loop
    vertex 583.9662870012253 1088.5668648516873 0.0
    vertex 584.0118535839391 1089.659171899936 0.0
    vertex 584.6683257135751 1088.6296589522674 0.0
  endloop
endfacet
facet normal 0.0 0.0 -1.0
  outer loop
    vertex 584.6683257135751 1088.6296589522674 0.0
    vertex 584.0118535839391 1089.659171899936 0.0
    vertex 584.4296297854476 1089.6965400398349 0.0
  endloop
endfacet
facet normal 0.0 0.0 -1.0
  outer loop
    vertex 584.6683257135751 1088.6296589522674 0.0
    vertex 584.4296297854476 1089.6965400398349 0.0
    vertex 584.8234990218077 1089.8407633287843 0.0
  endloop
endfacet
facet normal 0.0 0.0 -1.0
  outer loop
    vertex 584.6683257135751 1088.6296589522674 0.0
    vertex 584.8234990218077 1089.8407633287843 0.0
    vertex 585.3301907277383 1088.8720143849112 0.0
  endloop
endfacet
facet normal 0.0 0.0 -1.0
  outer loop
    vertex 585.3301907277383 1088.8720143849112 0.0
    vertex 584.8234990218077 1089.8407633287843 0.0
    vertex 585.1666197554614 1090.0820131879827 0.0
  endloop
endfacet
facet normal 0.0 0.0 -1.0
  outer loop
    vertex 585.3301907277383 1088.8720143849112 0.0
    vertex 585.1666197554614 1090.0820131879827 0.0
    vertex 585.4356088754438 1090.4038488382105 0.0
  endloop
endfacet
facet normal 0.0 0.0 -1.0
  outer loop
    vertex 585.3301907277383 1088.8720143849112 0.0
    vertex 585.4356088754438 1090.4038488382105 0.0
    vertex 585.9067770367835 1089.2774150273958 0.0
  endloop
endfacet
facet normal 0.0 0.0 -1.0
  outer loop
    vertex 585.9067770367835 1089.2774150273958 0.0
    vertex 585.4356088754438 1090.4038488382105 0.0
    vertex 585.6121352177536 1090.7843377117629 0.0
  endloop
endfacet
facet normal 0.0 0.0 -1.0
  outer loop
    vertex 585.9067770367835 1089.2774150273958 0.0
    vertex 585.6121352177536 1090.7843377117629 0.0
    vertex 585.6841688038862 1091.1975501206946 0.0
  endloop
endfacet
facet normal 0.08908968343160188 -0.9960236083075827 0.0
  outer loop
    vertex 584.6683257135751 1088.6296589522674 7.999999999999999
    vertex 583.9662870012253 1088.5668648516873 0.0
    vertex 584.6683257135751 1088.6296589522674 0.0
  endloop
endfacet
facet normal 0.08908968343160188 -0.9960236083075827 0.0
  outer loop
    vertex 583.9662870012253 1088.5668648516873 0.0
    vertex 584.6683257135751 1088.6296589522674 7.999999999999999
    vertex 583.9662870012253 1088.5668648516873 7.999999999999999
  endloop
endfacet
facet normal -0.9071265892791667 0.42085787508700145 0.0
  outer loop
    vertex 581.7988529304636 1092.7108037446853 7.999999999999999
    vertex 581.5022148605985 1092.0714233350604 0.0
    vertex 581.5022148605985 1092.0714233350604 7.999999999999999
  endloop
endfacet
facet normal -0.9071265892791667 0.42085787508700145 0.0
  outer loop
    vertex 581.5022148605985 1092.0714233350604 0.0
    vertex 581.7988529304636 1092.7108037446853 7.999999999999999
    vertex 581.7988529304636 1092.7108037446853 0.0
  endloop
endfacet
facet normal -0.4208578750868961 -0.9071265892792155 -0.0
  outer loop
    vertex 583.2719173687617 1088.6879113973544 7.999999999999999
    vertex 582.6325369591368 1088.9845494672193 0.0
    vertex 583.2719173687617 1088.6879113973544 0.0
  endloop
endfacet
facet normal -0.4208578750868961 -0.9071265892792155 -0.0
  outer loop
    vertex 582.6325369591368 1088.9845494672193 0.0
    vertex 583.2719173687617 1088.6879113973544 7.999999999999999
    vertex 582.6325369591368 1088.9845494672193 7.999999999999999
  endloop
endfacet
facet normal 0.6412991283679297 0.76729096694444 0.0
  outer loop
    vertex 585.5251072079298 1093.5444877733587 7.999999999999999
    vertex 586.0659256764263 1093.092473573539 0.0
    vertex 585.5251072079298 1093.5444877733587 0.0
  endloop
endfacet
facet normal 0.6412991283679297 0.76729096694444 0.0
  outer loop
    vertex 586.0659256764263 1093.092473573539 0.0
    vertex 585.5251072079298 1093.5444877733587 7.999999999999999
    vertex 586.0659256764263 1093.092473573539 7.999999999999999
  endloop
endfacet
facet normal 0.9390268200636849 0.3438439052841916 0.0
  outer loop
    vertex 586.471326318911 1092.515887264494 0.0
    vertex 586.713681751555 1091.8540222503307 7.999999999999999
    vertex 586.713681751555 1091.8540222503307 0.0
  endloop
endfacet
facet normal 0.9390268200636849 0.3438439052841916 0.0
  outer loop
    vertex 586.713681751555 1091.8540222503307 7.999999999999999
    vertex 586.471326318911 1092.515887264494 0.0
    vertex 586.471326318911 1092.515887264494 7.999999999999999
  endloop
endfacet
facet normal 0.9960236083075951 0.0890896834314635 0.0
  outer loop
    vertex 586.713681751555 1091.8540222503307 0.0
    vertex 586.7764758521348 1091.1519835379809 7.999999999999999
    vertex 586.7764758521348 1091.1519835379809 0.0
  endloop
endfacet
facet normal 0.9960236083075951 0.0890896834314635 0.0
  outer loop
    vertex 586.7764758521348 1091.1519835379809 7.999999999999999
    vertex 586.713681751555 1091.8540222503307 0.0
    vertex 586.713681751555 1091.8540222503307 7.999999999999999
  endloop
endfacet
facet normal -0.08908968343182849 0.9960236083075625 0.0
  outer loop
    vertex 584.0118535839391 1089.659171899936 7.999999999999999
    vertex 584.4296297854476 1089.6965400398349 0.0
    vertex 584.0118535839391 1089.659171899936 0.0
  endloop
endfacet
facet normal -0.08908968343182849 0.9960236083075625 0.0
  outer loop
    vertex 584.4296297854476 1089.6965400398349 0.0
    vertex 584.0118535839391 1089.659171899936 7.999999999999999
    vertex 584.4296297854476 1089.6965400398349 7.999999999999999
  endloop
endfacet
facet normal -0.6412991283679297 -0.76729096694444 -0.0
  outer loop
    vertex 582.6325369591368 1088.9845494672193 7.999999999999999
    vertex 582.0917184906403 1089.4365636670386 0.0
    vertex 582.6325369591368 1088.9845494672193 0.0
  endloop
endfacet
facet normal -0.6412991283679297 -0.76729096694444 -0.0
  outer loop
    vertex 582.0917184906403 1089.4365636670386 0.0
    vertex 582.6325369591368 1088.9845494672193 7.999999999999999
    vertex 582.0917184906403 1089.4365636670386 7.999999999999999
  endloop
endfacet
facet normal 0.5751657332205499 -0.8180369058476931 0.0
  outer loop
    vertex 585.9067770367835 1089.2774150273958 7.999999999999999
    vertex 585.3301907277383 1088.8720143849112 0.0
    vertex 585.9067770367835 1089.2774150273958 0.0
  endloop
endfacet
facet normal 0.5751657332205499 -0.8180369058476931 0.0
  outer loop
    vertex 585.3301907277383 1088.8720143849112 0.0
    vertex 585.9067770367835 1089.2774150273958 7.999999999999999
    vertex 585.3301907277383 1088.8720143849112 7.999999999999999
  endloop
endfacet
facet normal 0.9071265892791667 -0.42085787508700145 0.0
  outer loop
    vertex 586.655429306468 1090.4576139055173 0.0
    vertex 586.358791236603 1089.8182334958924 7.999999999999999
    vertex 586.358791236603 1089.8182334958924 0.0
  endloop
endfacet
facet normal 0.9071265892791667 -0.42085787508700145 0.0
  outer loop
    vertex 586.358791236603 1089.8182334958924 7.999999999999999
    vertex 586.655429306468 1090.4576139055173 0.0
    vertex 586.655429306468 1090.4576139055173 7.999999999999999
  endloop
endfacet
facet normal 0.34384390528403735 -0.9390268200637413 0.0
  outer loop
    vertex 585.3301907277383 1088.8720143849112 7.999999999999999
    vertex 584.6683257135751 1088.6296589522674 0.0
    vertex 585.3301907277383 1088.8720143849112 0.0
  endloop
endfacet
facet normal 0.34384390528403735 -0.9390268200637413 0.0
  outer loop
    vertex 584.6683257135751 1088.6296589522674 0.0
    vertex 585.3301907277383 1088.8720143849112 7.999999999999999
    vertex 584.6683257135751 1088.6296589522674 7.999999999999999
  endloop
endfacet
facet normal -0.08908968343160188 0.9960236083075827 0.0
  outer loop
    vertex 583.4893184534916 1093.8993782883106 7.999999999999999
    vertex 584.1913571658413 1093.9621723888904 0.0
    vertex 583.4893184534916 1093.8993782883106 0.0
  endloop
endfacet
facet normal -0.08908968343160188 0.9960236083075827 0.0
  outer loop
    vertex 584.1913571658413 1093.9621723888904 0.0
    vertex 583.4893184534916 1093.8993782883106 7.999999999999999
    vertex 584.1913571658413 1093.9621723888904 7.999999999999999
  endloop
endfacet
facet normal -0.9390268200636849 -0.3438439052841916 -0.0
  outer loop
    vertex 581.4439624155116 1090.675014990247 7.999999999999999
    vertex 581.6863178481556 1090.013149976084 0.0
    vertex 581.6863178481556 1090.013149976084 7.999999999999999
  endloop
endfacet
facet normal -0.9390268200636849 -0.3438439052841916 -0.0
  outer loop
    vertex 581.6863178481556 1090.013149976084 0.0
    vertex 581.4439624155116 1090.675014990247 7.999999999999999
    vertex 581.4439624155116 1090.675014990247 0.0
  endloop
endfacet
facet normal -0.9851430336521664 0.17173585311927891 0.0
  outer loop
    vertex 581.5022148605985 1092.0714233350604 7.999999999999999
    vertex 581.3811683149319 1091.3770537025969 0.0
    vertex 581.3811683149319 1091.3770537025969 7.999999999999999
  endloop
endfacet
facet normal -0.9851430336521664 0.17173585311927891 0.0
  outer loop
    vertex 581.3811683149319 1091.3770537025969 0.0
    vertex 581.5022148605985 1092.0714233350604 7.999999999999999
    vertex 581.5022148605985 1092.0714233350604 0.0
  endloop
endfacet
facet normal -0.8180369058477353 -0.5751657332204896 -0.0
  outer loop
    vertex 581.6863178481556 1090.013149976084 7.999999999999999
    vertex 582.0917184906403 1089.4365636670386 0.0
    vertex 582.0917184906403 1089.4365636670386 7.999999999999999
  endloop
endfacet
facet normal -0.8180369058477353 -0.5751657332204896 -0.0
  outer loop
    vertex 582.0917184906403 1089.4365636670386 0.0
    vertex 581.6863178481556 1090.013149976084 7.999999999999999
    vertex 581.6863178481556 1090.013149976084 0.0
  endloop
endfacet
facet normal 0.1717358531194032 0.9851430336521447 0.0
  outer loop
    vertex 584.1913571658413 1093.9621723888904 7.999999999999999
    vertex 584.8857267983049 1093.8411258432236 0.0
    vertex 584.1913571658413 1093.9621723888904 0.0
  endloop
endfacet
facet normal 0.1717358531194032 0.9851430336521447 0.0
  outer loop
    vertex 584.8857267983049 1093.8411258432236 0.0
    vertex 584.1913571658413 1093.9621723888904 7.999999999999999
    vertex 584.8857267983049 1093.8411258432236 7.999999999999999
  endloop
endfacet
facet normal 0.4208578750868961 0.9071265892792155 0.0
  outer loop
    vertex 584.8857267983049 1093.8411258432236 7.999999999999999
    vertex 585.5251072079298 1093.5444877733587 0.0
    vertex 584.8857267983049 1093.8411258432236 0.0
  endloop
endfacet
facet normal 0.4208578750868961 0.9071265892792155 0.0
  outer loop
    vertex 585.5251072079298 1093.5444877733587 0.0
    vertex 584.8857267983049 1093.8411258432236 7.999999999999999
    vertex 585.5251072079298 1093.5444877733587 7.999999999999999
  endloop
endfacet
facet normal 0.0 0.0 1.0
  outer loop
    vertex 581.4439624155116 1090.675014990247 7.999999999999999
    vertex 581.5022148605985 1092.0714233350604 7.999999999999999
    vertex 581.3811683149319 1091.3770537025969 7.999999999999999
  endloop
endfacet
facet normal 0.0 0.0 1.0
  outer loop
    vertex 581.5022148605985 1092.0714233350604 7.999999999999999
    vertex 581.4439624155116 1090.675014990247 7.999999999999999
    vertex 581.6863178481556 1090.013149976084 7.999999999999999
  endloop
endfacet
facet normal 0.0 0.0 1.0
  outer loop
    vertex 581.5022148605985 1092.0714233350604 7.999999999999999
    vertex 581.6863178481556 1090.013149976084 7.999999999999999
    vertex 581.7988529304636 1092.7108037446853 7.999999999999999
  endloop
endfacet
facet normal 0.0 0.0 1.0
  outer loop
    vertex 581.7988529304636 1092.7108037446853 7.999999999999999
    vertex 581.6863178481556 1090.013149976084 7.999999999999999
    vertex 582.0917184906403 1089.4365636670386 7.999999999999999
  endloop
endfacet
facet normal 0.0 0.0 1.0
  outer loop
    vertex 581.7988529304636 1092.7108037446853 7.999999999999999
    vertex 582.0917184906403 1089.4365636670386 7.999999999999999
    vertex 582.2508671302832 1093.251622213182 7.999999999999999
  endloop
endfacet
facet normal 0.0 0.0 1.0
  outer loop
    vertex 582.2508671302832 1093.251622213182 7.999999999999999
    vertex 582.0917184906403 1089.4365636670386 7.999999999999999
    vertex 582.6325369591368 1088.9845494672193 7.999999999999999
  endloop
endfacet
facet normal 0.0 0.0 1.0
  outer loop
    vertex 582.2508671302832 1093.251622213182 7.999999999999999
    vertex 582.6325369591368 1088.9845494672193 7.999999999999999
    vertex 582.4734753631805 1091.3314871198831 7.999999999999999
  endloop
endfacet
facet normal 0.0 0.0 1.0
  outer loop
    vertex 582.4734753631805 1091.3314871198831 7.999999999999999
    vertex 582.6325369591368 1088.9845494672193 7.999999999999999
    vertex 582.5108435030792 1090.9137109183746 7.999999999999999
  endloop
endfacet
facet normal 0.0 0.0 1.0
  outer loop
    vertex 582.5108435030792 1090.9137109183746 7.999999999999999
    vertex 582.6325369591368 1088.9845494672193 7.999999999999999
    vertex 582.6550667920285 1090.5198416820147 7.999999999999999
  endloop
endfacet
facet normal 0.0 0.0 1.0
  outer loop
    vertex 582.6550667920285 1090.5198416820147 7.999999999999999
    vertex 582.6325369591368 1088.9845494672193 7.999999999999999
    vertex 583.2719173687617 1088.6879113973544 7.999999999999999
  endloop
endfacet
facet normal 0.0 0.0 1.0
  outer loop
    vertex 582.6550667920285 1090.5198416820147 7.999999999999999
    vertex 583.2719173687617 1088.6879113973544 7.999999999999999
    vertex 582.8963166512273 1090.1767209483608 7.999999999999999
  endloop
endfacet
facet normal 0.0 0.0 1.0
  outer loop
    vertex 582.8963166512273 1090.1767209483608 7.999999999999999
    vertex 583.2719173687617 1088.6879113973544 7.999999999999999
    vertex 583.218152301455 1089.9077318283785 7.999999999999999
  endloop
endfacet
facet normal 0.0 0.0 1.0
  outer loop
    vertex 583.218152301455 1089.9077318283785 7.999999999999999
    vertex 583.2719173687617 1088.6879113973544 7.999999999999999
    vertex 583.5986411750073 1089.7312054860686 7.999999999999999
  endloop
endfacet
facet normal 0.0 0.0 1.0
  outer loop
    vertex 583.5986411750073 1089.7312054860686 7.999999999999999
    vertex 583.2719173687617 1088.6879113973544 7.999999999999999
    vertex 583.9662870012253 1088.5668648516873 7.999999999999999
  endloop
endfacet
facet normal 0.0 0.0 1.0
  outer loop
    vertex 583.5986411750073 1089.7312054860686 7.999999999999999
    vertex 583.9662870012253 1088.5668648516873 7.999999999999999
    vertex 584.0118535839391 1089.659171899936 7.999999999999999
  endloop
endfacet
facet normal 0.0 0.0 1.0
  outer loop
    vertex 584.0118535839391 1089.659171899936 7.999999999999999
    vertex 583.9662870012253 1088.5668648516873 7.999999999999999
    vertex 584.6683257135751 1088.6296589522674 7.999999999999999
  endloop
endfacet
facet normal 0.0 0.0 1.0
  outer loop
    vertex 584.0118535839391 1089.659171899936 7.999999999999999
    vertex 584.6683257135751 1088.6296589522674 7.999999999999999
    vertex 584.4296297854476 1089.6965400398349 7.999999999999999
  endloop
endfacet
facet normal 0.0 0.0 1.0
  outer loop
    vertex 584.4296297854476 1089.6965400398349 7.999999999999999
    vertex 584.6683257135751 1088.6296589522674 7.999999999999999
    vertex 584.8234990218077 1089.8407633287843 7.999999999999999
  endloop
endfacet
facet normal 0.0 0.0 1.0
  outer loop
    vertex 584.8234990218077 1089.8407633287843 7.999999999999999
    vertex 584.6683257135751 1088.6296589522674 7.999999999999999
    vertex 585.3301907277383 1088.8720143849112 7.999999999999999
  endloop
endfacet
facet normal 0.0 0.0 1.0
  outer loop
    vertex 584.8234990218077 1089.8407633287843 7.999999999999999
    vertex 585.3301907277383 1088.8720143849112 7.999999999999999
    vertex 585.1666197554614 1090.0820131879827 7.999999999999999
  endloop
endfacet
facet normal 0.0 0.0 1.0
  outer loop
    vertex 585.1666197554614 1090.0820131879827 7.999999999999999
    vertex 585.3301907277383 1088.8720143849112 7.999999999999999
    vertex 585.4356088754438 1090.4038488382105 7.999999999999999
  endloop
endfacet
facet normal 0.0 0.0 1.0
  outer loop
    vertex 585.4356088754438 1090.4038488382105 7.999999999999999
    vertex 585.3301907277383 1088.8720143849112 7.999999999999999
    vertex 585.9067770367835 1089.2774150273958 7.999999999999999
  endloop
endfacet
facet normal 0.0 0.0 1.0
  outer loop
    vertex 585.4356088754438 1090.4038488382105 7.999999999999999
    vertex 585.9067770367835 1089.2774150273958 7.999999999999999
    vertex 585.6121352177536 1090.7843377117629 7.999999999999999
  endloop
endfacet
facet normal 0.0 0.0 1.0
  outer loop
    vertex 585.6121352177536 1090.7843377117629 7.999999999999999
    vertex 585.9067770367835 1089.2774150273958 7.999999999999999
    vertex 585.6841688038862 1091.1975501206946 7.999999999999999
  endloop
endfacet
facet normal 0.0 0.0 1.0
  outer loop
    vertex 582.4734753631805 1091.3314871198831 7.999999999999999
    vertex 582.8274534393283 1093.6570228556666 7.999999999999999
    vertex 582.2508671302832 1093.251622213182 7.999999999999999
  endloop
endfacet
facet normal 0.0 0.0 1.0
  outer loop
    vertex 582.8274534393283 1093.6570228556666 7.999999999999999
    vertex 582.4734753631805 1091.3314871198831 7.999999999999999
    vertex 582.5455089493131 1091.744699528815 7.999999999999999
  endloop
endfacet
facet normal 0.0 0.0 1.0
  outer loop
    vertex 582.8274534393283 1093.6570228556666 7.999999999999999
    vertex 582.5455089493131 1091.744699528815 7.999999999999999
    vertex 582.7220352916229 1092.1251884023673 7.999999999999999
  endloop
endfacet
facet normal 0.0 0.0 1.0
  outer loop
    vertex 582.8274534393283 1093.6570228556666 7.999999999999999
    vertex 582.7220352916229 1092.1251884023673 7.999999999999999
    vertex 582.9910244116052 1092.447024052595 7.999999999999999
  endloop
endfacet
facet normal 0.0 0.0 1.0
  outer loop
    vertex 582.8274534393283 1093.6570228556666 7.999999999999999
    vertex 582.9910244116052 1092.447024052595 7.999999999999999
    vertex 583.4893184534916 1093.8993782883106 7.999999999999999
  endloop
endfacet
facet normal 0.0 0.0 1.0
  outer loop
    vertex 583.4893184534916 1093.8993782883106 7.999999999999999
    vertex 582.9910244116052 1092.447024052595 7.999999999999999
    vertex 583.3341451452588 1092.6882739117934 7.999999999999999
  endloop
endfacet
facet normal 0.0 0.0 1.0
  outer loop
    vertex 583.4893184534916 1093.8993782883106 7.999999999999999
    vertex 583.3341451452588 1092.6882739117934 7.999999999999999
    vertex 583.7280143816191 1092.832497200743 7.999999999999999
  endloop
endfacet
facet normal 0.0 0.0 1.0
  outer loop
    vertex 583.4893184534916 1093.8993782883106 7.999999999999999
    vertex 583.7280143816191 1092.832497200743 7.999999999999999
    vertex 584.1913571658413 1093.9621723888904 7.999999999999999
  endloop
endfacet
facet normal 0.0 0.0 1.0
  outer loop
    vertex 584.1913571658413 1093.9621723888904 7.999999999999999
    vertex 583.7280143816191 1092.832497200743 7.999999999999999
    vertex 584.1457905831276 1092.8698653406418 7.999999999999999
  endloop
endfacet
facet normal 0.0 0.0 1.0
  outer loop
    vertex 584.1913571658413 1093.9621723888904 7.999999999999999
    vertex 584.1457905831276 1092.8698653406418 7.999999999999999
    vertex 584.5590029920594 1092.7978317545094 7.999999999999999
  endloop
endfacet
facet normal 0.0 0.0 1.0
  outer loop
    vertex 584.1913571658413 1093.9621723888904 7.999999999999999
    vertex 584.5590029920594 1092.7978317545094 7.999999999999999
    vertex 584.8857267983049 1093.8411258432236 7.999999999999999
  endloop
endfacet
facet normal 0.0 0.0 1.0
  outer loop
    vertex 584.8857267983049 1093.8411258432236 7.999999999999999
    vertex 584.5590029920594 1092.7978317545094 7.999999999999999
    vertex 584.9394918656117 1092.6213054121995 7.999999999999999
  endloop
endfacet
facet normal 0.0 0.0 1.0
  outer loop
    vertex 584.8857267983049 1093.8411258432236 7.999999999999999
    vertex 584.9394918656117 1092.6213054121995 7.999999999999999
    vertex 585.5251072079298 1093.5444877733587 7.999999999999999
  endloop
endfacet
facet normal 0.0 0.0 1.0
  outer loop
    vertex 585.5251072079298 1093.5444877733587 7.999999999999999
    vertex 584.9394918656117 1092.6213054121995 7.999999999999999
    vertex 585.2613275158393 1092.352316292217 7.999999999999999
  endloop
endfacet
facet normal 0.0 0.0 1.0
  outer loop
    vertex 585.5251072079298 1093.5444877733587 7.999999999999999
    vertex 585.2613275158393 1092.352316292217 7.999999999999999
    vertex 585.5025773750381 1092.0091955585633 7.999999999999999
  endloop
endfacet
facet normal 0.0 0.0 1.0
  outer loop
    vertex 585.5251072079298 1093.5444877733587 7.999999999999999
    vertex 585.5025773750381 1092.0091955585633 7.999999999999999
    vertex 585.6468006639875 1091.6153263222031 7.999999999999999
  endloop
endfacet
facet normal 0.0 0.0 1.0
  outer loop
    vertex 585.5251072079298 1093.5444877733587 7.999999999999999
    vertex 585.6468006639875 1091.6153263222031 7.999999999999999
    vertex 586.0659256764263 1093.092473573539 7.999999999999999
  endloop
endfacet
facet normal 0.0 0.0 1.0
  outer loop
    vertex 586.0659256764263 1093.092473573539 7.999999999999999
    vertex 585.6468006639875 1091.6153263222031 7.999999999999999
    vertex 585.6841688038862 1091.1975501206946 7.999999999999999
  endloop
endfacet
facet normal 0.0 0.0 1.0
  outer loop
    vertex 586.0659256764263 1093.092473573539 7.999999999999999
    vertex 585.6841688038862 1091.1975501206946 7.999999999999999
    vertex 585.9067770367835 1089.2774150273958 7.999999999999999
  endloop
endfacet
facet normal 0.0 0.0 1.0
  outer loop
    vertex 586.0659256764263 1093.092473573539 7.999999999999999
    vertex 585.9067770367835 1089.2774150273958 7.999999999999999
    vertex 586.358791236603 1089.8182334958924 7.999999999999999
  endloop
endfacet
facet normal 0.0 0.0 1.0
  outer loop
    vertex 586.0659256764263 1093.092473573539 7.999999999999999
    vertex 586.358791236603 1089.8182334958924 7.999999999999999
    vertex 586.471326318911 1092.515887264494 7.999999999999999
  endloop
endfacet
facet normal 0.0 0.0 1.0
  outer loop
    vertex 586.471326318911 1092.515887264494 7.999999999999999
    vertex 586.358791236603 1089.8182334958924 7.999999999999999
    vertex 586.655429306468 1090.4576139055173 7.999999999999999
  endloop
endfacet
facet normal 0.0 0.0 1.0
  outer loop
    vertex 586.471326318911 1092.515887264494 7.999999999999999
    vertex 586.655429306468 1090.4576139055173 7.999999999999999
    vertex 586.713681751555 1091.8540222503307 7.999999999999999
  endloop
endfacet
facet normal 0.0 0.0 1.0
  outer loop
    vertex 586.713681751555 1091.8540222503307 7.999999999999999
    vertex 586.655429306468 1090.4576139055173 7.999999999999999
    vertex 586.7764758521348 1091.1519835379809 7.999999999999999
  endloop
endfacet
facet normal -0.767290966944377 0.6412991283680051 0.0
  outer loop
    vertex 582.2508671302832 1093.251622213182 7.999999999999999
    vertex 581.7988529304636 1092.7108037446853 0.0
    vertex 581.7988529304636 1092.7108037446853 7.999999999999999
  endloop
endfacet
facet normal -0.767290966944377 0.6412991283680051 0.0
  outer loop
    vertex 581.7988529304636 1092.7108037446853 0.0
    vertex 582.2508671302832 1093.251622213182 7.999999999999999
    vertex 582.2508671302832 1093.251622213182 0.0
  endloop
endfacet
facet normal -0.8180369058477209 -0.5751657332205102 -0.0
  outer loop
    vertex 585.2613275158393 1092.352316292217 7.999999999999999
    vertex 585.5025773750381 1092.0091955585633 0.0
    vertex 585.5025773750381 1092.0091955585633 7.999999999999999
  endloop
endfacet
facet normal -0.8180369058477209 -0.5751657332205102 -0.0
  outer loop
    vertex 585.5025773750381 1092.0091955585633 0.0
    vertex 585.2613275158393 1092.352316292217 7.999999999999999
    vertex 585.2613275158393 1092.352316292217 0.0
  endloop
endfacet
facet normal 0.8180369058477353 0.5751657332204896 0.0
  outer loop
    vertex 586.0659256764263 1093.092473573539 0.0
    vertex 586.471326318911 1092.515887264494 7.999999999999999
    vertex 586.471326318911 1092.515887264494 0.0
  endloop
endfacet
facet normal 0.8180369058477353 0.5751657332204896 0.0
  outer loop
    vertex 586.471326318911 1092.515887264494 7.999999999999999
    vertex 586.0659256764263 1093.092473573539 0.0
    vertex 586.0659256764263 1093.092473573539 7.999999999999999
  endloop
endfacet
facet normal 0.767290966944377 -0.6412991283680051 0.0
  outer loop
    vertex 586.358791236603 1089.8182334958924 0.0
    vertex 585.9067770367835 1089.2774150273958 7.999999999999999
    vertex 585.9067770367835 1089.2774150273958 0.0
  endloop
endfacet
facet normal 0.767290966944377 -0.6412991283680051 0.0
  outer loop
    vertex 585.9067770367835 1089.2774150273958 7.999999999999999
    vertex 586.358791236603 1089.8182334958924 0.0
    vertex 586.358791236603 1089.8182334958924 7.999999999999999
  endloop
endfacet
facet normal 0.08908968343142072 -0.996023608307599 0.0
  outer loop
    vertex 584.1457905831276 1092.8698653406418 7.999999999999999
    vertex 583.7280143816191 1092.832497200743 0.0
    vertex 584.1457905831276 1092.8698653406418 0.0
  endloop
endfacet
facet normal 0.08908968343142072 -0.996023608307599 0.0
  outer loop
    vertex 583.7280143816191 1092.832497200743 0.0
    vertex 584.1457905831276 1092.8698653406418 7.999999999999999
    vertex 583.7280143816191 1092.832497200743 7.999999999999999
  endloop
endfacet
facet normal -0.34384390528403735 0.9390268200637413 0.0
  outer loop
    vertex 582.8274534393283 1093.6570228556666 7.999999999999999
    vertex 583.4893184534916 1093.8993782883106 0.0
    vertex 582.8274534393283 1093.6570228556666 0.0
  endloop
endfacet
facet normal -0.34384390528403735 0.9390268200637413 0.0
  outer loop
    vertex 583.4893184534916 1093.8993782883106 0.0
    vertex 582.8274534393283 1093.6570228556666 7.999999999999999
    vertex 583.4893184534916 1093.8993782883106 7.999999999999999
  endloop
endfacet
facet normal 0.9960236083075816 0.08908968343161507 0.0
  outer loop
    vertex 582.4734753631805 1091.3314871198831 0.0
    vertex 582.5108435030792 1090.9137109183746 7.999999999999999
    vertex 582.5108435030792 1090.9137109183746 0.0
  endloop
endfacet
facet normal 0.9960236083075816 0.08908968343161507 0.0
  outer loop
    vertex 582.5108435030792 1090.9137109183746 7.999999999999999
    vertex 582.4734753631805 1091.3314871198831 0.0
    vertex 582.4734753631805 1091.3314871198831 7.999999999999999
  endloop
endfacet
facet normal -0.5751657332205499 0.8180369058476931 0.0
  outer loop
    vertex 582.2508671302832 1093.251622213182 7.999999999999999
    vertex 582.8274534393283 1093.6570228556666 0.0
    vertex 582.2508671302832 1093.251622213182 0.0
  endloop
endfacet
facet normal -0.5751657332205499 0.8180369058476931 0.0
  outer loop
    vertex 582.8274534393283 1093.6570228556666 0.0
    vertex 582.2508671302832 1093.251622213182 7.999999999999999
    vertex 582.8274534393283 1093.6570228556666 7.999999999999999
  endloop
endfacet
facet normal -0.9960236083075951 -0.0890896834314635 -0.0
  outer loop
    vertex 581.3811683149319 1091.3770537025969 7.999999999999999
    vertex 581.4439624155116 1090.675014990247 0.0
    vertex 581.4439624155116 1090.675014990247 7.999999999999999
  endloop
endfacet
facet normal -0.9960236083075951 -0.0890896834314635 -0.0
  outer loop
    vertex 581.4439624155116 1090.675014990247 0.0
    vertex 581.3811683149319 1091.3770537025969 7.999999999999999
    vertex 581.3811683149319 1091.3770537025969 0.0
  endloop
endfacet
facet normal 0.4208578750871072 0.9071265892791175 0.0
  outer loop
    vertex 583.218152301455 1089.9077318283785 7.999999999999999
    vertex 583.5986411750073 1089.7312054860686 0.0
    vertex 583.218152301455 1089.9077318283785 0.0
  endloop
endfacet
facet normal 0.4208578750871072 0.9071265892791175 0.0
  outer loop
    vertex 583.5986411750073 1089.7312054860686 0.0
    vertex 583.218152301455 1089.9077318283785 7.999999999999999
    vertex 583.5986411750073 1089.7312054860686 7.999999999999999
  endloop
endfacet
facet normal 0.9851430336521664 -0.17173585311927891 0.0
  outer loop
    vertex 586.7764758521348 1091.1519835379809 0.0
    vertex 586.655429306468 1090.4576139055173 7.999999999999999
    vertex 586.655429306468 1090.4576139055173 0.0
  endloop
endfacet
facet normal 0.9851430336521664 -0.17173585311927891 0.0
  outer loop
    vertex 586.655429306468 1090.4576139055173 7.999999999999999
    vertex 586.7764758521348 1091.1519835379809 0.0
    vertex 586.7764758521348 1091.1519835379809 7.999999999999999
  endloop
endfacet
facet normal -0.1717358531194032 -0.9851430336521447 -0.0
  outer loop
    vertex 583.9662870012253 1088.5668648516873 7.999999999999999
    vertex 583.2719173687617 1088.6879113973544 0.0
    vertex 583.9662870012253 1088.5668648516873 0.0
  endloop
endfacet
facet normal -0.1717358531194032 -0.9851430336521447 -0.0
  outer loop
    vertex 583.2719173687617 1088.6879113973544 0.0
    vertex 583.9662870012253 1088.5668648516873 7.999999999999999
    vertex 583.2719173687617 1088.6879113973544 7.999999999999999
  endloop
endfacet
facet normal 0.9390268200637353 0.34384390528405395 0.0
  outer loop
    vertex 582.5108435030792 1090.9137109183746 0.0
    vertex 582.6550667920285 1090.5198416820147 7.999999999999999
    vertex 582.6550667920285 1090.5198416820147 0.0
  endloop
endfacet
facet normal 0.9390268200637353 0.34384390528405395 0.0
  outer loop
    vertex 582.6550667920285 1090.5198416820147 7.999999999999999
    vertex 582.5108435030792 1090.9137109183746 0.0
    vertex 582.5108435030792 1090.9137109183746 7.999999999999999
  endloop
endfacet
facet normal 0.6412991283681014 0.7672909669442964 0.0
  outer loop
    vertex 582.8963166512273 1090.1767209483608 7.999999999999999
    vertex 583.218152301455 1089.9077318283785 0.0
    vertex 582.8963166512273 1090.1767209483608 0.0
  endloop
endfacet
facet normal 0.6412991283681014 0.7672909669442964 0.0
  outer loop
    vertex 583.218152301455 1089.9077318283785 0.0
    vertex 582.8963166512273 1090.1767209483608 7.999999999999999
    vertex 583.218152301455 1089.9077318283785 7.999999999999999
  endloop
endfacet
facet normal 0.7672909669444907 -0.641299128367869 0.0
  outer loop
    vertex 582.9910244116052 1092.447024052595 0.0
    vertex 582.7220352916229 1092.1251884023673 7.999999999999999
    vertex 582.7220352916229 1092.1251884023673 0.0
  endloop
endfacet
facet normal 0.7672909669444907 -0.641299128367869 0.0
  outer loop
    vertex 582.7220352916229 1092.1251884023673 7.999999999999999
    vertex 582.9910244116052 1092.447024052595 0.0
    vertex 582.9910244116052 1092.447024052595 7.999999999999999
  endloop
endfacet
facet normal -0.5751657332201795 0.8180369058479535 0.0
  outer loop
    vertex 584.8234990218077 1089.8407633287843 7.999999999999999
    vertex 585.1666197554614 1090.0820131879827 0.0
    vertex 584.8234990218077 1089.8407633287843 0.0
  endloop
endfacet
facet normal -0.5751657332201795 0.8180369058479535 0.0
  outer loop
    vertex 585.1666197554614 1090.0820131879827 0.0
    vertex 584.8234990218077 1089.8407633287843 7.999999999999999
    vertex 585.1666197554614 1090.0820131879827 7.999999999999999
  endloop
endfacet
facet normal -0.9390268200637353 -0.34384390528405395 -0.0
  outer loop
    vertex 585.5025773750381 1092.0091955585633 7.999999999999999
    vertex 585.6468006639875 1091.6153263222031 0.0
    vertex 585.6468006639875 1091.6153263222031 7.999999999999999
  endloop
endfacet
facet normal -0.9390268200637353 -0.34384390528405395 -0.0
  outer loop
    vertex 585.6468006639875 1091.6153263222031 0.0
    vertex 585.5025773750381 1092.0091955585633 7.999999999999999
    vertex 585.5025773750381 1092.0091955585633 0.0
  endloop
endfacet
facet normal -0.6412991283681014 -0.7672909669442964 -0.0
  outer loop
    vertex 585.2613275158393 1092.352316292217 7.999999999999999
    vertex 584.9394918656117 1092.6213054121995 0.0
    vertex 585.2613275158393 1092.352316292217 0.0
  endloop
endfacet
facet normal -0.6412991283681014 -0.7672909669442964 -0.0
  outer loop
    vertex 584.9394918656117 1092.6213054121995 0.0
    vertex 585.2613275158393 1092.352316292217 7.999999999999999
    vertex 584.9394918656117 1092.6213054121995 7.999999999999999
  endloop
endfacet
facet normal -0.17173585311927084 -0.9851430336521678 -0.0
  outer loop
    vertex 584.5590029920594 1092.7978317545094 7.999999999999999
    vertex 584.1457905831276 1092.8698653406418 0.0
    vertex 584.5590029920594 1092.7978317545094 0.0
  endloop
endfacet
facet normal -0.17173585311927084 -0.9851430336521678 -0.0
  outer loop
    vertex 584.1457905831276 1092.8698653406418 0.0
    vertex 584.5590029920594 1092.7978317545094 7.999999999999999
    vertex 584.1457905831276 1092.8698653406418 7.999999999999999
  endloop
endfacet
facet normal -0.9071265892791616 0.42085787508701233 0.0
  outer loop
    vertex 585.6121352177536 1090.7843377117629 7.999999999999999
    vertex 585.4356088754438 1090.4038488382105 0.0
    vertex 585.4356088754438 1090.4038488382105 7.999999999999999
  endloop
endfacet
facet normal -0.9071265892791616 0.42085787508701233 0.0
  outer loop
    vertex 585.4356088754438 1090.4038488382105 0.0
    vertex 585.6121352177536 1090.7843377117629 7.999999999999999
    vertex 585.6121352177536 1090.7843377117629 0.0
  endloop
endfacet
facet normal 0.5751657332201795 -0.8180369058479535 0.0
  outer loop
    vertex 583.3341451452588 1092.6882739117934 7.999999999999999
    vertex 582.9910244116052 1092.447024052595 0.0
    vertex 583.3341451452588 1092.6882739117934 0.0
  endloop
endfacet
facet normal 0.5751657332201795 -0.8180369058479535 0.0
  outer loop
    vertex 582.9910244116052 1092.447024052595 0.0
    vertex 583.3341451452588 1092.6882739117934 7.999999999999999
    vertex 582.9910244116052 1092.447024052595 7.999999999999999
  endloop
endfacet
facet normal 0.8180369058477209 0.5751657332205102 0.0
  outer loop
    vertex 582.6550667920285 1090.5198416820147 0.0
    vertex 582.8963166512273 1090.1767209483608 7.999999999999999
    vertex 582.8963166512273 1090.1767209483608 0.0
  endloop
endfacet
facet normal 0.8180369058477209 0.5751657332205102 0.0
  outer loop
    vertex 582.8963166512273 1090.1767209483608 7.999999999999999
    vertex 582.6550667920285 1090.5198416820147 0.0
    vertex 582.6550667920285 1090.5198416820147 7.999999999999999
  endloop
endfacet
facet normal -0.9960236083075816 -0.08908968343161507 -0.0
  outer loop
    vertex 585.6468006639875 1091.6153263222031 7.999999999999999
    vertex 585.6841688038862 1091.1975501206946 0.0
    vertex 585.6841688038862 1091.1975501206946 7.999999999999999
  endloop
endfacet
facet normal -0.9960236083075816 -0.08908968343161507 -0.0
  outer loop
    vertex 585.6841688038862 1091.1975501206946 0.0
    vertex 585.6468006639875 1091.6153263222031 7.999999999999999
    vertex 585.6468006639875 1091.6153263222031 0.0
  endloop
endfacet
facet normal -0.7672909669444907 0.641299128367869 0.0
  outer loop
    vertex 585.4356088754438 1090.4038488382105 7.999999999999999
    vertex 585.1666197554614 1090.0820131879827 0.0
    vertex 585.1666197554614 1090.0820131879827 7.999999999999999
  endloop
endfacet
facet normal -0.7672909669444907 0.641299128367869 0.0
  outer loop
    vertex 585.1666197554614 1090.0820131879827 0.0
    vertex 585.4356088754438 1090.4038488382105 7.999999999999999
    vertex 585.4356088754438 1090.4038488382105 0.0
  endloop
endfacet
facet normal 0.9071265892791616 -0.42085787508701233 0.0
  outer loop
    vertex 582.7220352916229 1092.1251884023673 0.0
    vertex 582.5455089493131 1091.744699528815 7.999999999999999
    vertex 582.5455089493131 1091.744699528815 0.0
  endloop
endfacet
facet normal 0.9071265892791616 -0.42085787508701233 0.0
  outer loop
    vertex 582.5455089493131 1091.744699528815 7.999999999999999
    vertex 582.7220352916229 1092.1251884023673 0.0
    vertex 582.7220352916229 1092.1251884023673 7.999999999999999
  endloop
endfacet
facet normal 0.34384390528448416 -0.9390268200635778 0.0
  outer loop
    vertex 583.7280143816191 1092.832497200743 7.999999999999999
    vertex 583.3341451452588 1092.6882739117934 0.0
    vertex 583.7280143816191 1092.832497200743 0.0
  endloop
endfacet
facet normal 0.34384390528448416 -0.9390268200635778 0.0
  outer loop
    vertex 583.3341451452588 1092.6882739117934 0.0
    vertex 583.7280143816191 1092.832497200743 7.999999999999999
    vertex 583.3341451452588 1092.6882739117934 7.999999999999999
  endloop
endfacet
facet normal 0.9851430336521014 -0.17173585311965203 0.0
  outer loop
    vertex 582.5455089493131 1091.744699528815 0.0
    vertex 582.4734753631805 1091.3314871198831 7.999999999999999
    vertex 582.4734753631805 1091.3314871198831 0.0
  endloop
endfacet
facet normal 0.9851430336521014 -0.17173585311965203 0.0
  outer loop
    vertex 582.4734753631805 1091.3314871198831 7.999999999999999
    vertex 582.5455089493131 1091.744699528815 0.0
    vertex 582.5455089493131 1091.744699528815 7.999999999999999
  endloop
endfacet
facet normal -0.4208578750871072 -0.9071265892791175 -0.0
  outer loop
    vertex 584.9394918656117 1092.6213054121995 7.999999999999999
    vertex 584.5590029920594 1092.7978317545094 0.0
    vertex 584.9394918656117 1092.6213054121995 0.0
  endloop
endfacet
facet normal -0.4208578750871072 -0.9071265892791175 -0.0
  outer loop
    vertex 584.5590029920594 1092.7978317545094 0.0
    vertex 584.9394918656117 1092.6213054121995 7.999999999999999
    vertex 584.5590029920594 1092.7978317545094 7.999999999999999
  endloop
endfacet
facet normal -0.9851430336521014 0.17173585311965203 0.0
  outer loop
    vertex 585.6841688038862 1091.1975501206946 7.999999999999999
    vertex 585.6121352177536 1090.7843377117629 0.0
    vertex 585.6121352177536 1090.7843377117629 7.999999999999999
  endloop
endfacet
facet normal -0.9851430336521014 0.17173585311965203 0.0
  outer loop
    vertex 585.6121352177536 1090.7843377117629 0.0
    vertex 585.6841688038862 1091.1975501206946 7.999999999999999
    vertex 585.6841688038862 1091.1975501206946 0.0
  endloop
endfacet
facet normal 0.17173585311927084 0.9851430336521678 0.0
  outer loop
    vertex 583.5986411750073 1089.7312054860686 7.999999999999999
    vertex 584.0118535839391 1089.659171899936 0.0
    vertex 583.5986411750073 1089.7312054860686 0.0
  endloop
endfacet
facet normal 0.17173585311927084 0.9851430336521678 0.0
  outer loop
    vertex 584.0118535839391 1089.659171899936 0.0
    vertex 583.5986411750073 1089.7312054860686 7.999999999999999
    vertex 584.0118535839391 1089.659171899936 7.999999999999999
  endloop
endfacet
facet normal -0.3438439052841742 0.9390268200636912 0.0
  outer loop
    vertex 584.4296297854476 1089.6965400398349 7.999999999999999
    vertex 584.8234990218077 1089.8407633287843 0.0
    vertex 584.4296297854476 1089.6965400398349 0.0
  endloop
endfacet
facet normal -0.3438439052841742 0.9390268200636912 0.0
  outer loop
    vertex 584.8234990218077 1089.8407633287843 0.0
    vertex 584.4296297854476 1089.6965400398349 7.999999999999999
    vertex 584.8234990218077 1089.8407633287843 7.999999999999999
  endloop
endfacet
endsolid Main_Body_RevB1
