solid Main_Body_RevB1
facet normal 0.0 0.0 -1.0
  outer loop
    vertex 585.495275508169 1101.965000829183 0.49999999999999994
    vertex 585.1412974320211 1099.6394650933996 0.49999999999999994
    vertex 584.9186891991238 1101.5596001866984 0.49999999999999994
  endloop
endfacet
facet normal 0.0 0.0 -1.0
  outer loop
    vertex 585.1412974320211 1099.6394650933996 0.49999999999999994
    vertex 585.495275508169 1101.965000829183 0.49999999999999994
    vertex 585.2133310181538 1100.0526775023316 0.49999999999999994
  endloop
endfacet
facet normal 0.0 0.0 -1.0
  outer loop
    vertex 585.2133310181538 1100.0526775023316 0.49999999999999994
    vertex 585.495275508169 1101.965000829183 0.49999999999999994
    vertex 585.3898573604637 1100.4331663758837 0.49999999999999994
  endloop
endfacet
facet normal 0.0 0.0 -1.0
  outer loop
    vertex 585.3898573604637 1100.4331663758837 0.49999999999999994
    vertex 585.495275508169 1101.965000829183 0.49999999999999994
    vertex 585.658846480446 1100.7550020261115 0.49999999999999994
  endloop
endfacet
facet normal 0.0 0.0 -1.0
  outer loop
    vertex 585.658846480446 1100.7550020261115 0.49999999999999994
    vertex 585.495275508169 1101.965000829183 0.49999999999999994
    vertex 586.1571405223323 1102.207356261827 0.49999999999999994
  endloop
endfacet
facet normal 0.0 0.0 -1.0
  outer loop
    vertex 585.658846480446 1100.7550020261115 0.49999999999999994
    vertex 586.1571405223323 1102.207356261827 0.49999999999999994
    vertex 586.0019672140996 1100.99625188531 0.49999999999999994
  endloop
endfacet
facet normal 0.0 0.0 -1.0
  outer loop
    vertex 586.0019672140996 1100.99625188531 0.49999999999999994
    vertex 586.1571405223323 1102.207356261827 0.49999999999999994
    vertex 586.3958364504599 1101.1404751742596 0.49999999999999994
  endloop
endfacet
facet normal 0.0 0.0 -1.0
  outer loop
    vertex 586.3958364504599 1101.1404751742596 0.49999999999999994
    vertex 586.1571405223323 1102.207356261827 0.49999999999999994
    vertex 586.8591792346821 1102.2701503624069 0.49999999999999994
  endloop
endfacet
facet normal 0.0 0.0 -1.0
  outer loop
    vertex 586.3958364504599 1101.1404751742596 0.49999999999999994
    vertex 586.8591792346821 1102.2701503624069 0.49999999999999994
    vertex 586.8136126519684 1101.1778433141583 0.49999999999999994
  endloop
endfacet
facet normal 0.0 0.0 -1.0
  outer loop
    vertex 586.8136126519684 1101.1778433141583 0.49999999999999994
    vertex 586.8591792346821 1102.2701503624069 0.49999999999999994
    vertex 587.2268250609001 1101.1058097280259 0.49999999999999994
  endloop
endfacet
facet normal 0.0 0.0 -1.0
  outer loop
    vertex 587.2268250609001 1101.1058097280259 0.49999999999999994
    vertex 586.8591792346821 1102.2701503624069 0.49999999999999994
    vertex 587.5535488671457 1102.14910381674 0.49999999999999994
  endloop
endfacet
facet normal 0.0 0.0 -1.0
  outer loop
    vertex 587.2268250609001 1101.1058097280259 0.49999999999999994
    vertex 587.5535488671457 1102.14910381674 0.49999999999999994
    vertex 587.6073139344525 1100.929283385716 0.49999999999999994
  endloop
endfacet
facet normal 0.0 0.0 -1.0
  outer loop
    vertex 587.6073139344525 1100.929283385716 0.49999999999999994
    vertex 587.5535488671457 1102.14910381674 0.49999999999999994
    vertex 588.1929292767705 1101.8524657468752 0.49999999999999994
  endloop
endfacet
facet normal 0.0 0.0 -1.0
  outer loop
    vertex 587.6073139344525 1100.929283385716 0.49999999999999994
    vertex 588.1929292767705 1101.8524657468752 0.49999999999999994
    vertex 587.9291495846801 1100.6602942657335 0.49999999999999994
  endloop
endfacet
facet normal 0.0 0.0 -1.0
  outer loop
    vertex 587.9291495846801 1100.6602942657335 0.49999999999999994
    vertex 588.1929292767705 1101.8524657468752 0.49999999999999994
    vertex 588.1703994438789 1100.3171735320798 0.49999999999999994
  endloop
endfacet
facet normal 0.0 0.0 -1.0
  outer loop
    vertex 588.1703994438789 1100.3171735320798 0.49999999999999994
    vertex 588.1929292767705 1101.8524657468752 0.49999999999999994
    vertex 588.3146227328282 1099.9233042957196 0.49999999999999994
  endloop
endfacet
facet normal 0.0 0.0 -1.0
  outer loop
    vertex 588.3146227328282 1099.9233042957196 0.49999999999999994
    vertex 588.1929292767705 1101.8524657468752 0.49999999999999994
    vertex 588.733747745267 1101.4004515470556 0.49999999999999994
  endloop
endfacet
facet normal 0.0 0.0 -1.0
  outer loop
    vertex 588.3146227328282 1099.9233042957196 0.49999999999999994
    vertex 588.733747745267 1101.4004515470556 0.49999999999999994
    vertex 588.3519908727269 1099.505528094211 0.49999999999999994
  endloop
endfacet
facet normal 0.0 0.0 -1.0
  outer loop
    vertex 588.3519908727269 1099.505528094211 0.49999999999999994
    vertex 588.733747745267 1101.4004515470556 0.49999999999999994
    vertex 588.5745991056242 1097.5853930009123 0.49999999999999994
  endloop
endfacet
facet normal 0.0 0.0 -1.0
  outer loop
    vertex 588.5745991056242 1097.5853930009123 0.49999999999999994
    vertex 588.733747745267 1101.4004515470556 0.49999999999999994
    vertex 589.0266133054438 1098.1262114694089 0.49999999999999994
  endloop
endfacet
facet normal 0.0 0.0 -1.0
  outer loop
    vertex 589.0266133054438 1098.1262114694089 0.49999999999999994
    vertex 588.733747745267 1101.4004515470556 0.49999999999999994
    vertex 589.1391483877518 1100.8238652380103 0.49999999999999994
  endloop
endfacet
facet normal 0.0 0.0 -1.0
  outer loop
    vertex 589.0266133054438 1098.1262114694089 0.49999999999999994
    vertex 589.1391483877518 1100.8238652380103 0.49999999999999994
    vertex 589.3232513753088 1098.7655918790338 0.49999999999999994
  endloop
endfacet
facet normal 0.0 0.0 -1.0
  outer loop
    vertex 589.3232513753088 1098.7655918790338 0.49999999999999994
    vertex 589.1391483877518 1100.8238652380103 0.49999999999999994
    vertex 589.3815038203958 1100.1620002238471 0.49999999999999994
  endloop
endfacet
facet normal 0.0 0.0 -1.0
  outer loop
    vertex 589.3232513753088 1098.7655918790338 0.49999999999999994
    vertex 589.3815038203958 1100.1620002238471 0.49999999999999994
    vertex 589.4442979209756 1099.4599615114973 0.49999999999999994
  endloop
endfacet
facet normal 0.0 0.0 -1.0
  outer loop
    vertex 584.1700369294393 1100.379401308577 0.49999999999999994
    vertex 584.1117844843524 1098.9829929637635 0.49999999999999994
    vertex 584.0489903837725 1099.6850316761133 0.49999999999999994
  endloop
endfacet
facet normal 0.0 0.0 -1.0
  outer loop
    vertex 584.1117844843524 1098.9829929637635 0.49999999999999994
    vertex 584.1700369294393 1100.379401308577 0.49999999999999994
    vertex 584.3541399169964 1098.3211279496004 0.49999999999999994
  endloop
endfacet
facet normal 0.0 0.0 -1.0
  outer loop
    vertex 584.3541399169964 1098.3211279496004 0.49999999999999994
    vertex 584.1700369294393 1100.379401308577 0.49999999999999994
    vertex 584.4666749993044 1101.0187817182018 0.49999999999999994
  endloop
endfacet
facet normal 0.0 0.0 -1.0
  outer loop
    vertex 584.3541399169964 1098.3211279496004 0.49999999999999994
    vertex 584.4666749993044 1101.0187817182018 0.49999999999999994
    vertex 584.759540559481 1097.744541640555 0.49999999999999994
  endloop
endfacet
facet normal 0.0 0.0 -1.0
  outer loop
    vertex 584.759540559481 1097.744541640555 0.49999999999999994
    vertex 584.4666749993044 1101.0187817182018 0.49999999999999994
    vertex 584.9186891991238 1101.5596001866984 0.49999999999999994
  endloop
endfacet
facet normal 0.0 0.0 -1.0
  outer loop
    vertex 584.759540559481 1097.744541640555 0.49999999999999994
    vertex 584.9186891991238 1101.5596001866984 0.49999999999999994
    vertex 585.3003590279776 1097.2925274407355 0.49999999999999994
  endloop
endfacet
facet normal 0.0 0.0 -1.0
  outer loop
    vertex 585.3003590279776 1097.2925274407355 0.49999999999999994
    vertex 584.9186891991238 1101.5596001866984 0.49999999999999994
    vertex 585.1412974320211 1099.6394650933996 0.49999999999999994
  endloop
endfacet
facet normal 0.0 0.0 -1.0
  outer loop
    vertex 585.3003590279776 1097.2925274407355 0.49999999999999994
    vertex 585.1412974320211 1099.6394650933996 0.49999999999999994
    vertex 585.1786655719199 1099.221688891891 0.49999999999999994
  endloop
endfacet
facet normal 0.0 0.0 -1.0
  outer loop
    vertex 585.3003590279776 1097.2925274407355 0.49999999999999994
    vertex 585.1786655719199 1099.221688891891 0.49999999999999994
    vertex 585.3228888608693 1098.827819655531 0.49999999999999994
  endloop
endfacet
facet normal 0.0 0.0 -1.0
  outer loop
    vertex 585.3003590279776 1097.2925274407355 0.49999999999999994
    vertex 585.3228888608693 1098.827819655531 0.49999999999999994
    vertex 585.9397394376025 1096.9958893708706 0.49999999999999994
  endloop
endfacet
facet normal 0.0 0.0 -1.0
  outer loop
    vertex 585.9397394376025 1096.9958893708706 0.49999999999999994
    vertex 585.3228888608693 1098.827819655531 0.49999999999999994
    vertex 585.5641387200681 1098.4846989218772 0.49999999999999994
  endloop
endfacet
facet normal 0.0 0.0 -1.0
  outer loop
    vertex 585.9397394376025 1096.9958893708706 0.49999999999999994
    vertex 585.5641387200681 1098.4846989218772 0.49999999999999994
    vertex 585.8859743702957 1098.2157098018947 0.49999999999999994
  endloop
endfacet
facet normal 0.0 0.0 -1.0
  outer loop
    vertex 585.9397394376025 1096.9958893708706 0.49999999999999994
    vertex 585.8859743702957 1098.2157098018947 0.49999999999999994
    vertex 586.266463243848 1098.0391834595848 0.49999999999999994
  endloop
endfacet
facet normal 0.0 0.0 -1.0
  outer loop
    vertex 585.9397394376025 1096.9958893708706 0.49999999999999994
    vertex 586.266463243848 1098.0391834595848 0.49999999999999994
    vertex 586.6341090700661 1096.8748428252038 0.49999999999999994
  endloop
endfacet
facet normal 0.0 0.0 -1.0
  outer loop
    vertex 586.6341090700661 1096.8748428252038 0.49999999999999994
    vertex 586.266463243848 1098.0391834595848 0.49999999999999994
    vertex 586.6796756527798 1097.9671498734524 0.49999999999999994
  endloop
endfacet
facet normal 0.0 0.0 -1.0
  outer loop
    vertex 586.6341090700661 1096.8748428252038 0.49999999999999994
    vertex 586.6796756527798 1097.9671498734524 0.49999999999999994
    vertex 587.3361477824158 1096.9376369257836 0.49999999999999994
  endloop
endfacet
facet normal 0.0 0.0 -1.0
  outer loop
    vertex 587.3361477824158 1096.9376369257836 0.49999999999999994
    vertex 586.6796756527798 1097.9671498734524 0.49999999999999994
    vertex 587.0974518542884 1098.0045180133513 0.49999999999999994
  endloop
endfacet
facet normal 0.0 0.0 -1.0
  outer loop
    vertex 587.3361477824158 1096.9376369257836 0.49999999999999994
    vertex 587.0974518542884 1098.0045180133513 0.49999999999999994
    vertex 587.4913210906485 1098.1487413023008 0.49999999999999994
  endloop
endfacet
facet normal 0.0 0.0 -1.0
  outer loop
    vertex 587.3361477824158 1096.9376369257836 0.49999999999999994
    vertex 587.4913210906485 1098.1487413023008 0.49999999999999994
    vertex 587.9980127965791 1097.1799923584276 0.49999999999999994
  endloop
endfacet
facet normal 0.0 0.0 -1.0
  outer loop
    vertex 587.9980127965791 1097.1799923584276 0.49999999999999994
    vertex 587.4913210906485 1098.1487413023008 0.49999999999999994
    vertex 587.8344418243022 1098.3899911614992 0.49999999999999994
  endloop
endfacet
facet normal 0.0 0.0 -1.0
  outer loop
    vertex 587.9980127965791 1097.1799923584276 0.49999999999999994
    vertex 587.8344418243022 1098.3899911614992 0.49999999999999994
    vertex 588.1034309442845 1098.711826811727 0.49999999999999994
  endloop
endfacet
facet normal 0.0 0.0 -1.0
  outer loop
    vertex 587.9980127965791 1097.1799923584276 0.49999999999999994
    vertex 588.1034309442845 1098.711826811727 0.49999999999999994
    vertex 588.5745991056242 1097.5853930009123 0.49999999999999994
  endloop
endfacet
facet normal 0.0 0.0 -1.0
  outer loop
    vertex 588.5745991056242 1097.5853930009123 0.49999999999999994
    vertex 588.1034309442845 1098.711826811727 0.49999999999999994
    vertex 588.2799572865943 1099.0923156852791 0.49999999999999994
  endloop
endfacet
facet normal 0.0 0.0 -1.0
  outer loop
    vertex 588.5745991056242 1097.5853930009123 0.49999999999999994
    vertex 588.2799572865943 1099.0923156852791 0.49999999999999994
    vertex 588.3519908727269 1099.505528094211 0.49999999999999994
  endloop
endfacet
facet normal -0.0 -0.0 1.0
  outer loop
    vertex 584.1117844843524 1098.9829929637635 5.0
    vertex 584.1700369294393 1100.379401308577 5.0
    vertex 584.0489903837725 1099.6850316761133 5.0
  endloop
endfacet
facet normal -0.0 -0.0 1.0
  outer loop
    vertex 584.1700369294393 1100.379401308577 5.0
    vertex 584.1117844843524 1098.9829929637635 5.0
    vertex 584.3541399169964 1098.3211279496004 5.0
  endloop
endfacet
facet normal -0.0 -0.0 1.0
  outer loop
    vertex 584.1700369294393 1100.379401308577 5.0
    vertex 584.3541399169964 1098.3211279496004 5.0
    vertex 584.4666749993044 1101.0187817182018 5.0
  endloop
endfacet
facet normal -0.0 -0.0 1.0
  outer loop
    vertex 584.4666749993044 1101.0187817182018 5.0
    vertex 584.3541399169964 1098.3211279496004 5.0
    vertex 584.759540559481 1097.744541640555 5.0
  endloop
endfacet
facet normal -0.0 -0.0 1.0
  outer loop
    vertex 584.4666749993044 1101.0187817182018 5.0
    vertex 584.759540559481 1097.744541640555 5.0
    vertex 584.9186891991238 1101.5596001866984 5.0
  endloop
endfacet
facet normal -0.0 -0.0 1.0
  outer loop
    vertex 584.9186891991238 1101.5596001866984 5.0
    vertex 584.759540559481 1097.744541640555 5.0
    vertex 585.3003590279776 1097.2925274407355 5.0
  endloop
endfacet
facet normal -0.0 -0.0 1.0
  outer loop
    vertex 584.9186891991238 1101.5596001866984 5.0
    vertex 585.3003590279776 1097.2925274407355 5.0
    vertex 585.1412974320211 1099.6394650933996 5.0
  endloop
endfacet
facet normal -0.0 -0.0 1.0
  outer loop
    vertex 585.1412974320211 1099.6394650933996 5.0
    vertex 585.3003590279776 1097.2925274407355 5.0
    vertex 585.1786655719199 1099.221688891891 5.0
  endloop
endfacet
facet normal -0.0 -0.0 1.0
  outer loop
    vertex 585.1786655719199 1099.221688891891 5.0
    vertex 585.3003590279776 1097.2925274407355 5.0
    vertex 585.3228888608693 1098.827819655531 5.0
  endloop
endfacet
facet normal -0.0 -0.0 1.0
  outer loop
    vertex 585.3228888608693 1098.827819655531 5.0
    vertex 585.3003590279776 1097.2925274407355 5.0
    vertex 585.9397394376025 1096.9958893708706 5.0
  endloop
endfacet
facet normal -0.0 -0.0 1.0
  outer loop
    vertex 585.3228888608693 1098.827819655531 5.0
    vertex 585.9397394376025 1096.9958893708706 5.0
    vertex 585.5641387200681 1098.4846989218772 5.0
  endloop
endfacet
facet normal -0.0 -0.0 1.0
  outer loop
    vertex 585.5641387200681 1098.4846989218772 5.0
    vertex 585.9397394376025 1096.9958893708706 5.0
    vertex 585.8859743702957 1098.2157098018947 5.0
  endloop
endfacet
facet normal -0.0 -0.0 1.0
  outer loop
    vertex 585.8859743702957 1098.2157098018947 5.0
    vertex 585.9397394376025 1096.9958893708706 5.0
    vertex 586.266463243848 1098.0391834595848 5.0
  endloop
endfacet
facet normal -0.0 -0.0 1.0
  outer loop
    vertex 586.266463243848 1098.0391834595848 5.0
    vertex 585.9397394376025 1096.9958893708706 5.0
    vertex 586.6341090700661 1096.8748428252038 5.0
  endloop
endfacet
facet normal -0.0 -0.0 1.0
  outer loop
    vertex 586.266463243848 1098.0391834595848 5.0
    vertex 586.6341090700661 1096.8748428252038 5.0
    vertex 586.6796756527798 1097.9671498734524 5.0
  endloop
endfacet
facet normal -0.0 -0.0 1.0
  outer loop
    vertex 586.6796756527798 1097.9671498734524 5.0
    vertex 586.6341090700661 1096.8748428252038 5.0
    vertex 587.3361477824158 1096.9376369257836 5.0
  endloop
endfacet
facet normal -0.0 -0.0 1.0
  outer loop
    vertex 586.6796756527798 1097.9671498734524 5.0
    vertex 587.3361477824158 1096.9376369257836 5.0
    vertex 587.0974518542884 1098.0045180133513 5.0
  endloop
endfacet
facet normal -0.0 -0.0 1.0
  outer loop
    vertex 587.0974518542884 1098.0045180133513 5.0
    vertex 587.3361477824158 1096.9376369257836 5.0
    vertex 587.4913210906485 1098.1487413023008 5.0
  endloop
endfacet
facet normal -0.0 -0.0 1.0
  outer loop
    vertex 587.4913210906485 1098.1487413023008 5.0
    vertex 587.3361477824158 1096.9376369257836 5.0
    vertex 587.9980127965791 1097.1799923584276 5.0
  endloop
endfacet
facet normal -0.0 -0.0 1.0
  outer loop
    vertex 587.4913210906485 1098.1487413023008 5.0
    vertex 587.9980127965791 1097.1799923584276 5.0
    vertex 587.8344418243022 1098.3899911614992 5.0
  endloop
endfacet
facet normal -0.0 -0.0 1.0
  outer loop
    vertex 587.8344418243022 1098.3899911614992 5.0
    vertex 587.9980127965791 1097.1799923584276 5.0
    vertex 588.1034309442845 1098.711826811727 5.0
  endloop
endfacet
facet normal -0.0 -0.0 1.0
  outer loop
    vertex 588.1034309442845 1098.711826811727 5.0
    vertex 587.9980127965791 1097.1799923584276 5.0
    vertex 588.5745991056242 1097.5853930009123 5.0
  endloop
endfacet
facet normal -0.0 -0.0 1.0
  outer loop
    vertex 588.1034309442845 1098.711826811727 5.0
    vertex 588.5745991056242 1097.5853930009123 5.0
    vertex 588.2799572865943 1099.0923156852791 5.0
  endloop
endfacet
facet normal -0.0 -0.0 1.0
  outer loop
    vertex 588.2799572865943 1099.0923156852791 5.0
    vertex 588.5745991056242 1097.5853930009123 5.0
    vertex 588.3519908727269 1099.505528094211 5.0
  endloop
endfacet
facet normal -0.0 -0.0 1.0
  outer loop
    vertex 585.1412974320211 1099.6394650933996 5.0
    vertex 585.495275508169 1101.965000829183 5.0
    vertex 584.9186891991238 1101.5596001866984 5.0
  endloop
endfacet
facet normal -0.0 -0.0 1.0
  outer loop
    vertex 585.495275508169 1101.965000829183 5.0
    vertex 585.1412974320211 1099.6394650933996 5.0
    vertex 585.2133310181538 1100.0526775023316 5.0
  endloop
endfacet
facet normal -0.0 -0.0 1.0
  outer loop
    vertex 585.495275508169 1101.965000829183 5.0
    vertex 585.2133310181538 1100.0526775023316 5.0
    vertex 585.3898573604637 1100.4331663758837 5.0
  endloop
endfacet
facet normal -0.0 -0.0 1.0
  outer loop
    vertex 585.495275508169 1101.965000829183 5.0
    vertex 585.3898573604637 1100.4331663758837 5.0
    vertex 585.658846480446 1100.7550020261115 5.0
  endloop
endfacet
facet normal -0.0 -0.0 1.0
  outer loop
    vertex 585.495275508169 1101.965000829183 5.0
    vertex 585.658846480446 1100.7550020261115 5.0
    vertex 586.1571405223323 1102.207356261827 5.0
  endloop
endfacet
facet normal -0.0 -0.0 1.0
  outer loop
    vertex 586.1571405223323 1102.207356261827 5.0
    vertex 585.658846480446 1100.7550020261115 5.0
    vertex 586.0019672140996 1100.99625188531 5.0
  endloop
endfacet
facet normal -0.0 -0.0 1.0
  outer loop
    vertex 586.1571405223323 1102.207356261827 5.0
    vertex 586.0019672140996 1100.99625188531 5.0
    vertex 586.3958364504599 1101.1404751742596 5.0
  endloop
endfacet
facet normal -0.0 -0.0 1.0
  outer loop
    vertex 586.1571405223323 1102.207356261827 5.0
    vertex 586.3958364504599 1101.1404751742596 5.0
    vertex 586.8591792346821 1102.2701503624069 5.0
  endloop
endfacet
facet normal -0.0 -0.0 1.0
  outer loop
    vertex 586.8591792346821 1102.2701503624069 5.0
    vertex 586.3958364504599 1101.1404751742596 5.0
    vertex 586.8136126519684 1101.1778433141583 5.0
  endloop
endfacet
facet normal -0.0 -0.0 1.0
  outer loop
    vertex 586.8591792346821 1102.2701503624069 5.0
    vertex 586.8136126519684 1101.1778433141583 5.0
    vertex 587.2268250609001 1101.1058097280259 5.0
  endloop
endfacet
facet normal -0.0 -0.0 1.0
  outer loop
    vertex 586.8591792346821 1102.2701503624069 5.0
    vertex 587.2268250609001 1101.1058097280259 5.0
    vertex 587.5535488671457 1102.14910381674 5.0
  endloop
endfacet
facet normal -0.0 -0.0 1.0
  outer loop
    vertex 587.5535488671457 1102.14910381674 5.0
    vertex 587.2268250609001 1101.1058097280259 5.0
    vertex 587.6073139344525 1100.929283385716 5.0
  endloop
endfacet
facet normal -0.0 -0.0 1.0
  outer loop
    vertex 587.5535488671457 1102.14910381674 5.0
    vertex 587.6073139344525 1100.929283385716 5.0
    vertex 588.1929292767705 1101.8524657468752 5.0
  endloop
endfacet
facet normal -0.0 -0.0 1.0
  outer loop
    vertex 588.1929292767705 1101.8524657468752 5.0
    vertex 587.6073139344525 1100.929283385716 5.0
    vertex 587.9291495846801 1100.6602942657335 5.0
  endloop
endfacet
facet normal -0.0 -0.0 1.0
  outer loop
    vertex 588.1929292767705 1101.8524657468752 5.0
    vertex 587.9291495846801 1100.6602942657335 5.0
    vertex 588.1703994438789 1100.3171735320798 5.0
  endloop
endfacet
facet normal -0.0 -0.0 1.0
  outer loop
    vertex 588.1929292767705 1101.8524657468752 5.0
    vertex 588.1703994438789 1100.3171735320798 5.0
    vertex 588.3146227328282 1099.9233042957196 5.0
  endloop
endfacet
facet normal -0.0 -0.0 1.0
  outer loop
    vertex 588.1929292767705 1101.8524657468752 5.0
    vertex 588.3146227328282 1099.9233042957196 5.0
    vertex 588.733747745267 1101.4004515470556 5.0
  endloop
endfacet
facet normal -0.0 -0.0 1.0
  outer loop
    vertex 588.733747745267 1101.4004515470556 5.0
    vertex 588.3146227328282 1099.9233042957196 5.0
    vertex 588.3519908727269 1099.505528094211 5.0
  endloop
endfacet
facet normal -0.0 -0.0 1.0
  outer loop
    vertex 588.733747745267 1101.4004515470556 5.0
    vertex 588.3519908727269 1099.505528094211 5.0
    vertex 588.5745991056242 1097.5853930009123 5.0
  endloop
endfacet
facet normal -0.0 -0.0 1.0
  outer loop
    vertex 588.733747745267 1101.4004515470556 5.0
    vertex 588.5745991056242 1097.5853930009123 5.0
    vertex 589.0266133054438 1098.1262114694089 5.0
  endloop
endfacet
facet normal -0.0 -0.0 1.0
  outer loop
    vertex 588.733747745267 1101.4004515470556 5.0
    vertex 589.0266133054438 1098.1262114694089 5.0
    vertex 589.1391483877518 1100.8238652380103 5.0
  endloop
endfacet
facet normal -0.0 -0.0 1.0
  outer loop
    vertex 589.1391483877518 1100.8238652380103 5.0
    vertex 589.0266133054438 1098.1262114694089 5.0
    vertex 589.3232513753088 1098.7655918790338 5.0
  endloop
endfacet
facet normal -0.0 -0.0 1.0
  outer loop
    vertex 589.1391483877518 1100.8238652380103 5.0
    vertex 589.3232513753088 1098.7655918790338 5.0
    vertex 589.3815038203958 1100.1620002238471 5.0
  endloop
endfacet
facet normal -0.0 -0.0 1.0
  outer loop
    vertex 589.3815038203958 1100.1620002238471 5.0
    vertex 589.3232513753088 1098.7655918790338 5.0
    vertex 589.4442979209756 1099.4599615114973 5.0
  endloop
endfacet
facet normal 0.6412991283679297 0.76729096694444 0.0
  outer loop
    vertex 588.1929292767705 1101.8524657468752 5.0
    vertex 588.733747745267 1101.4004515470556 0.49999999999999994
    vertex 588.1929292767705 1101.8524657468752 0.49999999999999994
  endloop
endfacet
facet normal 0.6412991283679297 0.76729096694444 0.0
  outer loop
    vertex 588.733747745267 1101.4004515470556 0.49999999999999994
    vertex 588.1929292767705 1101.8524657468752 5.0
    vertex 588.733747745267 1101.4004515470556 5.0
  endloop
endfacet
facet normal 0.8180369058477355 0.5751657332204897 0.0
  outer loop
    vertex 588.733747745267 1101.4004515470556 0.49999999999999994
    vertex 589.1391483877518 1100.8238652380103 5.0
    vertex 589.1391483877518 1100.8238652380103 0.49999999999999994
  endloop
endfacet
facet normal 0.8180369058477355 0.5751657332204897 0.0
  outer loop
    vertex 589.1391483877518 1100.8238652380103 5.0
    vertex 588.733747745267 1101.4004515470556 0.49999999999999994
    vertex 588.733747745267 1101.4004515470556 5.0
  endloop
endfacet
facet normal -0.9390268200637353 -0.34384390528405395 -0.0
  outer loop
    vertex 588.1703994438789 1100.3171735320798 5.0
    vertex 588.3146227328282 1099.9233042957196 0.49999999999999994
    vertex 588.3146227328282 1099.9233042957196 5.0
  endloop
endfacet
facet normal -0.9390268200637353 -0.34384390528405395 -0.0
  outer loop
    vertex 588.3146227328282 1099.9233042957196 0.49999999999999994
    vertex 588.1703994438789 1100.3171735320798 5.0
    vertex 588.1703994438789 1100.3171735320798 0.49999999999999994
  endloop
endfacet
facet normal -0.17173585311927084 -0.9851430336521678 -0.0
  outer loop
    vertex 587.2268250609001 1101.1058097280259 5.0
    vertex 586.8136126519684 1101.1778433141583 0.49999999999999994
    vertex 587.2268250609001 1101.1058097280259 0.49999999999999994
  endloop
endfacet
facet normal -0.17173585311927084 -0.9851430336521678 -0.0
  outer loop
    vertex 586.8136126519684 1101.1778433141583 0.49999999999999994
    vertex 587.2268250609001 1101.1058097280259 5.0
    vertex 586.8136126519684 1101.1778433141583 5.0
  endloop
endfacet
facet normal -0.5751657332205499 0.8180369058476931 0.0
  outer loop
    vertex 584.9186891991238 1101.5596001866984 5.0
    vertex 585.495275508169 1101.965000829183 0.49999999999999994
    vertex 584.9186891991238 1101.5596001866984 0.49999999999999994
  endloop
endfacet
facet normal -0.5751657332205499 0.8180369058476931 0.0
  outer loop
    vertex 585.495275508169 1101.965000829183 0.49999999999999994
    vertex 584.9186891991238 1101.5596001866984 5.0
    vertex 585.495275508169 1101.965000829183 5.0
  endloop
endfacet
facet normal -0.1717358531194032 -0.9851430336521447 -0.0
  outer loop
    vertex 586.6341090700661 1096.8748428252038 5.0
    vertex 585.9397394376025 1096.9958893708706 0.49999999999999994
    vertex 586.6341090700661 1096.8748428252038 0.49999999999999994
  endloop
endfacet
facet normal -0.1717358531194032 -0.9851430336521447 -0.0
  outer loop
    vertex 585.9397394376025 1096.9958893708706 0.49999999999999994
    vertex 586.6341090700661 1096.8748428252038 5.0
    vertex 585.9397394376025 1096.9958893708706 5.0
  endloop
endfacet
facet normal -0.08908968343160188 0.9960236083075827 0.0
  outer loop
    vertex 586.1571405223323 1102.207356261827 5.0
    vertex 586.8591792346821 1102.2701503624069 0.49999999999999994
    vertex 586.1571405223323 1102.207356261827 0.49999999999999994
  endloop
endfacet
facet normal -0.08908968343160188 0.9960236083075827 0.0
  outer loop
    vertex 586.8591792346821 1102.2701503624069 0.49999999999999994
    vertex 586.1571405223323 1102.207356261827 5.0
    vertex 586.8591792346821 1102.2701503624069 5.0
  endloop
endfacet
facet normal 0.34384390528403735 -0.9390268200637413 0.0
  outer loop
    vertex 587.9980127965791 1097.1799923584276 5.0
    vertex 587.3361477824158 1096.9376369257836 0.49999999999999994
    vertex 587.9980127965791 1097.1799923584276 0.49999999999999994
  endloop
endfacet
facet normal 0.34384390528403735 -0.9390268200637413 0.0
  outer loop
    vertex 587.3361477824158 1096.9376369257836 0.49999999999999994
    vertex 587.9980127965791 1097.1799923584276 5.0
    vertex 587.3361477824158 1096.9376369257836 5.0
  endloop
endfacet
facet normal 0.5751657332201795 -0.8180369058479535 -0.0
  outer loop
    vertex 586.0019672140996 1100.99625188531 5.0
    vertex 585.658846480446 1100.7550020261115 0.49999999999999994
    vertex 586.0019672140996 1100.99625188531 0.49999999999999994
  endloop
endfacet
facet normal 0.5751657332201795 -0.8180369058479535 -0.0
  outer loop
    vertex 585.658846480446 1100.7550020261115 0.49999999999999994
    vertex 586.0019672140996 1100.99625188531 5.0
    vertex 585.658846480446 1100.7550020261115 5.0
  endloop
endfacet
facet normal 0.9071265892791667 -0.42085787508700145 0.0
  outer loop
    vertex 589.3232513753088 1098.7655918790338 0.49999999999999994
    vertex 589.0266133054438 1098.1262114694089 5.0
    vertex 589.0266133054438 1098.1262114694089 0.49999999999999994
  endloop
endfacet
facet normal 0.9071265892791667 -0.42085787508700145 0.0
  outer loop
    vertex 589.0266133054438 1098.1262114694089 5.0
    vertex 589.3232513753088 1098.7655918790338 0.49999999999999994
    vertex 589.3232513753088 1098.7655918790338 5.0
  endloop
endfacet
facet normal -0.9960236083075953 -0.08908968343146352 -0.0
  outer loop
    vertex 584.0489903837725 1099.6850316761133 5.0
    vertex 584.1117844843524 1098.9829929637635 0.49999999999999994
    vertex 584.1117844843524 1098.9829929637635 5.0
  endloop
endfacet
facet normal -0.9960236083075953 -0.08908968343146352 -0.0
  outer loop
    vertex 584.1117844843524 1098.9829929637635 0.49999999999999994
    vertex 584.0489903837725 1099.6850316761133 5.0
    vertex 584.0489903837725 1099.6850316761133 0.49999999999999994
  endloop
endfacet
facet normal 0.9390268200636849 0.3438439052841916 0.0
  outer loop
    vertex 589.1391483877518 1100.8238652380103 0.49999999999999994
    vertex 589.3815038203958 1100.1620002238471 5.0
    vertex 589.3815038203958 1100.1620002238471 0.49999999999999994
  endloop
endfacet
facet normal 0.9390268200636849 0.3438439052841916 0.0
  outer loop
    vertex 589.3815038203958 1100.1620002238471 5.0
    vertex 589.1391483877518 1100.8238652380103 0.49999999999999994
    vertex 589.1391483877518 1100.8238652380103 5.0
  endloop
endfacet
facet normal 0.9960236083075953 0.08908968343146352 0.0
  outer loop
    vertex 589.3815038203958 1100.1620002238471 0.49999999999999994
    vertex 589.4442979209756 1099.4599615114973 5.0
    vertex 589.4442979209756 1099.4599615114973 0.49999999999999994
  endloop
endfacet
facet normal 0.9960236083075953 0.08908968343146352 0.0
  outer loop
    vertex 589.4442979209756 1099.4599615114973 5.0
    vertex 589.3815038203958 1100.1620002238471 0.49999999999999994
    vertex 589.3815038203958 1100.1620002238471 5.0
  endloop
endfacet
facet normal 0.5751657332205499 -0.8180369058476931 0.0
  outer loop
    vertex 588.5745991056242 1097.5853930009123 5.0
    vertex 587.9980127965791 1097.1799923584276 0.49999999999999994
    vertex 588.5745991056242 1097.5853930009123 0.49999999999999994
  endloop
endfacet
facet normal 0.5751657332205499 -0.8180369058476931 0.0
  outer loop
    vertex 587.9980127965791 1097.1799923584276 0.49999999999999994
    vertex 588.5745991056242 1097.5853930009123 5.0
    vertex 587.9980127965791 1097.1799923584276 5.0
  endloop
endfacet
facet normal 0.9851430336521664 -0.17173585311927891 0.0
  outer loop
    vertex 589.4442979209756 1099.4599615114973 0.49999999999999994
    vertex 589.3232513753088 1098.7655918790338 5.0
    vertex 589.3232513753088 1098.7655918790338 0.49999999999999994
  endloop
endfacet
facet normal 0.9851430336521664 -0.17173585311927891 0.0
  outer loop
    vertex 589.3232513753088 1098.7655918790338 5.0
    vertex 589.4442979209756 1099.4599615114973 0.49999999999999994
    vertex 589.4442979209756 1099.4599615114973 5.0
  endloop
endfacet
facet normal 0.767290966944377 -0.6412991283680051 0.0
  outer loop
    vertex 589.0266133054438 1098.1262114694089 0.49999999999999994
    vertex 588.5745991056242 1097.5853930009123 5.0
    vertex 588.5745991056242 1097.5853930009123 0.49999999999999994
  endloop
endfacet
facet normal 0.767290966944377 -0.6412991283680051 0.0
  outer loop
    vertex 588.5745991056242 1097.5853930009123 5.0
    vertex 589.0266133054438 1098.1262114694089 0.49999999999999994
    vertex 589.0266133054438 1098.1262114694089 5.0
  endloop
endfacet
facet normal -0.6412991283681014 -0.7672909669442964 -0.0
  outer loop
    vertex 587.9291495846801 1100.6602942657335 5.0
    vertex 587.6073139344525 1100.929283385716 0.49999999999999994
    vertex 587.9291495846801 1100.6602942657335 0.49999999999999994
  endloop
endfacet
facet normal -0.6412991283681014 -0.7672909669442964 -0.0
  outer loop
    vertex 587.6073139344525 1100.929283385716 0.49999999999999994
    vertex 587.9291495846801 1100.6602942657335 5.0
    vertex 587.6073139344525 1100.929283385716 5.0
  endloop
endfacet
facet normal -0.9390268200636849 -0.3438439052841916 -0.0
  outer loop
    vertex 584.1117844843524 1098.9829929637635 5.0
    vertex 584.3541399169964 1098.3211279496004 0.49999999999999994
    vertex 584.3541399169964 1098.3211279496004 5.0
  endloop
endfacet
facet normal -0.9390268200636849 -0.3438439052841916 -0.0
  outer loop
    vertex 584.3541399169964 1098.3211279496004 0.49999999999999994
    vertex 584.1117844843524 1098.9829929637635 5.0
    vertex 584.1117844843524 1098.9829929637635 0.49999999999999994
  endloop
endfacet
facet normal 0.08908968343142072 -0.996023608307599 -0.0
  outer loop
    vertex 586.8136126519684 1101.1778433141583 5.0
    vertex 586.3958364504599 1101.1404751742596 0.49999999999999994
    vertex 586.8136126519684 1101.1778433141583 0.49999999999999994
  endloop
endfacet
facet normal 0.08908968343142072 -0.996023608307599 -0.0
  outer loop
    vertex 586.3958364504599 1101.1404751742596 0.49999999999999994
    vertex 586.8136126519684 1101.1778433141583 5.0
    vertex 586.3958364504599 1101.1404751742596 5.0
  endloop
endfacet
facet normal 0.4208578750868961 0.9071265892792155 0.0
  outer loop
    vertex 587.5535488671457 1102.14910381674 5.0
    vertex 588.1929292767705 1101.8524657468752 0.49999999999999994
    vertex 587.5535488671457 1102.14910381674 0.49999999999999994
  endloop
endfacet
facet normal 0.4208578750868961 0.9071265892792155 0.0
  outer loop
    vertex 588.1929292767705 1101.8524657468752 0.49999999999999994
    vertex 587.5535488671457 1102.14910381674 5.0
    vertex 588.1929292767705 1101.8524657468752 5.0
  endloop
endfacet
facet normal -0.8180369058477209 -0.5751657332205102 -0.0
  outer loop
    vertex 587.9291495846801 1100.6602942657335 5.0
    vertex 588.1703994438789 1100.3171735320798 0.49999999999999994
    vertex 588.1703994438789 1100.3171735320798 5.0
  endloop
endfacet
facet normal -0.8180369058477209 -0.5751657332205102 -0.0
  outer loop
    vertex 588.1703994438789 1100.3171735320798 0.49999999999999994
    vertex 587.9291495846801 1100.6602942657335 5.0
    vertex 587.9291495846801 1100.6602942657335 0.49999999999999994
  endloop
endfacet
facet normal -0.9071265892791667 0.42085787508700145 0.0
  outer loop
    vertex 584.4666749993044 1101.0187817182018 5.0
    vertex 584.1700369294393 1100.379401308577 0.49999999999999994
    vertex 584.1700369294393 1100.379401308577 5.0
  endloop
endfacet
facet normal -0.9071265892791667 0.42085787508700145 0.0
  outer loop
    vertex 584.1700369294393 1100.379401308577 0.49999999999999994
    vertex 584.4666749993044 1101.0187817182018 5.0
    vertex 584.4666749993044 1101.0187817182018 0.49999999999999994
  endloop
endfacet
facet normal -0.4208578750871073 -0.9071265892791177 -0.0
  outer loop
    vertex 587.6073139344525 1100.929283385716 5.0
    vertex 587.2268250609001 1101.1058097280259 0.49999999999999994
    vertex 587.6073139344525 1100.929283385716 0.49999999999999994
  endloop
endfacet
facet normal -0.4208578750871073 -0.9071265892791177 -0.0
  outer loop
    vertex 587.2268250609001 1101.1058097280259 0.49999999999999994
    vertex 587.6073139344525 1100.929283385716 5.0
    vertex 587.2268250609001 1101.1058097280259 5.0
  endloop
endfacet
facet normal -0.4208578750868961 -0.9071265892792155 -0.0
  outer loop
    vertex 585.9397394376025 1096.9958893708706 5.0
    vertex 585.3003590279776 1097.2925274407355 0.49999999999999994
    vertex 585.9397394376025 1096.9958893708706 0.49999999999999994
  endloop
endfacet
facet normal -0.4208578750868961 -0.9071265892792155 -0.0
  outer loop
    vertex 585.3003590279776 1097.2925274407355 0.49999999999999994
    vertex 585.9397394376025 1096.9958893708706 5.0
    vertex 585.3003590279776 1097.2925274407355 5.0
  endloop
endfacet
facet normal -0.6412991283679297 -0.76729096694444 -0.0
  outer loop
    vertex 585.3003590279776 1097.2925274407355 5.0
    vertex 584.759540559481 1097.744541640555 0.49999999999999994
    vertex 585.3003590279776 1097.2925274407355 0.49999999999999994
  endloop
endfacet
facet normal -0.6412991283679297 -0.76729096694444 -0.0
  outer loop
    vertex 584.759540559481 1097.744541640555 0.49999999999999994
    vertex 585.3003590279776 1097.2925274407355 5.0
    vertex 584.759540559481 1097.744541640555 5.0
  endloop
endfacet
facet normal 0.1717358531194032 0.9851430336521447 0.0
  outer loop
    vertex 586.8591792346821 1102.2701503624069 5.0
    vertex 587.5535488671457 1102.14910381674 0.49999999999999994
    vertex 586.8591792346821 1102.2701503624069 0.49999999999999994
  endloop
endfacet
facet normal 0.1717358531194032 0.9851430336521447 0.0
  outer loop
    vertex 587.5535488671457 1102.14910381674 0.49999999999999994
    vertex 586.8591792346821 1102.2701503624069 5.0
    vertex 587.5535488671457 1102.14910381674 5.0
  endloop
endfacet
facet normal -0.34384390528403735 0.9390268200637413 0.0
  outer loop
    vertex 585.495275508169 1101.965000829183 5.0
    vertex 586.1571405223323 1102.207356261827 0.49999999999999994
    vertex 585.495275508169 1101.965000829183 0.49999999999999994
  endloop
endfacet
facet normal -0.34384390528403735 0.9390268200637413 0.0
  outer loop
    vertex 586.1571405223323 1102.207356261827 0.49999999999999994
    vertex 585.495275508169 1101.965000829183 5.0
    vertex 586.1571405223323 1102.207356261827 5.0
  endloop
endfacet
facet normal -0.8180369058477355 -0.5751657332204897 -0.0
  outer loop
    vertex 584.3541399169964 1098.3211279496004 5.0
    vertex 584.759540559481 1097.744541640555 0.49999999999999994
    vertex 584.759540559481 1097.744541640555 5.0
  endloop
endfacet
facet normal -0.8180369058477355 -0.5751657332204897 -0.0
  outer loop
    vertex 584.759540559481 1097.744541640555 0.49999999999999994
    vertex 584.3541399169964 1098.3211279496004 5.0
    vertex 584.3541399169964 1098.3211279496004 0.49999999999999994
  endloop
endfacet
facet normal 0.7672909669444907 -0.641299128367869 -0.0
  outer loop
    vertex 585.658846480446 1100.7550020261115 0.49999999999999994
    vertex 585.3898573604637 1100.4331663758837 5.0
    vertex 585.3898573604637 1100.4331663758837 0.49999999999999994
  endloop
endfacet
facet normal 0.7672909669444907 -0.641299128367869 -0.0
  outer loop
    vertex 585.3898573604637 1100.4331663758837 5.0
    vertex 585.658846480446 1100.7550020261115 0.49999999999999994
    vertex 585.658846480446 1100.7550020261115 5.0
  endloop
endfacet
facet normal 0.08908968343160188 -0.9960236083075827 0.0
  outer loop
    vertex 587.3361477824158 1096.9376369257836 5.0
    vertex 586.6341090700661 1096.8748428252038 0.49999999999999994
    vertex 587.3361477824158 1096.9376369257836 0.49999999999999994
  endloop
endfacet
facet normal 0.08908968343160188 -0.9960236083075827 0.0
  outer loop
    vertex 586.6341090700661 1096.8748428252038 0.49999999999999994
    vertex 587.3361477824158 1096.9376369257836 5.0
    vertex 586.6341090700661 1096.8748428252038 5.0
  endloop
endfacet
facet normal 0.9071265892791616 -0.42085787508701233 -0.0
  outer loop
    vertex 585.3898573604637 1100.4331663758837 0.49999999999999994
    vertex 585.2133310181538 1100.0526775023316 5.0
    vertex 585.2133310181538 1100.0526775023316 0.49999999999999994
  endloop
endfacet
facet normal 0.9071265892791616 -0.42085787508701233 -0.0
  outer loop
    vertex 585.2133310181538 1100.0526775023316 5.0
    vertex 585.3898573604637 1100.4331663758837 0.49999999999999994
    vertex 585.3898573604637 1100.4331663758837 5.0
  endloop
endfacet
facet normal -0.9851430336521664 0.17173585311927891 0.0
  outer loop
    vertex 584.1700369294393 1100.379401308577 5.0
    vertex 584.0489903837725 1099.6850316761133 0.49999999999999994
    vertex 584.0489903837725 1099.6850316761133 5.0
  endloop
endfacet
facet normal -0.9851430336521664 0.17173585311927891 0.0
  outer loop
    vertex 584.0489903837725 1099.6850316761133 0.49999999999999994
    vertex 584.1700369294393 1100.379401308577 5.0
    vertex 584.1700369294393 1100.379401308577 0.49999999999999994
  endloop
endfacet
facet normal 0.34384390528448416 -0.9390268200635778 -0.0
  outer loop
    vertex 586.3958364504599 1101.1404751742596 5.0
    vertex 586.0019672140996 1100.99625188531 0.49999999999999994
    vertex 586.3958364504599 1101.1404751742596 0.49999999999999994
  endloop
endfacet
facet normal 0.34384390528448416 -0.9390268200635778 -0.0
  outer loop
    vertex 586.0019672140996 1100.99625188531 0.49999999999999994
    vertex 586.3958364504599 1101.1404751742596 5.0
    vertex 586.0019672140996 1100.99625188531 5.0
  endloop
endfacet
facet normal -0.767290966944377 0.6412991283680051 0.0
  outer loop
    vertex 584.9186891991238 1101.5596001866984 5.0
    vertex 584.4666749993044 1101.0187817182018 0.49999999999999994
    vertex 584.4666749993044 1101.0187817182018 5.0
  endloop
endfacet
facet normal -0.767290966944377 0.6412991283680051 0.0
  outer loop
    vertex 584.4666749993044 1101.0187817182018 0.49999999999999994
    vertex 584.9186891991238 1101.5596001866984 5.0
    vertex 584.9186891991238 1101.5596001866984 0.49999999999999994
  endloop
endfacet
facet normal 0.8180369058477209 0.5751657332205102 0.0
  outer loop
    vertex 585.3228888608693 1098.827819655531 0.49999999999999994
    vertex 585.5641387200681 1098.4846989218772 5.0
    vertex 585.5641387200681 1098.4846989218772 0.49999999999999994
  endloop
endfacet
facet normal 0.8180369058477209 0.5751657332205102 0.0
  outer loop
    vertex 585.5641387200681 1098.4846989218772 5.0
    vertex 585.3228888608693 1098.827819655531 0.49999999999999994
    vertex 585.3228888608693 1098.827819655531 5.0
  endloop
endfacet
facet normal 0.9960236083075816 0.08908968343161507 0.0
  outer loop
    vertex 585.1412974320211 1099.6394650933996 0.49999999999999994
    vertex 585.1786655719199 1099.221688891891 5.0
    vertex 585.1786655719199 1099.221688891891 0.49999999999999994
  endloop
endfacet
facet normal 0.9960236083075816 0.08908968343161507 0.0
  outer loop
    vertex 585.1786655719199 1099.221688891891 5.0
    vertex 585.1412974320211 1099.6394650933996 0.49999999999999994
    vertex 585.1412974320211 1099.6394650933996 5.0
  endloop
endfacet
facet normal 0.9851430336521014 -0.17173585311965203 -0.0
  outer loop
    vertex 585.2133310181538 1100.0526775023316 0.49999999999999994
    vertex 585.1412974320211 1099.6394650933996 5.0
    vertex 585.1412974320211 1099.6394650933996 0.49999999999999994
  endloop
endfacet
facet normal 0.9851430336521014 -0.17173585311965203 -0.0
  outer loop
    vertex 585.1412974320211 1099.6394650933996 5.0
    vertex 585.2133310181538 1100.0526775023316 0.49999999999999994
    vertex 585.2133310181538 1100.0526775023316 5.0
  endloop
endfacet
facet normal -0.9851430336521014 0.17173585311965203 -0.0
  outer loop
    vertex 588.3519908727269 1099.505528094211 5.0
    vertex 588.2799572865943 1099.0923156852791 0.49999999999999994
    vertex 588.2799572865943 1099.0923156852791 5.0
  endloop
endfacet
facet normal -0.9851430336521014 0.17173585311965203 -0.0
  outer loop
    vertex 588.2799572865943 1099.0923156852791 0.49999999999999994
    vertex 588.3519908727269 1099.505528094211 5.0
    vertex 588.3519908727269 1099.505528094211 0.49999999999999994
  endloop
endfacet
facet normal 0.6412991283681014 0.7672909669442964 0.0
  outer loop
    vertex 585.5641387200681 1098.4846989218772 5.0
    vertex 585.8859743702957 1098.2157098018947 0.49999999999999994
    vertex 585.5641387200681 1098.4846989218772 0.49999999999999994
  endloop
endfacet
facet normal 0.6412991283681014 0.7672909669442964 0.0
  outer loop
    vertex 585.8859743702957 1098.2157098018947 0.49999999999999994
    vertex 585.5641387200681 1098.4846989218772 5.0
    vertex 585.8859743702957 1098.2157098018947 5.0
  endloop
endfacet
facet normal 0.17173585311927084 0.9851430336521678 0.0
  outer loop
    vertex 586.266463243848 1098.0391834595848 5.0
    vertex 586.6796756527798 1097.9671498734524 0.49999999999999994
    vertex 586.266463243848 1098.0391834595848 0.49999999999999994
  endloop
endfacet
facet normal 0.17173585311927084 0.9851430336521678 0.0
  outer loop
    vertex 586.6796756527798 1097.9671498734524 0.49999999999999994
    vertex 586.266463243848 1098.0391834595848 5.0
    vertex 586.6796756527798 1097.9671498734524 5.0
  endloop
endfacet
facet normal -0.7672909669444907 0.641299128367869 -0.0
  outer loop
    vertex 588.1034309442845 1098.711826811727 5.0
    vertex 587.8344418243022 1098.3899911614992 0.49999999999999994
    vertex 587.8344418243022 1098.3899911614992 5.0
  endloop
endfacet
facet normal -0.7672909669444907 0.641299128367869 -0.0
  outer loop
    vertex 587.8344418243022 1098.3899911614992 0.49999999999999994
    vertex 588.1034309442845 1098.711826811727 5.0
    vertex 588.1034309442845 1098.711826811727 0.49999999999999994
  endloop
endfacet
facet normal 0.9390268200637353 0.34384390528405395 0.0
  outer loop
    vertex 585.1786655719199 1099.221688891891 0.49999999999999994
    vertex 585.3228888608693 1098.827819655531 5.0
    vertex 585.3228888608693 1098.827819655531 0.49999999999999994
  endloop
endfacet
facet normal 0.9390268200637353 0.34384390528405395 0.0
  outer loop
    vertex 585.3228888608693 1098.827819655531 5.0
    vertex 585.1786655719199 1099.221688891891 0.49999999999999994
    vertex 585.1786655719199 1099.221688891891 5.0
  endloop
endfacet
facet normal -0.5751657332201795 0.8180369058479535 -0.0
  outer loop
    vertex 587.4913210906485 1098.1487413023008 5.0
    vertex 587.8344418243022 1098.3899911614992 0.49999999999999994
    vertex 587.4913210906485 1098.1487413023008 0.49999999999999994
  endloop
endfacet
facet normal -0.5751657332201795 0.8180369058479535 -0.0
  outer loop
    vertex 587.8344418243022 1098.3899911614992 0.49999999999999994
    vertex 587.4913210906485 1098.1487413023008 5.0
    vertex 587.8344418243022 1098.3899911614992 5.0
  endloop
endfacet
facet normal -0.9960236083075816 -0.08908968343161507 -0.0
  outer loop
    vertex 588.3146227328282 1099.9233042957196 5.0
    vertex 588.3519908727269 1099.505528094211 0.49999999999999994
    vertex 588.3519908727269 1099.505528094211 5.0
  endloop
endfacet
facet normal -0.9960236083075816 -0.08908968343161507 -0.0
  outer loop
    vertex 588.3519908727269 1099.505528094211 0.49999999999999994
    vertex 588.3146227328282 1099.9233042957196 5.0
    vertex 588.3146227328282 1099.9233042957196 0.49999999999999994
  endloop
endfacet
facet normal 0.4208578750871073 0.9071265892791177 0.0
  outer loop
    vertex 585.8859743702957 1098.2157098018947 5.0
    vertex 586.266463243848 1098.0391834595848 0.49999999999999994
    vertex 585.8859743702957 1098.2157098018947 0.49999999999999994
  endloop
endfacet
facet normal 0.4208578750871073 0.9071265892791177 0.0
  outer loop
    vertex 586.266463243848 1098.0391834595848 0.49999999999999994
    vertex 585.8859743702957 1098.2157098018947 5.0
    vertex 586.266463243848 1098.0391834595848 5.0
  endloop
endfacet
facet normal -0.08908968343182849 0.9960236083075625 -0.0
  outer loop
    vertex 586.6796756527798 1097.9671498734524 5.0
    vertex 587.0974518542884 1098.0045180133513 0.49999999999999994
    vertex 586.6796756527798 1097.9671498734524 0.49999999999999994
  endloop
endfacet
facet normal -0.08908968343182849 0.9960236083075625 -0.0
  outer loop
    vertex 587.0974518542884 1098.0045180133513 0.49999999999999994
    vertex 586.6796756527798 1097.9671498734524 5.0
    vertex 587.0974518542884 1098.0045180133513 5.0
  endloop
endfacet
facet normal -0.9071265892791616 0.42085787508701233 -0.0
  outer loop
    vertex 588.2799572865943 1099.0923156852791 5.0
    vertex 588.1034309442845 1098.711826811727 0.49999999999999994
    vertex 588.1034309442845 1098.711826811727 5.0
  endloop
endfacet
facet normal -0.9071265892791616 0.42085787508701233 -0.0
  outer loop
    vertex 588.1034309442845 1098.711826811727 0.49999999999999994
    vertex 588.2799572865943 1099.0923156852791 5.0
    vertex 588.2799572865943 1099.0923156852791 0.49999999999999994
  endloop
endfacet
facet normal -0.3438439052841742 0.9390268200636912 -0.0
  outer loop
    vertex 587.0974518542884 1098.0045180133513 5.0
    vertex 587.4913210906485 1098.1487413023008 0.49999999999999994
    vertex 587.0974518542884 1098.0045180133513 0.49999999999999994
  endloop
endfacet
facet normal -0.3438439052841742 0.9390268200636912 -0.0
  outer loop
    vertex 587.4913210906485 1098.1487413023008 0.49999999999999994
    vertex 587.0974518542884 1098.0045180133513 5.0
    vertex 587.4913210906485 1098.1487413023008 5.0
  endloop
endfacet
endsolid Main_Body_RevB1
